<svg xmlns="http://www.w3.org/2000/svg" width="1440" height="81" fill="none" viewBox="0 0 1440 81"><path fill="#4e0b11" fill-rule="evenodd" d="M4.33 59.068c-1.067-.475-2.705-.431-3.665.092-.958.527-.87 1.337.192 1.807 3.224 1.429 18.587 8.231 39.127 12.448 13.907 2.854 30.157 4.517 46.646 2.64 16.439-1.878 24.73-5.326 32.602-9.195 11.103-5.462 21.331-11.81 55.295-15.32 1.401-.146 2.3-.827 2.006-1.517-.293-.69-1.671-1.13-3.072-.986-29.708 3.07-42.11 8.219-52.17 13.162-9.486 4.66-16.701 9.18-35.83 11.362-15.378 1.756-30.518.16-43.485-2.506-19.77-4.059-34.547-10.612-37.653-11.987z" clip-rule="evenodd"/><path fill="#4e0b11" fill-rule="evenodd" d="M98.205 25.618c-1.429.057-2.492.672-2.378 1.376.112.704 1.364 1.228 2.793 1.171 22.457-.888 34.054 2.247 45.736 6.077 8.201 2.69 16.453 5.704 28.144 8.024 9.294 1.843 19.58 3.647 44.671 6.13 4.986.493 10.091 1.874 13.147 3.76 2.739 1.687 3.692 3.817.875 6.016-3.604 2.81-10.494 2.647-14.954 1.253-2.46-.775-4.29-1.931-4.033-3.255.18-.919 1.358-1.86 3.67-2.793 1.108-.448 1.271-1.252.363-1.798-.908-.545-2.542-.625-3.65-.18-3.669 1.482-5.26 3.064-5.544 4.53-.467 2.387 2.584 4.604 7.21 5.887 6.618 1.837 16.189 1.724 21.326-2.278 4.205-3.28 2.877-6.456-1.206-8.98-3.767-2.322-10.026-4.058-16.179-4.67-24.577-2.435-34.653-4.19-43.759-5.997-11.312-2.243-19.27-5.176-27.206-7.779-12.52-4.106-24.958-7.45-49.028-6.494z" clip-rule="evenodd"/><path fill="#4e0b11" fill-rule="evenodd" d="M11.38 52.524c-1.13-.435-2.76-.335-3.641.22-.88.558-.678 1.363.45 1.794 25.14 9.66 43.409 12.888 58.241 12.748 14.986-.146 26.617-3.72 38.42-7.902 14.786-5.238 29.876-11.455 53.436-12.005 1.431-.03 2.536-.629 2.468-1.332-.068-.708-1.284-1.253-2.712-1.218-24.738.572-40.696 6.98-56.222 12.48-10.929 3.873-21.616 7.286-35.492 7.422-14.03.132-31.171-3.069-54.95-12.207z" clip-rule="evenodd"/><path fill="#4e0b11" fill-rule="evenodd" d="M16.044 44.135c-.906-.545-2.54-.63-3.65-.185-1.113.445-1.281 1.253-.376 1.8 25.99 15.737 54.483 16.006 68.072 11.59 5.001-1.621 8.12-3.887 8.826-6.318.707-2.445-.976-5.116-5.987-7.538-1.683-.813-5.094-1.697-9.152-2.061-6.016-.537-13.371.034-18.284 3.36-1.304.88-1.871 2.106-1.599 3.394.373 1.79 2.358 3.663 5.59 4.674 3.534 1.104 8.702 1.324 15.055-1.01 1.146-.422 1.382-1.228.529-1.79-.858-.568-2.483-.682-3.633-.26-3.023 1.11-5.548 1.464-7.595 1.228-2.633-.3-4.196-1.538-4.674-2.744-.295-.735-.223-1.483.519-1.987 3.528-2.384 8.853-2.732 13.17-2.348 2.83.255 5.268.805 6.442 1.371 3.586 1.733 4.993 3.602 4.486 5.351-.513 1.768-2.911 3.369-6.544 4.547-12.3 3.997-37.67 3.17-61.19-11.071zm81.845 6.446c-.832.572-.561 1.372.6 1.782 1.167.414 2.788.276 3.619-.295 7.379-5.092 19.943-7.207 31.265-8.909 1.369-.207 2.142-.924 1.723-1.595-.416-.677-1.869-1.056-3.237-.85-12.364 1.86-25.914 4.31-33.97 9.867m-3.983-9.361c-1.18.405-1.475 1.2-.661 1.782.811.58 2.43.724 3.608.325 9.351-3.184 9.162-3.364 20.005-4.934 1.375-.202 2.164-.911 1.759-1.589-.402-.677-1.847-1.064-3.219-.866-11.643 1.684-11.454 1.864-21.492 5.282m75.235 19.26c-.631-.634-2.186-.893-3.472-.586-1.285.313-1.815 1.082-1.184 1.711 18.226 18.284 59.693 17.251 76.947 14.656 24.249-3.653 35.493-10.293 48.73-16.78 12.66-6.203 27.278-12.224 58.293-14.982 1.41-.126 2.348-.792 2.094-1.486-.255-.695-1.605-1.157-3.014-1.03-32.471 2.885-47.776 9.19-61.031 15.685-12.681 6.214-23.353 12.646-46.586 16.143-15.85 2.388-54.038 3.46-70.777-13.333z" clip-rule="evenodd"/><path fill="#4e0b11" fill-rule="evenodd" d="M200.221 53.76c.555-.649-.062-1.401-1.381-1.674-1.318-.277-2.843.03-3.398.676-4.427 5.167-3.159 9.31 1.062 12.255 6.253 4.367 19.405 6.16 31.634 4.574 23.632-3.069 38.38-11.17 53.276-18.517 14.101-6.956 28.33-13.23 51.539-13.105 1.43.004 2.606-.557 2.62-1.265.016-.704-1.132-1.285-2.566-1.293-24.812-.133-40.189 6.42-55.264 13.856-14.279 7.044-28.273 14.908-50.927 17.849-10.04 1.306-20.943.013-26.072-3.572-3.368-2.352-4.055-5.663-.521-9.783z" clip-rule="evenodd"/><path fill="#4e0b11" fill-rule="evenodd" d="M249.778 49.803c-1.342.245-2.019.985-1.516 1.643.503.66 1.999.993 3.34.748 15.369-2.844 22.197-7.129 29.494-11.164 6.736-3.728 13.93-7.212 30.007-8.826 1.404-.14 2.31-.817 2.025-1.508-.286-.69-1.657-1.138-3.061-.997-17.581 1.768-25.479 5.553-32.848 9.63-6.806 3.768-13.097 7.818-27.441 10.474m-22.295-8.813c-1.332-.259-2.839.065-3.364.721-.523.656.134 1.398 1.467 1.658 9.915 1.92 17.29 1.996 23.393 1.023 6.043-.966 10.877-2.99 15.688-5.452 8.719-4.46 17.424-10.448 35.498-12.892 1.379-.184 2.192-.888 1.813-1.571-.378-.681-1.807-1.081-3.189-.892-19.196 2.595-28.605 8.847-37.861 13.582-4.179 2.138-8.299 3.954-13.548 4.79-5.195.83-11.456.667-19.897-.967M115.643 18.6c-1.41-.119-2.751.35-2.989 1.047-.239.695.713 1.354 2.126 1.473 20.704 1.728 38.429 6.807 56.15 10.752 18.463 4.106 36.922 6.996 58.401 4.143 14.508-1.926 21.641-5.195 28.368-9.007 9.423-5.343 17.994-11.829 47.805-16.85 1.354-.225 2.077-.955 1.615-1.62-.465-.669-1.942-1.029-3.294-.799-26.072 4.392-36.671 9.846-45.204 14.783-7.996 4.626-13.987 8.813-30.64 11.024-20.212 2.683-37.544-.14-54.919-4.006-18.11-4.031-36.262-9.177-57.421-10.94z" clip-rule="evenodd"/><path fill="#4e0b11" fill-rule="evenodd" d="M138.088 14.36c-1.404-.136-2.77.313-3.051 1.007-.28.69.631 1.363 2.038 1.5 7.028.694 16.196 2.863 26.086 5.108 10.27 2.335 21.281 4.767 31.517 5.893 14.62 1.605 27.701.598 35.601-6.394 4.305-3.81 4.071-7.023 1.591-9.498-3.687-3.684-12.671-5.782-20.426-5.769-2.921.004-7.488.532-11.014 1.552-2.69.779-4.75 1.85-5.475 3.1-.65 1.116-.369 2.409 1.677 3.851 1.62 1.14 4.489 2.423 9.132 3.804 1.226.364 2.821.17 3.562-.436.739-.603.343-1.39-.882-1.755-3.81-1.13-6.233-2.146-7.563-3.082-.906-.637-1.226-1.187-.942-1.68.395-.673 1.665-1.178 3.118-1.596 2.691-.779 6.171-1.2 8.403-1.204 5.948-.01 12.933 1.52 15.757 4.344 1.862 1.86 1.764 4.265-1.472 7.128-6.61 5.844-17.707 6.483-29.941 5.136-11.917-1.31-24.896-4.466-36.44-7.07-8.016-1.813-15.373-3.36-21.276-3.94M9.851 33.088c-1.164-.414-2.784-.282-3.62.295-.831.575-.563 1.372.601 1.786 2.589.91 14.083 4.951 29.889 4.754 10.48-.129 22.902-2.098 35.849-8.153 8.197-3.834 13.46-6.973 17.888-9.581 9.857-5.813 15.439-8.852 42.256-11.16 1.411-.124 2.356-.784 2.11-1.478-.247-.7-1.591-1.16-3.004-1.042-24.769 2.133-32.655 4.916-41.104 9.596-5.387 2.98-10.983 6.793-21.718 11.815-11.727 5.484-22.917 7.334-32.407 7.45-14.15.176-24.425-3.466-26.742-4.28z" clip-rule="evenodd"/><path fill="#4e0b11" fill-rule="evenodd" d="M13.06 25.609c-1.152-.422-2.779-.304-3.628.264-.852.568-.607 1.371.543 1.79 8.767 3.192 16.35 4.5 23.145 4.55 10.198.085 18.76-2.66 27.08-6.512 12.726-5.892 24.917-14.463 43.33-17.593 1.352-.228 2.073-.959 1.604-1.627-.468-.664-1.945-1.02-3.297-.792-19.118 3.255-31.979 12.031-45.19 18.148-7.245 3.354-14.558 5.892-23.443 5.822-5.93-.048-12.492-1.266-20.144-4.05" clip-rule="evenodd"/><path fill="#4e0b11" fill-rule="evenodd" d="M10.282 17.57c-1.325-.269-2.84.044-3.382.695-.541.655.096 1.402 1.42 1.67 11.941 2.406 20.803 2.603 27.998 1.582 7.194-1.02 12.78-3.275 18.114-5.935C64.088 10.767 72.872 4.5 91.469 3.418c1.422-.084 2.438-.716 2.272-1.42-.166-.7-1.457-1.2-2.88-1.117C70.843 2.042 61.138 8.6 50.74 13.787c-4.692 2.34-9.527 4.38-15.856 5.272-6.327.898-14.097.625-24.601-1.49" clip-rule="evenodd"/><path fill="#4e0b11" fill-rule="evenodd" d="M32.446 11.91c-.846.572-.594 1.372.56 1.786 1.154.418 2.781.295 3.627-.276 8.262-5.563 11.176-7.814 25.196-10.027 1.365-.215 2.118-.936 1.681-1.609S61.613.742 60.246.957C44.838 3.39 41.524 5.794 32.447 11.91m151.395 5.894c1.226.36 2.823.163 3.558-.44.733-.606.333-1.393-.895-1.755-13.881-4.093-14.504-3.293-30.082-5.289-1.384-.18-2.8.234-3.161.915-.361.68.471 1.38 1.855 1.557 14.862 1.908 15.483 1.109 28.725 5.014zm60.74-.906c-.837.571-.571 1.37.589 1.784 1.162.415 2.783.283 3.621-.289 9.939-6.8 13.311-8.931 35.761-12.137 1.372-.197 2.168-.905 1.769-1.582s-1.837-1.068-3.214-.87c-24.2 3.451-27.813 5.764-38.528 13.095zm-3.641-11.641c-1.216.37-1.589 1.157-.833 1.76.755.597 2.356.782 3.57.408 8.092-2.476 8-2.406 16.547-4.337 1.302-.295 1.873-1.054 1.276-1.696-.595-.643-2.138-.924-3.438-.63-8.843 2-8.751 1.926-17.122 4.494zm54.123 10.897c-1.416-.1-2.733.382-2.939 1.082-.206.695.775 1.347 2.192 1.446 14.7 1.06 24.732 4.926 34.286 8.277 10.411 3.649 20.318 6.692 34.086 5.76 7.556-.51 14.015-3.06 17.758-6.346 3.758-3.298 4.738-7.309 1.595-10.641-2.683-2.845-8.359-5.264-18.176-6.271-13.446-1.377-21.382 3.86-19.415 7.835 1.289 2.608 6.79 5.053 18.561 4.613 1.429-.057 2.498-.669 2.39-1.372s-1.354-1.23-2.783-1.177c-8.042.299-12.249-.884-13.129-2.665-1.284-2.602 4.526-5.628 13.32-4.727 7.761.793 12.405 2.59 14.527 4.84 2.459 2.609 1.523 5.735-1.414 8.311-2.953 2.596-7.972 4.667-13.937 5.071-12.316.83-21.063-2.054-30.373-5.316-10.166-3.562-20.913-7.6-36.549-8.72" clip-rule="evenodd"/><path fill="#4e0b11" fill-rule="evenodd" d="M335.449 21.304c1.176.405 2.795.259 3.61-.32.816-.576.523-1.378-.653-1.777-9.679-3.307-9.623-3.354-20.021-4.493-1.398-.154-2.787.281-3.095.966-.313.691.569 1.372 1.967 1.526 9.455 1.039 9.395 1.092 18.192 4.099zm-2.752-14.133c-1.138.426-1.36 1.227-.497 1.79.868.562 2.496.672 3.634.246 5.763-2.16 12.026-4.412 20.789-4.79 5.854-.25 12.795.34 21.412 2.282 1.3.296 2.843.014 3.438-.628.597-.643.024-1.402-1.278-1.693-9.659-2.181-17.461-2.793-24.025-2.508-9.861.423-16.992 2.872-23.477 5.3zm58.658.087c-1.336-.252-2.837.08-3.35.739-.51.659.159 1.397 1.495 1.65 20.761 3.921 39.412 11.05 56.696 14.268 12.344 2.3 24.032 2.67 35.316-1.017 8.269-2.7 11.128-7.782 7.926-11.903-2.132-2.749-6.924-5.096-14.672-5.998-10.678-1.244-19.037 3.82-16.753 8.65.946 1.996 3.692 3.97 8.99 5.36 1.262.33 2.835.096 3.51-.527.671-.625.192-1.399-1.072-1.729-3.69-.966-5.718-2.295-6.375-3.684-1.457-3.074 3.706-6.371 10.506-5.58 5.776.672 9.431 2.373 11.022 4.419 2.384 3.069.21 6.85-5.949 8.864-12.356 4.033-25.254 2.282-39.143-1.1-14.864-3.618-30.772-9.133-48.149-12.414z" clip-rule="evenodd"/><path fill="#4e0b11" fill-rule="evenodd" d="M440.464 15.178c1.192.392 2.805.233 3.597-.356.791-.588.469-1.381-.724-1.772-14.517-4.758-14.944-4.31-30.872-7.77-1.31-.285-2.843.01-3.42.656s.016 1.398 1.324 1.684c15.522 3.374 15.948 2.925 30.095 7.558M395.031 26.92c-1.307-.29-2.841 0-3.424.645-.583.643.004 1.4 1.31 1.685 8.928 1.966 12.496 4.133 12.7 6.252.141 1.483-1.394 2.837-3.416 3.887-2.079 1.082-4.714 1.857-6.906 2.05-3.171.272-5.84.084-7.966-.409-3.362-.779-5.319-2.304-5.636-3.715-.174-.765.118-1.5 1.144-1.966 1.218-.55 3.256-.642 6.107-.252 1.38.19 2.811-.206 3.196-.887.384-.677-.423-1.381-1.8-1.575-6.13-.84-10.065.044-12.125 1.447-2.983 2.031-2.078 5.615 2.917 7.928 3.316 1.53 8.379 2.52 15.059 1.943 3.081-.265 6.856-1.288 9.779-2.805 2.977-1.548 5.039-3.589 4.83-5.765-.262-2.753-4.169-5.92-15.765-8.466z" clip-rule="evenodd"/><path fill="#4e0b11" fill-rule="evenodd" d="M371.766 44.503c-1.118-.44-2.753-.347-3.645.202-.891.554-.707 1.358.413 1.799.633.245 11.216 5.536 31.221 4.863 12.905-.435 22.319-5.188 24.649-6.283 1.036-.488 1.074-1.297.089-1.806-.99-.51-2.633-.532-3.667-.045-2.036.959-10.156 5.201-21.424 5.585-17.707.595-27.069-4.09-27.63-4.313z" clip-rule="evenodd"/><path fill="#4e0b11" fill-rule="evenodd" d="M338.767 49.13c-1.427-.066-2.693.448-2.827 1.152-.137.704.913 1.328 2.338 1.395 13.882.645 21.422 3.157 28.598 5.513 7.848 2.577 15.303 4.973 28.837 5.083 10.971.084 15.81-1.785 21.854-4.507 5.398-2.436 11.889-5.611 26.086-8.473 1.325-.269 1.96-1.017 1.417-1.667-.541-.656-2.06-.967-3.384-.7-15.024 3.03-21.909 6.377-27.621 8.953-5.067 2.282-9.072 3.909-18.27 3.834-12.241-.096-18.943-2.317-26.044-4.648-7.769-2.554-15.958-5.237-30.984-5.935" clip-rule="evenodd"/><path fill="#4e0b11" fill-rule="evenodd" d="M315.567 53.585c-1.42-.093-2.726.4-2.915 1.098-.19.7.808 1.34 2.228 1.438 19.779 1.306 32.568 5.432 43.827 9.063 12.048 3.892 22.5 7.198 37.052 6.61 16.354-.665 23.96-3.896 32.599-7.982 8.038-3.803 17.05-8.38 36.224-12.066 1.334-.254 1.995-.997 1.475-1.653-.521-.656-2.026-.985-3.358-.725-20.062 3.851-29.52 8.623-37.931 12.6-7.816 3.697-14.64 6.678-29.434 7.281-13.312.541-22.762-2.643-33.78-6.2-11.804-3.813-25.246-8.091-45.981-9.464z" clip-rule="evenodd"/><path fill="#4e0b11" fill-rule="evenodd" d="M290.208 62.73c-1.424.075-2.454.704-2.298 1.408.154.704 1.435 1.21 2.859 1.135 26.777-1.442 41.606 2.789 55.995 7.099 15.221 4.56 29.987 9.19 56.393 8.117 14.073-.567 25.151-4.472 36.777-9.353 16.487-6.926 34.224-15.86 65.033-18.838 1.406-.136 2.322-.81 2.045-1.5-.276-.69-1.639-1.142-3.043-1.006-26.651 2.571-43.943 9.384-58.862 15.75-14.161 6.048-25.988 11.737-42.374 12.402-24.968 1.01-38.881-3.448-53.274-7.756-15.219-4.556-30.933-8.976-59.255-7.454z" clip-rule="evenodd"/><path fill="#4e0b11" fill-rule="evenodd" d="M472.252 62.26c-1.362.212-2.122.932-1.689 1.606.435.673 1.891 1.047 3.258.83 9.306-1.455 19.398-.448 29.426 1.223 10.586 1.762 21.099 4.292 30.614 5.795 13.97 2.212 25.893 2.234 33.571-4.181 4.127-3.448 3.788-7.062.426-9.753-3.353-2.677-9.771-4.494-18.099-4.266-4.588.129-8.614 1.426-10.848 3.022-1.652 1.183-2.322 2.523-1.815 3.707.786 1.843 4.544 3.653 13.686 3.504 1.431-.026 2.553-.62 2.505-1.324-.05-.703-1.25-1.257-2.681-1.23-3.021.048-5.223-.133-6.718-.515-.965-.246-1.548-.571-1.715-.962-.238-.559.231-1.17 1.01-1.729 1.415-1.01 3.957-1.837 6.864-1.918 6.131-.167 10.929 1.082 13.396 3.052 2.452 1.966 2.534 4.596-.477 7.116-6.251 5.224-16.139 4.85-27.515 3.047-9.492-1.504-19.977-4.024-30.541-5.787-11.122-1.85-22.336-2.85-32.656-1.234zm47.308-12.066c-1.415-.11-2.745.364-2.968 1.06-.222.7.746 1.355 2.16 1.465 8.691.673 14.79-.29 20.544-1.707 5.194-1.275 10.066-2.96 16.682-3.931 9.414-1.38 13.774-1.2 18.933-.475 3.749.527 7.884 1.302 14.293 1.973 1.401.15 2.781-.295 3.08-.98.298-.69-.597-1.371-1.996-1.516-16.411-1.725-18.278-4.025-35.791-1.453-5.612.827-10.062 2.116-14.429 3.293-5.865 1.583-11.575 2.96-20.504 2.27zm8.042-9.881c-1.206.378-1.558 1.17-.787 1.763.773.594 2.38.768 3.584.386 10.773-3.398 11.661-3.336 23.353-3.279 1.431.01 2.605-.559 2.619-1.266.014-.704-1.138-1.285-2.568-1.288-13.12-.067-14.111-.133-26.205 3.684z" clip-rule="evenodd"/><path fill="#4e0b11" fill-rule="evenodd" d="M456.606 71.973c-1.316.276-1.929 1.03-1.364 1.676.561.65 2.085.955 3.404.677 15.787-3.32 33.603-.8 51.372 1.892 18.889 2.857 37.735 5.922 54.254 3.584 14.846-2.103 23.387-6.253 32.884-11.09 13.526-6.89 29.175-15.175 70.488-20.263 1.382-.17 2.232-.866 1.883-1.551-.346-.686-1.757-1.099-3.139-.928-42.76 5.268-58.962 13.834-72.963 20.966-8.856 4.51-16.735 8.452-30.584 10.413-15.633 2.211-33.423-.867-51.294-3.576-18.992-2.875-38.063-5.347-54.935-1.798z" clip-rule="evenodd"/><path fill="#4e0b11" fill-rule="evenodd" d="M579.813 59.446c-.862.562-.638 1.368.506 1.79 1.142.426 2.771.316 3.635-.247 9.853-6.428 15.317-7.628 26.202-9.326 1.366-.211 2.124-.932 1.693-1.605-.433-.673-1.889-1.042-3.256-.83-11.949 1.86-17.961 3.165-28.776 10.218zm-56.914 2.308c1.3.296 2.843.014 3.438-.628.597-.642.024-1.402-1.278-1.697-10.401-2.344-10.469-2.168-22.149-3.078-1.415-.11-2.743.364-2.968 1.06-.224.7.744 1.353 2.158 1.465 10.964.857 11.038.677 20.801 2.88zm99.826-.73c-1.433.017-2.565.607-2.527 1.31.038.708 1.228 1.262 2.659 1.244 23.842-.299 37.227 3.862 49.828 7.691 13.447 4.09 26.056 7.81 48.08 6.214 13.128-.95 21.917-4.204 31.197-7.325 12.965-4.355 27.058-8.325 57.726-4.029 1.383.195 2.821-.201 3.212-.88.393-.68-.409-1.384-1.793-1.578-32.982-4.622-48.125-.307-62.074 4.375-8.655 2.911-16.773 6.02-29.019 6.908-20.452 1.483-32.122-2.062-44.596-5.861-13.324-4.045-27.495-8.385-52.691-8.07z" clip-rule="evenodd"/><path fill="#4e0b11" fill-rule="evenodd" d="M644.585 56.026c-1.429.034-2.535.636-2.465 1.34s1.285 1.249 2.721 1.214c18.569-.449 28.28 2.67 37.64 5.479 10.208 3.057 20.024 5.779 38.675 4.037 9.262-.86 16.785-3.337 25.002-5.87 11.476-3.54 24.441-7.164 46.704-5.752 1.419.093 2.721-.405 2.899-1.103.186-.7-.821-1.34-2.238-1.43-23.882-1.516-37.81 2.323-50.124 6.117-7.648 2.357-14.592 4.723-23.219 5.528-16.892 1.578-25.761-.942-35.008-3.712-10.084-3.024-20.578-6.332-40.593-5.847z" clip-rule="evenodd"/><path fill="#4e0b11" fill-rule="evenodd" d="M719.096 52.775c1.302.3 2.845.018 3.444-.625.599-.642.026-1.398-1.276-1.697-5.178-1.174-9.175-1.588-12.136-1.538-3.74.06-6.123.817-7.515 1.85-1.573 1.17-1.849 2.797-.884 4.425 1.321 2.229 4.935 4.428 9.621 5.193 9.816 1.605 17.088-.625 20.577-4.146 4.988-5.048 1.865-12.924-13.626-15.558-19.14-3.25-32.267.95-37.873 2.22-1.292.296-1.863 1.055-1.268 1.698.599.636 2.141.919 3.438.625 5.03-1.143 16.801-5.044 34.006-2.124 11.995 2.037 14.517 8.114 10.656 12.018-2.41 2.44-7.477 3.953-14.277 2.84-3.105-.506-5.397-2.004-6.273-3.482-.499-.84-.587-1.688.223-2.296.607-.448 1.739-.681 3.363-.708 2.401-.04 5.604.357 9.8 1.306m22.835-11.06c-1.194-.39-2.803-.224-3.589.365-.793.589-.462 1.38.732 1.769 9.12 2.958 15.367 5.575 31.277 5.553 1.428 0 2.588-.575 2.588-1.28-.008-.707-1.18-1.279-2.608-1.274-14.474.017-20.106-2.442-28.402-5.133z" clip-rule="evenodd"/><path fill="#4e0b11" fill-rule="evenodd" d="M672.031 36.51c-1.248.347-1.676 1.13-.971 1.742.711.61 2.292.826 3.542.478 12.59-3.543 28.27-9.177 60.927-3.384 11.735 2.084 19.08 4.493 26.128 6.349 11.154 2.929 21.597 4.6 45.901 1.793 1.393-.162 2.258-.849 1.928-1.534-.323-.69-1.721-1.116-3.114-.954-22.379 2.581-32 1.139-42.27-1.562-7.237-1.904-14.778-4.36-26.824-6.5-34.961-6.203-51.767-.223-65.249 3.571zm40.274-13.627c-1.383.18-2.202.884-1.838 1.565.375.68 1.796 1.085 3.178.901 14.902-1.962 24.165-.234 33.675 2.409 6.774 1.881 13.673 4.195 22.542 6.086 23.041 4.908 36.088 2.493 40.602 1.718 1.354-.234 2.071-.962 1.597-1.627-.463-.667-1.946-1.02-3.302-.785-4.093.7-15.928 2.805-36.845-1.654-8.673-1.847-15.419-4.125-22.049-5.967-10.601-2.942-20.941-4.837-37.556-2.646zm25.458-6.861c-1.436-.004-2.604.563-2.624 1.266-.008.708 1.142 1.285 2.58 1.289 14.528.066 23.149 3.307 32.187 5.976 9.905 2.925 20.238 5.268 37.845 3.075 1.382-.172 2.23-.87 1.873-1.552-.347-.687-1.759-1.1-3.15-.929-15.777 1.97-25.022-.163-33.899-2.788-9.753-2.88-19.132-6.266-34.81-6.337zm27.155-3.112c-1.268-.326-2.837-.084-3.506.54-.661.625-.173 1.398 1.096 1.724 18.518 4.776 24.968 6.592 45.582 3.919 1.394-.18 2.214-.88 1.857-1.562-.366-.686-1.787-1.09-3.175-.914-18.946 2.458-24.836.68-41.852-3.707z" clip-rule="evenodd"/><path fill="#4e0b11" fill-rule="evenodd" d="M748.409 11.326c1.428-.066 2.47-.69 2.338-1.395-.133-.704-1.401-1.218-2.829-1.152-33.722 1.575-44.056 5.541-56.095 11.83-7.71 4.033-16.117 9.075-32.365 15.126-17.856 6.657-40.087 6.121-49.411 4.441-10.112-1.816-15.726-4.111-21.49-6.318-9.2-3.528-18.711-6.896-45.15-8.123-1.424-.066-2.691.448-2.825 1.152-.136.704.912 1.328 2.338 1.395 24.84 1.152 33.804 4.278 42.449 7.594 6.133 2.348 12.136 4.766 22.897 6.702 10.248 1.843 34.699 2.51 54.321-4.803 16.561-6.173 25.147-11.305 33.008-15.412 11.314-5.915 21.114-9.56 52.81-11.037z" clip-rule="evenodd"/><path fill="#4e0b11" fill-rule="evenodd" d="M602.89 11.163c1.425.07 2.699-.44 2.843-1.144.142-.699-.895-1.326-2.318-1.398-46.52-2.326-64.369 6.746-80.482 16.01-15.178 8.73-28.644 17.705-65.92 16.215-2.46-.096-8.24-.664-11.43-1.147-9.843-1.491-9.278-1.997-23.872-6.174-1.238-.356-2.827-.146-3.544.462-.722.611-.299 1.394.937 1.75 15.229 4.362 14.68 4.85 24.952 6.408 3.496.532 9.842 1.143 12.538 1.252 39.658 1.583 54.132-7.813 70.28-17.1 15.217-8.752 32.073-17.327 76.018-15.132z" clip-rule="evenodd"/><path fill="#4e0b11" fill-rule="evenodd" d="M394.403 18.028c-1.268-.33-2.839-.088-3.504.537-.668.62-.181 1.399 1.086 1.725 12.828 3.328 33.555 9.853 55.291 12.898 14.976 2.091 30.42 2.533 44.242-.647 10.018-2.304 15.263-5.378 20.284-8.782 6.964-4.728 13.49-10.136 33.996-14.74 1.304-.289 1.879-1.05 1.286-1.692-.595-.643-2.134-.928-3.438-.633-18.158 4.075-26.024 8.732-32.425 13.081-5.945 4.038-10.463 7.82-21.899 10.45-12.69 2.918-26.877 2.427-40.627.5-21.356-2.986-41.688-9.428-54.292-12.695z" clip-rule="evenodd"/><path fill="#4e0b11" fill-rule="evenodd" d="M500.078 13.019c-.914.54-.763 1.35.339 1.798 1.102.45 2.739.375 3.652-.166 10.737-6.377 11.12-6.314 24.988-8.957 1.337-.255 2.002-.998 1.487-1.653-.519-.66-2.02-.986-3.356-.735-15.043 2.867-15.465 2.797-27.11 9.714zm56.924 6.983c-1.429-.057-2.677.47-2.789 1.174-.11.704.958 1.32 2.382 1.371 15.986.616 26.044 3.563 35.196 6.358 9.845 3.013 18.741 5.84 31.993 5.963 16.338.16 22.585-2.058 31.794-6.262 8.593-3.926 19.963-9.704 46.303-16.946 1.248-.344 1.705-1.126 1.008-1.741-.705-.616-2.284-.836-3.534-.494-26.914 7.396-38.522 13.294-47.304 17.304-8.164 3.734-13.678 5.725-28.169 5.585-12.19-.116-20.3-2.81-29.358-5.581-9.749-2.98-20.492-6.078-37.524-6.732z" clip-rule="evenodd"/><path fill="#4e0b11" fill-rule="evenodd" d="M574.165 15.098c-1.431-.013-2.615.545-2.643 1.253-.026.704 1.114 1.29 2.544 1.302 16.343.15 28.058 3.769 38.57 6.116 11.709 2.617 22.041 3.8 34.77-1.481 15.517-6.439 2.382-19.032-18.437-17.69-10.16.655-15.718 5.227-13.335 8.944 1.538 2.4 6.409 4.63 16.11 5.065 1.425.066 2.689-.453 2.819-1.156.13-.704-.922-1.324-2.35-1.39-6.81-.302-10.555-1.604-11.635-3.288-1.544-2.41 2.481-5.216 9.062-5.638 15.694-1.016 26.116 8.347 14.418 13.197-10.709 4.446-19.424 3.31-29.278 1.109-11.055-2.467-23.431-6.184-40.615-6.34zm89.587-3.648c-1 .506-.982 1.315.042 1.807 1.028.488 2.67.479 3.666-.027 7.015-3.548 11.342-6.49 30.456-9.279 1.374-.197 2.16-.91 1.759-1.587-.409-.677-1.857-1.065-3.222-.862-20.524 2.99-25.182 6.134-32.705 9.947zm146.249 52.196c-1.066-.476-6.04-.524-7 0-.958.527 5.938 2.03 7 2.5 3.5.5 11.444 3.052 31.984 7.27 13.907 2.853 30.157 4.517 46.646 2.639 16.439-1.878 24.73-5.326 32.602-9.195 11.104-5.462 21.331-11.81 55.295-15.32 1.401-.146 2.3-.827 2.006-1.517-.293-.69-1.671-1.13-3.072-.986-29.708 3.07-42.11 8.219-52.169 13.162-9.487 4.66-16.702 9.18-35.832 11.362-15.377 1.756-30.517.16-43.484-2.506-19.769-4.059-28.476-6.91-32.476-7.41z" clip-rule="evenodd"/><path fill="#4e0b11" fill-rule="evenodd" d="M900.205 25.618c-1.429.057-2.492.672-2.378 1.376.112.704 1.364 1.228 2.793 1.171 22.457-.888 34.054 2.247 45.736 6.077 8.201 2.69 16.453 5.704 28.144 8.024 9.294 1.843 19.58 3.647 44.67 6.13 4.99.493 10.09 1.874 13.15 3.76 2.74 1.687 3.69 3.817.87 6.016-3.6 2.81-10.49 2.647-14.95 1.253-2.46-.775-4.29-1.931-4.03-3.255.18-.919 1.35-1.86 3.67-2.793 1.1-.448 1.27-1.252.36-1.798-.91-.545-2.54-.625-3.65-.18-3.67 1.482-5.26 3.064-5.55 4.53-.46 2.387 2.59 4.604 7.22 5.887 6.61 1.837 16.18 1.724 21.32-2.278 4.21-3.28 2.88-6.456-1.21-8.98-3.76-2.322-10.02-4.058-16.17-4.67-24.581-2.435-34.657-4.19-43.763-5.997-11.312-2.243-19.27-5.176-27.206-7.779-12.52-4.106-24.958-7.45-49.028-6.494z" clip-rule="evenodd"/><path fill="#4e0b11" fill-rule="evenodd" d="M813.381 52.524c-1.13-.435-2.759-.335-3.64.22-.88.558-.678 1.363.45 1.794 25.141 9.66 43.409 12.888 58.241 12.748 14.986-.146 26.617-3.72 38.42-7.902 14.786-5.238 29.876-11.455 53.436-12.005 1.43-.03 2.536-.629 2.468-1.332-.068-.708-1.284-1.253-2.712-1.218-24.738.572-40.696 6.98-56.222 12.48-10.929 3.873-21.616 7.286-35.492 7.422-14.031.132-31.171-3.069-54.951-12.207z" clip-rule="evenodd"/><path fill="#4e0b11" fill-rule="evenodd" d="M818.046 44.135c-.906-.545-2.541-.63-3.651-.185-1.112.445-1.28 1.253-.375 1.8 25.99 15.737 54.482 16.006 68.072 11.59 5.001-1.621 8.121-3.887 8.826-6.318.707-2.445-.976-5.116-5.987-7.538-1.683-.813-5.095-1.697-9.152-2.061-6.016-.537-13.371.034-18.284 3.36-1.304.88-1.871 2.106-1.599 3.394.373 1.79 2.358 3.663 5.59 4.674 3.534 1.104 8.701 1.324 15.055-1.01 1.146-.422 1.382-1.228.529-1.79-.858-.568-2.483-.682-3.633-.26-3.023 1.11-5.548 1.464-7.595 1.228-2.633-.3-4.196-1.538-4.674-2.744-.295-.735-.223-1.483.518-1.987 3.529-2.384 8.854-2.732 13.172-2.348 2.829.255 5.267.805 6.441 1.371 3.586 1.733 4.993 3.602 4.486 5.351-.513 1.768-2.911 3.369-6.544 4.547-12.299 3.997-37.67 3.17-61.189-11.071zm81.843 6.446c-.832.572-.561 1.372.601 1.782 1.166.414 2.787.276 3.618-.295 7.379-5.092 19.943-7.207 31.265-8.909 1.369-.207 2.142-.924 1.723-1.595-.416-.677-1.869-1.056-3.237-.85-12.364 1.86-25.914 4.31-33.97 9.867m-3.983-9.361c-1.18.405-1.475 1.2-.661 1.782.811.58 2.43.724 3.608.325 9.351-3.184 9.162-3.364 20.005-4.934 1.375-.202 2.164-.911 1.759-1.589-.402-.677-1.847-1.064-3.219-.866-11.643 1.684-11.454 1.864-21.492 5.282m75.237 19.26c-.631-.634-2.186-.893-3.472-.586-1.285.313-1.816 1.082-1.184 1.711 18.226 18.284 59.693 17.251 76.943 14.656 24.25-3.653 35.5-10.293 48.73-16.78 12.66-6.203 27.28-12.224 58.3-14.982 1.41-.126 2.34-.792 2.09-1.486-.25-.695-1.6-1.157-3.01-1.03-32.47 2.885-47.78 9.19-61.03 15.685-12.68 6.214-23.36 12.646-46.59 16.143-15.85 2.388-54.038 3.46-70.777-13.333z" clip-rule="evenodd"/><path fill="#4e0b11" fill-rule="evenodd" d="M1002.22 53.76c.56-.649-.06-1.401-1.38-1.674-1.318-.277-2.843.03-3.398.676-4.427 5.167-3.159 9.31 1.062 12.255 6.256 4.367 19.406 6.16 31.636 4.574 23.63-3.069 38.38-11.17 53.27-18.517 14.1-6.956 28.33-13.23 51.54-13.105 1.43.004 2.61-.557 2.62-1.265.02-.704-1.13-1.285-2.56-1.293-24.81-.133-40.19 6.42-55.27 13.856-14.28 7.044-28.27 14.908-50.92 17.849-10.04 1.306-20.95.013-26.08-3.572-3.364-2.352-4.051-5.663-.52-9.783" clip-rule="evenodd"/><path fill="#4e0b11" fill-rule="evenodd" d="M1051.78 49.803c-1.34.245-2.02.985-1.52 1.643.5.66 2 .993 3.34.748 15.37-2.844 22.2-7.129 29.5-11.164 6.73-3.728 13.93-7.212 30-8.826 1.41-.14 2.31-.817 2.03-1.508-.29-.69-1.66-1.138-3.06-.997-17.58 1.768-25.48 5.553-32.85 9.63-6.81 3.768-13.1 7.818-27.44 10.474m-22.3-8.813c-1.33-.259-2.84.065-3.36.721s.13 1.398 1.47 1.658c9.91 1.92 17.29 1.996 23.39 1.023 6.04-.966 10.88-2.99 15.69-5.452 8.72-4.46 17.42-10.448 35.5-12.892 1.37-.184 2.19-.888 1.81-1.571-.38-.681-1.81-1.081-3.19-.892-19.2 2.595-28.61 8.847-37.86 13.582-4.18 2.138-8.3 3.954-13.55 4.79-5.19.83-11.46.667-19.9-.967M917.645 18.6c-1.41-.119-2.751.35-2.989 1.047-.239.695.713 1.354 2.125 1.473 20.705 1.728 38.43 6.807 56.151 10.752 18.463 4.106 36.918 6.996 58.398 4.143 14.51-1.926 21.64-5.195 28.37-9.007 9.42-5.343 18-11.829 47.81-16.85 1.35-.225 2.07-.955 1.61-1.62-.46-.669-1.94-1.029-3.29-.799-26.08 4.392-36.67 9.846-45.21 14.783-7.99 4.626-13.98 8.813-30.64 11.024-20.21 2.683-37.541-.14-54.916-4.006-18.11-4.031-36.262-9.177-57.421-10.94z" clip-rule="evenodd"/><path fill="#4e0b11" fill-rule="evenodd" d="M940.09 14.36c-1.404-.136-2.771.313-3.051 1.007-.281.69.631 1.363 2.038 1.5 7.028.694 16.196 2.863 26.086 5.108 10.27 2.335 21.281 4.767 31.517 5.893 14.62 1.605 27.7.598 35.6-6.394 4.31-3.81 4.07-7.023 1.59-9.498-3.68-3.684-12.67-5.782-20.42-5.769-2.93.004-7.49.532-11.02 1.552-2.689.779-4.748 1.85-5.473 3.1-.65 1.116-.369 2.409 1.677 3.851 1.616 1.14 4.486 2.423 9.136 3.804 1.22.364 2.82.17 3.56-.436.74-.603.34-1.39-.88-1.755-3.81-1.13-6.24-2.146-7.57-3.082-.9-.637-1.22-1.187-.94-1.68.4-.673 1.67-1.178 3.12-1.596 2.69-.779 6.17-1.2 8.4-1.204 5.95-.01 12.93 1.52 15.76 4.344 1.86 1.86 1.76 4.265-1.47 7.128-6.61 5.844-17.71 6.483-29.944 5.136-11.917-1.31-24.896-4.466-36.44-7.07-8.016-1.813-15.373-3.36-21.276-3.94M811.851 33.088c-1.164-.414-2.784-.282-3.62.295-.831.575-.563 1.372.601 1.786 2.589.91 14.083 4.951 29.889 4.754 10.48-.129 22.902-2.098 35.849-8.153 8.196-3.834 13.46-6.973 17.888-9.581 9.857-5.813 15.439-8.852 42.256-11.16 1.411-.124 2.356-.784 2.11-1.478-.247-.7-1.591-1.16-3.004-1.042-24.769 2.133-32.655 4.916-41.104 9.596-5.387 2.98-10.983 6.793-21.718 11.815-11.727 5.484-22.917 7.334-32.407 7.45-14.149.176-24.425-3.466-26.742-4.28z" clip-rule="evenodd"/><path fill="#4e0b11" fill-rule="evenodd" d="M815.062 25.609c-1.152-.422-2.779-.304-3.628.264-.852.568-.607 1.371.543 1.79 8.767 3.192 16.351 4.5 23.144 4.55 10.198.085 18.762-2.66 27.08-6.512 12.727-5.892 24.918-14.463 43.331-17.593 1.352-.228 2.073-.959 1.604-1.627-.468-.664-1.945-1.02-3.297-.792-19.118 3.255-31.979 12.031-45.19 18.148-7.245 3.354-14.558 5.892-23.443 5.822-5.931-.048-12.492-1.266-20.144-4.05" clip-rule="evenodd"/><path fill="#4e0b11" fill-rule="evenodd" d="M809.541 16.698c-1.324-.269-2.839.044-3.381.695-.541.655.096 1.401 1.42 1.67 11.941 2.406 20.803 2.603 27.997 1.582 7.195-1.02 12.781-3.275 18.114-5.935 9.657-4.816 18.441-11.082 37.038-12.164 1.422-.084 2.438-.716 2.272-1.42-.167-.7-1.457-1.2-2.88-1.117-20.019 1.161-29.724 7.718-40.122 12.906-4.692 2.34-9.527 4.38-15.856 5.272-6.327.898-14.097.626-24.602-1.49" clip-rule="evenodd"/><path fill="#4e0b11" fill-rule="evenodd" d="M834.445 11.91c-.845.572-.593 1.372.561 1.786 1.154.418 2.781.295 3.627-.276 8.262-5.563 11.176-7.814 25.196-10.027 1.365-.215 2.118-.936 1.681-1.609s-1.897-1.042-3.264-.827c-15.409 2.432-18.723 4.837-27.801 10.953m151.397 5.894c1.226.36 2.823.163 3.558-.44.733-.606.333-1.393-.895-1.755-13.881-4.093-14.504-3.293-30.082-5.289-1.384-.18-2.8.234-3.161.915-.361.68.471 1.38 1.855 1.557 14.862 1.908 15.483 1.109 28.725 5.014zm60.738-.906c-.83.571-.57 1.37.59 1.784 1.17.415 2.79.283 3.62-.289 9.94-6.8 13.32-8.931 35.76-12.137 1.38-.197 2.17-.905 1.77-1.582-.39-.677-1.83-1.068-3.21-.87-24.2 3.451-27.81 5.764-38.53 13.095zm-3.64-11.641c-1.22.37-1.59 1.157-.83 1.76.75.597 2.35.782 3.57.408 8.09-2.476 8-2.406 16.55-4.337 1.3-.295 1.87-1.054 1.27-1.696-.59-.643-2.14-.924-3.44-.63-8.84 2-8.75 1.926-17.12 4.494zm54.12 10.897c-1.41-.1-2.73.382-2.93 1.082-.21.695.77 1.347 2.19 1.446 14.7 1.06 24.73 4.926 34.28 8.277 10.41 3.649 20.32 6.692 34.09 5.76 7.55-.51 14.01-3.06 17.76-6.346 3.76-3.298 4.74-7.309 1.59-10.641-2.68-2.845-8.36-5.264-18.17-6.271-13.45-1.377-21.39 3.86-19.42 7.835 1.29 2.608 6.79 5.053 18.56 4.613 1.43-.057 2.5-.669 2.39-1.372s-1.35-1.23-2.78-1.177c-8.04.299-12.25-.884-13.13-2.665-1.28-2.602 4.53-5.628 13.32-4.727 7.76.793 12.41 2.59 14.53 4.84 2.46 2.609 1.52 5.735-1.42 8.311-2.95 2.596-7.97 4.667-13.93 5.071-12.32.83-21.07-2.054-30.38-5.316-10.16-3.562-20.91-7.6-36.55-8.72" clip-rule="evenodd"/><path fill="#4e0b11" fill-rule="evenodd" d="M1137.45 21.304c1.18.405 2.79.259 3.61-.32.81-.576.52-1.378-.65-1.777-9.68-3.307-9.63-3.354-20.03-4.493-1.39-.154-2.78.281-3.09.966-.31.691.57 1.372 1.97 1.526 9.45 1.039 9.39 1.092 18.19 4.099zm-2.75-14.133c-1.14.426-1.36 1.227-.5 1.79.87.562 2.5.672 3.63.246 5.77-2.16 12.03-4.412 20.79-4.79 5.86-.25 12.8.34 21.41 2.282 1.31.296 2.85.014 3.44-.628.6-.643.03-1.402-1.28-1.693-9.65-2.181-17.46-2.793-24.02-2.508-9.86.423-16.99 2.872-23.48 5.3zm58.66.087c-1.34-.252-2.84.08-3.35.739s.16 1.397 1.49 1.65c20.76 3.921 39.41 11.05 56.7 14.268 12.34 2.3 24.03 2.67 35.31-1.017 8.27-2.7 11.13-7.782 7.93-11.903-2.13-2.749-6.92-5.096-14.67-5.998-10.68-1.244-19.04 3.82-16.76 8.65.95 1.996 3.7 3.97 8.99 5.36 1.27.33 2.84.096 3.51-.527.68-.625.2-1.399-1.07-1.729-3.69-.966-5.72-2.295-6.37-3.684-1.46-3.074 3.7-6.371 10.5-5.58 5.78.672 9.43 2.373 11.03 4.419 2.38 3.069.21 6.85-5.95 8.864-12.36 4.033-25.26 2.282-39.15-1.1-14.86-3.618-30.77-9.133-48.14-12.414z" clip-rule="evenodd"/><path fill="#4e0b11" fill-rule="evenodd" d="M1242.46 15.178c1.2.392 2.81.233 3.6-.356.79-.588.47-1.381-.72-1.772-14.52-4.758-14.95-4.31-30.87-7.77-1.32-.285-2.85.01-3.43.656-.57.646.02 1.398 1.33 1.684 15.52 3.374 15.95 2.925 30.09 7.558m-45.43 11.742c-1.31-.29-2.84 0-3.42.645-.59.643 0 1.4 1.31 1.685 8.92 1.966 12.49 4.133 12.7 6.252.14 1.483-1.4 2.837-3.42 3.887-2.08 1.082-4.71 1.857-6.9 2.05-3.18.272-5.85.084-7.97-.409-3.36-.779-5.32-2.304-5.64-3.715-.17-.765.12-1.5 1.15-1.966 1.22-.55 3.25-.642 6.1-.252 1.38.19 2.81-.206 3.2-.887.38-.677-.42-1.381-1.8-1.575-6.13-.84-10.07.044-12.12 1.447-2.99 2.031-2.08 5.615 2.91 7.928 3.32 1.53 8.38 2.52 15.06 1.943 3.08-.265 6.86-1.288 9.78-2.805 2.98-1.548 5.04-3.589 4.83-5.765-.26-2.753-4.17-5.92-15.77-8.466z" clip-rule="evenodd"/><path fill="#4e0b11" fill-rule="evenodd" d="M1173.77 44.503c-1.12-.44-2.76-.347-3.65.202-.89.554-.71 1.358.41 1.799.64.245 11.22 5.536 31.22 4.863 12.91-.435 22.32-5.188 24.65-6.283 1.04-.488 1.08-1.297.09-1.806s-2.63-.532-3.66-.045c-2.04.959-10.16 5.201-21.43 5.585-17.7.595-27.07-4.09-27.63-4.313z" clip-rule="evenodd"/><path fill="#4e0b11" fill-rule="evenodd" d="M1140.77 49.13c-1.43-.066-2.69.448-2.83 1.152-.13.704.92 1.328 2.34 1.395 13.88.645 21.42 3.157 28.6 5.513 7.85 2.577 15.3 4.973 28.83 5.083 10.98.084 15.81-1.785 21.86-4.507 5.4-2.436 11.89-5.611 26.09-8.473 1.32-.269 1.95-1.017 1.41-1.667-.54-.656-2.06-.967-3.38-.7-15.03 3.03-21.91 6.377-27.62 8.953-5.07 2.282-9.07 3.909-18.27 3.834-12.24-.096-18.95-2.317-26.05-4.648-7.77-2.554-15.95-5.237-30.98-5.935" clip-rule="evenodd"/><path fill="#4e0b11" fill-rule="evenodd" d="M1117.57 53.585c-1.42-.093-2.73.4-2.92 1.098-.19.7.81 1.34 2.23 1.438 19.78 1.306 32.57 5.432 43.83 9.063 12.05 3.892 22.5 7.198 37.05 6.61 16.36-.665 23.96-3.896 32.6-7.982 8.04-3.803 17.05-8.38 36.22-12.066 1.34-.254 2-.997 1.48-1.653s-2.03-.985-3.36-.725c-20.06 3.851-29.52 8.623-37.93 12.6-7.82 3.697-14.64 6.678-29.43 7.281-13.32.541-22.77-2.643-33.78-6.2-11.81-3.813-25.25-8.091-45.98-9.464z" clip-rule="evenodd"/><path fill="#4e0b11" fill-rule="evenodd" d="M1092.21 62.73c-1.42.075-2.45.704-2.3 1.408.16.704 1.44 1.21 2.86 1.135 26.78-1.442 41.61 2.789 56 7.099 15.22 4.56 29.98 9.19 56.39 8.117 14.07-.567 25.15-4.472 36.78-9.353 16.48-6.926 34.22-15.86 65.03-18.838 1.41-.136 2.32-.81 2.04-1.5-.27-.69-1.63-1.142-3.04-1.006-26.65 2.571-43.94 9.384-58.86 15.75-14.16 6.048-25.99 11.737-42.38 12.402-24.96 1.01-38.88-3.448-53.27-7.756-15.22-4.556-30.93-8.976-59.25-7.454z" clip-rule="evenodd"/><path fill="#4e0b11" fill-rule="evenodd" d="M1274.25 62.26c-1.36.212-2.12.932-1.69 1.606.44.673 1.9 1.047 3.26.83 9.31-1.455 19.4-.448 29.43 1.223 10.59 1.762 21.1 4.292 30.61 5.795 13.97 2.212 25.9 2.234 33.57-4.181 4.13-3.448 3.79-7.062.43-9.753-3.35-2.677-9.77-4.494-18.1-4.266-4.59.129-8.61 1.426-10.85 3.022-1.65 1.183-2.32 2.523-1.81 3.707.78 1.843 4.54 3.653 13.68 3.504 1.43-.026 2.56-.62 2.51-1.324-.05-.703-1.25-1.257-2.68-1.23-3.02.048-5.23-.133-6.72-.515-.97-.246-1.55-.571-1.71-.962-.24-.559.23-1.17 1-1.729 1.42-1.01 3.96-1.837 6.87-1.918 6.13-.167 10.93 1.082 13.39 3.052 2.46 1.966 2.54 4.596-.47 7.116-6.25 5.224-16.14 4.85-27.52 3.047-9.49-1.504-19.97-4.024-30.54-5.787-11.12-1.85-22.33-2.85-32.65-1.234zm47.31-12.066c-1.41-.11-2.75.364-2.97 1.06-.22.7.75 1.355 2.16 1.465 8.69.673 14.79-.29 20.55-1.707 5.19-1.275 10.06-2.96 16.68-3.931 9.41-1.38 13.77-1.2 18.93-.475 3.75.527 7.89 1.302 14.29 1.973 1.4.15 2.79-.295 3.08-.98.3-.69-.59-1.371-1.99-1.516-16.41-1.725-18.28-4.025-35.79-1.453-5.61.827-10.06 2.116-14.43 3.293-5.87 1.583-11.58 2.96-20.51 2.27m8.04-9.88c-1.2.378-1.56 1.17-.79 1.763.78.594 2.39.768 3.59.386 10.77-3.398 11.66-3.336 23.35-3.279 1.43.01 2.61-.559 2.62-1.266.02-.704-1.14-1.285-2.57-1.288-13.12-.067-14.11-.133-26.2 3.684" clip-rule="evenodd"/><path fill="#4e0b11" fill-rule="evenodd" d="M1258.61 71.973c-1.32.276-1.93 1.03-1.37 1.676.56.65 2.09.955 3.41.677 15.79-3.32 33.6-.8 51.37 1.892 18.89 2.857 37.73 5.922 54.25 3.584 14.85-2.103 23.39-6.253 32.89-11.09 13.52-6.89 29.17-15.175 70.49-20.263 1.38-.17 2.23-.866 1.88-1.551-.35-.686-1.76-1.099-3.14-.928-42.76 5.268-58.96 13.834-72.96 20.966-8.86 4.51-16.74 8.452-30.59 10.413-15.63 2.211-33.42-.867-51.29-3.576-18.99-2.875-38.06-5.347-54.94-1.798z" clip-rule="evenodd"/><path fill="#4e0b11" fill-rule="evenodd" d="M1381.81 59.446c-.86.562-.63 1.368.51 1.79 1.14.426 2.77.316 3.64-.247 9.85-6.428 15.31-7.628 26.2-9.326 1.36-.211 2.12-.932 1.69-1.605s-1.89-1.042-3.25-.83c-11.95 1.86-17.97 3.165-28.78 10.218zm-56.91 2.308c1.3.296 2.84.014 3.44-.628s.02-1.402-1.28-1.697c-10.4-2.344-10.47-2.168-22.15-3.078-1.41-.11-2.74.364-2.97 1.06-.22.7.75 1.353 2.16 1.465 10.97.857 11.04.677 20.8 2.88zm99.83-.73c-1.44.017-2.57.607-2.53 1.31.04.708 1.23 1.262 2.66 1.244 23.84-.299 37.23 3.862 49.83 7.691 13.44 4.09 26.05 7.81 48.08 6.214 13.12-.95 21.91-4.204 31.19-7.325 12.97-4.355 27.06-8.325 57.73-4.029 1.38.195 2.82-.201 3.21-.88.39-.68-.41-1.384-1.79-1.578-32.98-4.622-48.13-.307-62.07 4.375-8.66 2.911-16.78 6.02-29.02 6.908-20.46 1.483-32.13-2.062-44.6-5.861-13.32-4.045-27.49-8.385-52.69-8.07m125.68-49.697c1.43-.066 2.47-.69 2.34-1.395-.13-.704-1.4-1.218-2.83-1.152-33.72 1.575-44.06 5.541-56.1 11.83-7.7 4.033-16.11 9.075-32.36 15.126-17.86 6.657-40.09 6.121-49.41 4.441-10.11-1.816-15.73-4.111-21.49-6.318-9.2-3.528-18.71-6.896-45.15-8.123-1.43-.066-2.69.448-2.83 1.152-.13.704.92 1.328 2.34 1.395 24.84 1.152 33.81 4.278 42.45 7.594 6.13 2.348 12.14 4.766 22.9 6.702 10.25 1.843 34.7 2.51 54.32-4.803 16.56-6.173 25.15-11.305 33.01-15.412 11.31-5.915 21.11-9.56 52.81-11.037" clip-rule="evenodd"/><path fill="#4e0b11" fill-rule="evenodd" d="M1404.89 11.163c1.43.07 2.7-.44 2.85-1.144.14-.699-.9-1.326-2.32-1.398-46.52-2.326-64.37 6.746-80.48 16.01-15.18 8.73-28.65 17.705-65.92 16.215-2.47-.096-8.25-.664-11.44-1.147-9.84-1.491-9.27-1.997-23.87-6.174-1.24-.356-2.82-.146-3.54.462-.72.611-.3 1.394.94 1.75 15.23 4.362 14.68 4.85 24.95 6.408 3.49.532 9.84 1.143 12.54 1.252 39.65 1.583 54.13-7.813 70.28-17.1 15.21-8.752 32.07-17.327 76.01-15.132z" clip-rule="evenodd"/><path fill="#4e0b11" fill-rule="evenodd" d="M1196.4 18.028c-1.27-.33-2.84-.088-3.5.537-.67.62-.18 1.399 1.08 1.725 12.83 3.328 33.56 9.853 55.3 12.898 14.97 2.091 30.42 2.533 44.24-.647 10.02-2.304 15.26-5.378 20.28-8.782 6.97-4.728 13.49-10.136 34-14.74 1.3-.289 1.88-1.05 1.28-1.692-.59-.643-2.13-.928-3.43-.633-18.16 4.075-26.03 8.732-32.43 13.081-5.94 4.038-10.46 7.82-21.9 10.45-12.69 2.918-26.88 2.427-40.63.5-21.35-2.986-41.68-9.428-54.29-12.695z" clip-rule="evenodd"/><path fill="#4e0b11" fill-rule="evenodd" d="M1302.08 13.019c-.91.54-.76 1.35.34 1.798 1.1.45 2.74.375 3.65-.166 10.74-6.377 11.12-6.314 24.99-8.957 1.34-.255 2-.998 1.49-1.653-.52-.66-2.02-.986-3.36-.735-15.04 2.867-15.47 2.797-27.11 9.714zm56.92 6.983c-1.43-.057-2.67.47-2.79 1.174-.11.704.96 1.32 2.39 1.371 15.98.616 26.04 3.563 35.19 6.358 9.85 3.013 18.74 5.84 31.99 5.963 16.34.16 22.59-2.058 31.8-6.262 8.59-3.926 19.96-9.704 46.3-16.946 1.25-.344 1.71-1.126 1.01-1.741-.71-.616-2.29-.836-3.54-.494-26.91 7.396-38.52 13.294-47.3 17.304-8.16 3.734-13.68 5.725-28.17 5.585-12.19-.116-20.3-2.81-29.36-5.581-9.75-2.98-20.49-6.078-37.52-6.732z" clip-rule="evenodd"/><path fill="#4e0b11" fill-rule="evenodd" d="M1376.16 15.098c-1.43-.013-2.61.545-2.64 1.253-.02.704 1.12 1.29 2.55 1.302 16.34.15 28.05 3.769 38.57 6.116 11.71 2.617 22.04 3.8 34.77-1.481 15.51-6.439 2.38-19.032-18.44-17.69-10.16.655-15.72 5.227-13.34 8.944 1.54 2.4 6.41 4.63 16.11 5.065 1.43.066 2.69-.453 2.82-1.156.13-.704-.92-1.324-2.35-1.39-6.81-.302-10.55-1.604-11.63-3.288-1.55-2.41 2.48-5.216 9.06-5.638 15.69-1.016 26.12 8.347 14.42 13.197-10.71 4.446-19.43 3.31-29.28 1.109-11.06-2.467-23.43-6.184-40.62-6.34z" clip-rule="evenodd"/></svg>