<svg width="1440" height="81" viewBox="0 0 1440 81" fill="none" xmlns="http://www.w3.org/2000/svg">
<path fill-rule="evenodd" clip-rule="evenodd" d="M4.32927 59.0684C3.26339 58.5926 1.62451 58.637 0.664814 59.1602C-0.292873 59.6873 -0.204718 60.4967 0.857153 60.9666C4.08083 62.396 19.4439 69.1984 39.9841 73.4154C53.8906 76.2692 70.1413 77.9325 86.6303 76.055C103.069 74.1775 111.36 70.7294 119.232 66.8598C130.335 61.398 140.563 55.0497 174.527 51.5405C175.928 51.3944 176.827 50.7132 176.533 50.0232C176.24 49.3322 174.862 48.893 173.461 49.0371C143.753 52.1061 131.351 57.256 121.291 62.1986C111.805 66.8588 104.59 71.3789 85.4603 73.5615C70.0832 75.3166 54.9425 73.7204 41.9756 71.0552C22.2068 66.9961 7.42874 60.4434 4.32326 59.0684H4.32927Z" fill="#4E0B11"/>
<path fill-rule="evenodd" clip-rule="evenodd" d="M98.2049 25.6182C96.7764 25.6754 95.7126 26.2904 95.8268 26.9942C95.939 27.6981 97.1912 28.2222 98.6197 28.165C121.077 27.2766 132.674 30.4117 144.356 34.2418C152.557 36.9327 160.809 39.9455 172.5 42.2662C181.794 44.1092 192.08 45.9127 217.171 48.3963C222.157 48.8889 227.262 50.2699 230.318 52.1554C233.057 53.8434 234.01 55.9726 231.193 58.1719C227.589 60.9813 220.699 60.8185 216.239 59.4246C213.779 58.6497 211.949 57.4938 212.206 56.17C212.386 55.251 213.564 54.3093 215.876 53.3774C216.984 52.9293 217.147 52.1248 216.239 51.5789C215.331 51.034 213.697 50.954 212.589 51.3982C208.92 52.8809 207.329 54.4633 207.045 55.9282C206.578 58.3161 209.629 60.5332 214.255 61.8165C220.873 63.6535 230.444 63.54 235.581 59.5381C239.786 56.2579 238.458 53.0823 234.375 50.5582C230.608 48.2364 224.349 46.5001 218.196 45.888C193.619 43.4528 183.543 41.6976 174.437 39.8912C163.125 37.6484 155.167 34.7146 147.231 32.1125C134.711 28.0061 122.273 24.6626 98.2029 25.6182H98.2049Z" fill="#4E0B11"/>
<path fill-rule="evenodd" clip-rule="evenodd" d="M11.3791 52.5241C10.2491 52.0887 8.62023 52.1894 7.73867 52.7442C6.85912 53.3019 7.06148 54.1074 8.18947 54.5378C33.3298 64.1979 51.598 67.4259 66.4301 67.2857C81.4165 67.1396 93.047 63.5652 104.85 59.3837C119.636 54.1459 134.726 47.9289 158.286 47.3791C159.717 47.3485 160.822 46.7503 160.754 46.0465C160.686 45.3387 159.47 44.7938 158.042 44.8293C133.304 45.4009 117.346 51.8084 101.82 57.3087C90.8912 61.1822 80.2044 64.5948 66.3279 64.731C52.2972 64.8633 35.157 61.662 11.3771 52.5241H11.3791Z" fill="#4E0B11"/>
<path fill-rule="evenodd" clip-rule="evenodd" d="M16.0436 44.1345C15.138 43.5896 13.5031 43.5057 12.3931 43.9499C11.2812 44.3951 11.1129 45.2026 12.0185 45.7495C38.0083 61.4874 66.5005 61.7559 80.0904 57.3404C85.0912 55.7186 88.2107 53.4531 88.916 51.0218C89.6232 48.5766 87.9403 45.9064 82.9294 43.484C81.2465 42.6706 77.8345 41.7871 73.7773 41.4228C67.7607 40.8858 60.4057 41.4574 55.4931 44.7821C54.1888 45.6626 53.6218 46.8886 53.8943 48.1768C54.2669 49.9665 56.2524 51.8401 59.4841 52.8509C63.0183 53.9545 68.1855 54.1747 74.5387 51.8401C75.6847 51.4186 75.9211 50.6131 75.0676 50.0504C74.2101 49.4828 72.5852 49.3693 71.4352 49.7918C68.4119 50.9003 65.8874 51.2547 63.8398 51.0188C61.2072 50.7197 59.6444 49.4808 59.1656 48.2746C58.871 47.5401 58.9432 46.7919 59.6845 46.2875C63.2127 43.9035 68.5381 43.556 72.8557 43.94C75.6847 44.1947 78.123 44.7446 79.297 45.3112C82.8834 47.0436 84.2898 48.9132 83.7829 50.6624C83.27 52.4304 80.8718 54.0305 77.2394 55.2092C64.9397 59.2061 39.569 58.3799 16.0496 44.1375L16.0436 44.1345Z" fill="#4E0B11"/>
<path fill-rule="evenodd" clip-rule="evenodd" d="M97.8887 50.5813C97.0573 51.1528 97.3278 51.9534 98.4898 52.363C99.6559 52.7767 101.277 52.6394 102.108 52.0679C109.487 46.9762 122.051 44.8608 133.373 43.159C134.742 42.9517 135.515 42.235 135.096 41.5638C134.68 40.8866 133.227 40.5085 131.859 40.7139C119.495 42.5746 105.945 45.0237 97.8887 50.5813Z" fill="#4E0B11"/>
<path fill-rule="evenodd" clip-rule="evenodd" d="M93.9059 41.2199C92.7258 41.6246 92.4313 42.4203 93.2447 43.0017C94.0561 43.5821 95.675 43.7262 96.8531 43.3274C106.204 40.1429 106.015 39.9633 116.858 38.3927C118.233 38.1914 119.022 37.4816 118.617 36.8044C118.215 36.1273 116.77 35.7403 115.398 35.9377C103.755 37.6218 103.944 37.8024 93.9059 41.2199Z" fill="#4E0B11"/>
<path fill-rule="evenodd" clip-rule="evenodd" d="M169.141 60.4797C168.51 59.8459 166.955 59.5873 165.669 59.8943C164.384 60.2072 163.854 60.9762 164.485 61.605C182.711 79.8887 224.178 78.8562 241.432 76.261C265.681 72.6076 276.925 65.9681 290.162 59.4817C302.822 53.2775 317.44 47.257 348.455 44.4989C349.865 44.3726 350.803 43.7072 350.549 43.0133C350.294 42.3183 348.944 41.8564 347.535 41.9837C315.064 44.8681 299.759 51.1739 286.504 57.6683C273.823 63.8823 263.151 70.3145 239.918 73.8109C224.068 76.1988 185.88 77.2709 169.141 60.4777V60.4797Z" fill="#4E0B11"/>
<path fill-rule="evenodd" clip-rule="evenodd" d="M200.221 53.7607C200.776 53.1111 200.159 52.3589 198.84 52.0855C197.522 51.8091 195.997 52.1161 195.442 52.7617C191.015 57.9293 192.283 62.0714 196.504 65.017C202.757 69.3841 215.909 71.1777 228.138 69.5914C251.77 66.5224 266.518 58.4219 281.414 51.0737C295.515 44.1183 309.744 37.8431 332.953 37.9695C334.383 37.9734 335.559 37.4117 335.573 36.7039C335.589 36.0001 334.441 35.4187 333.007 35.4108C308.195 35.2785 292.818 41.8301 277.743 49.2672C263.464 56.3114 249.47 64.175 226.816 67.1156C216.776 68.4216 205.873 67.1285 200.744 63.5442C197.376 61.1918 196.689 57.881 200.223 53.7607H200.221Z" fill="#4E0B11"/>
<path fill-rule="evenodd" clip-rule="evenodd" d="M249.778 49.8028C248.436 50.0476 247.759 50.7879 248.262 51.4463C248.765 52.1058 250.261 52.4394 251.602 52.1936C266.971 49.3497 273.799 45.0655 281.096 41.0301C287.832 37.3017 295.026 33.8181 311.103 32.2041C312.507 32.0639 313.413 31.3868 313.128 30.6958C312.842 30.0058 311.471 29.5576 310.067 29.6988C292.486 31.4667 284.588 35.2524 277.219 39.3283C270.413 43.0972 264.122 47.1474 249.778 49.8028Z" fill="#4E0B11"/>
<path fill-rule="evenodd" clip-rule="evenodd" d="M227.483 40.9897C226.151 40.7311 224.644 41.0549 224.119 41.7113C223.596 42.3668 224.253 43.1091 225.586 43.3687C235.501 45.2897 242.876 45.3647 248.979 44.3924C255.022 43.426 259.856 41.4024 264.667 38.9404C273.386 34.4806 282.091 28.4916 300.165 26.0475C301.544 25.8638 302.357 25.16 301.978 24.4769C301.6 23.7958 300.171 23.396 298.789 23.5855C279.593 26.1797 270.184 32.4323 260.928 37.1675C256.749 39.3047 252.629 41.121 247.38 41.9571C242.185 42.7873 235.924 42.6244 227.483 40.9897Z" fill="#4E0B11"/>
<path fill-rule="evenodd" clip-rule="evenodd" d="M115.643 18.5995C114.233 18.4811 112.892 18.9509 112.654 19.6469C112.415 20.3418 113.367 21.0012 114.78 21.1197C135.484 22.8482 153.209 27.927 170.93 31.8716C189.393 35.978 207.852 38.8684 229.331 36.0146C243.839 34.0887 250.972 30.8203 257.699 27.0079C267.122 21.6646 275.693 15.1791 305.504 10.1575C306.858 9.93345 307.581 9.20297 307.119 8.53863C306.654 7.86935 305.177 7.50905 303.825 7.73905C277.753 12.1308 267.154 17.5847 258.621 22.5224C250.625 27.1481 244.634 31.3346 227.981 33.5457C207.769 36.2288 190.437 33.4056 173.062 29.5399C154.952 25.5085 136.8 20.3625 115.641 18.5995H115.643Z" fill="#4E0B11"/>
<path fill-rule="evenodd" clip-rule="evenodd" d="M138.088 14.3597C136.684 14.2235 135.318 14.6727 135.037 15.3666C134.757 16.0576 135.668 16.7299 137.075 16.8661C144.103 17.561 153.271 19.7298 163.161 21.9755C173.431 24.3101 184.442 26.7424 194.678 27.8677C209.298 29.4728 222.379 28.4659 230.279 21.474C234.584 17.6647 234.35 14.4506 231.87 11.9758C228.183 8.29182 219.199 6.19415 211.444 6.20699C208.523 6.21094 203.956 6.73905 200.43 7.75876C197.74 8.53761 195.68 9.60965 194.955 10.8584C194.305 11.9748 194.586 13.268 196.632 14.7102C198.252 15.8493 201.121 17.1326 205.764 18.5136C206.99 18.8779 208.585 18.6844 209.326 18.0783C210.065 17.4751 209.669 16.6874 208.444 16.3232C204.634 15.1929 202.211 14.1771 200.881 13.2413C199.975 12.6036 199.655 12.0538 199.939 11.5612C200.334 10.888 201.604 10.3826 203.057 9.96501C205.748 9.18616 209.228 8.76466 211.46 8.76071C217.408 8.75084 224.393 10.2819 227.217 13.1051C229.079 14.9649 228.981 17.3705 225.745 20.2332C219.135 26.077 208.038 26.7157 195.804 25.3693C183.887 24.0593 170.908 20.9025 159.364 18.2984C151.348 16.486 143.991 14.9382 138.088 14.3588V14.3597Z" fill="#4E0B11"/>
<path fill-rule="evenodd" clip-rule="evenodd" d="M9.85148 33.0878C8.68743 32.6742 7.06657 32.8064 6.2311 33.3829C5.39963 33.9584 5.6681 34.755 6.83216 35.1686C9.42072 36.0798 20.915 40.1201 36.7208 39.9227C47.2013 39.7944 59.6232 37.825 72.57 31.7699C80.7665 27.9359 86.0297 24.7968 90.4576 22.1888C100.315 16.3756 105.897 13.3371 132.714 11.0282C134.125 10.9048 135.07 10.2454 134.824 9.55148C134.577 8.8516 133.233 8.39061 131.82 8.50907C107.051 10.6423 99.1649 13.425 90.716 18.105C85.3285 21.0852 79.7326 24.8975 68.9977 29.92C57.2711 35.4036 46.0813 37.2545 36.5906 37.37C22.4417 37.5457 12.1656 33.9041 9.84947 33.0907L9.85148 33.0878Z" fill="#4E0B11"/>
<path fill-rule="evenodd" clip-rule="evenodd" d="M13.0602 25.6085C11.9081 25.187 10.2813 25.3054 9.43178 25.873C8.58028 26.4406 8.82471 27.2442 9.97474 27.6627C18.7422 30.8551 26.3256 32.1621 33.1195 32.2134C43.3175 32.2983 51.8806 29.5531 60.1993 25.7013C72.9257 19.8091 85.1172 11.2378 103.53 8.10755C104.882 7.87952 105.603 7.14904 105.134 6.48075C104.666 5.8174 103.189 5.46104 101.837 5.68907C82.719 8.94366 69.8583 17.7203 56.647 23.8366C49.4022 27.1909 42.0893 29.7288 33.2037 29.6587C27.2732 29.6113 20.7117 28.3932 13.0602 25.6085Z" fill="#4E0B11"/>
<path fill-rule="evenodd" clip-rule="evenodd" d="M10.2817 17.5699C8.95737 17.3014 7.4427 17.6143 6.89974 18.2648C6.35879 18.9203 6.99591 19.6666 8.32025 19.9351C20.2613 22.3407 29.1229 22.5381 36.3176 21.5174C43.5123 20.4977 49.0981 18.2421 54.4315 15.5818C64.0885 10.7665 72.872 4.50019 91.4688 3.41829C92.8913 3.33439 93.9071 2.70163 93.7408 1.9978C93.5745 1.29793 92.2842 0.797447 90.8617 0.881353C70.8424 2.04223 61.1373 8.59878 50.739 13.7872C46.0467 16.1267 41.2122 18.1671 34.8831 19.0595C28.5559 19.9568 20.7862 19.6843 10.2817 17.5689V17.5699Z" fill="#4E0B11"/>
<path fill-rule="evenodd" clip-rule="evenodd" d="M32.4455 11.9104C31.6 12.482 31.8524 13.2816 33.0064 13.6961C34.1605 14.1137 35.7873 13.9913 36.6328 13.4197C44.8954 7.85724 47.8085 5.60558 61.8292 3.39341C63.1937 3.17821 63.947 2.45662 63.5102 1.78438C63.0734 1.11115 61.6129 0.741961 60.2465 0.957157C44.8373 3.38946 41.5235 5.79412 32.4455 11.9104Z" fill="#4E0B11"/>
<path fill-rule="evenodd" clip-rule="evenodd" d="M183.842 17.8038C185.068 18.1641 186.665 17.9667 187.4 17.3645C188.133 16.7584 187.733 15.9707 186.505 15.6094C172.624 11.5157 172.001 12.3163 156.423 10.3203C155.039 10.1397 153.623 10.5543 153.262 11.2354C152.901 11.9155 153.733 12.6154 155.117 12.7921C169.979 14.7002 170.6 13.9006 183.842 17.8058V17.8038Z" fill="#4E0B11"/>
<path fill-rule="evenodd" clip-rule="evenodd" d="M244.582 16.8976C243.745 17.4692 244.011 18.2688 245.171 18.6824C246.333 19.097 247.954 18.9647 248.792 18.3931C258.731 11.5937 262.103 9.46153 284.553 6.2563C285.925 6.05887 286.721 5.35109 286.322 4.67392C285.923 3.99674 284.485 3.60584 283.108 3.80327C258.908 7.25528 255.295 9.56814 244.58 16.8986L244.582 16.8976Z" fill="#4E0B11"/>
<path fill-rule="evenodd" clip-rule="evenodd" d="M240.941 5.25718C239.725 5.62735 239.352 6.4141 240.108 7.01625C240.863 7.61446 242.464 7.79905 243.678 7.42493C251.77 4.94919 251.678 5.01928 260.225 3.08844C261.527 2.79329 262.098 2.03418 261.501 1.39155C260.906 0.748928 259.363 0.467594 258.063 0.762748C249.22 2.76269 249.312 2.68766 240.941 5.25619V5.25718Z" fill="#4E0B11"/>
<path fill-rule="evenodd" clip-rule="evenodd" d="M295.064 16.1543C293.648 16.0536 292.331 16.5363 292.125 17.2362C291.919 17.9312 292.9 18.5827 294.317 18.6824C309.017 19.7426 319.049 23.6082 328.603 26.9585C339.014 30.608 348.921 33.6513 362.689 32.7195C370.245 32.2091 376.704 29.6583 380.447 26.3732C384.205 23.0751 385.185 19.0644 382.042 15.7318C379.359 12.8869 373.683 10.4684 363.866 9.46056C350.42 8.0835 342.484 13.3212 344.451 17.2964C345.74 19.9045 351.241 22.3486 363.012 21.9093C364.441 21.8521 365.51 21.24 365.402 20.5372C365.294 19.8334 364.048 19.3062 362.619 19.3596C354.577 19.6587 350.37 18.4761 349.49 16.6953C348.206 14.0932 354.016 11.0666 362.81 11.9679C370.571 12.7606 375.215 14.5571 377.337 16.8088C379.796 19.4168 378.86 22.5431 375.923 25.1195C372.97 27.7147 367.951 29.7857 361.986 30.1904C349.67 31.0206 340.923 28.1362 331.613 24.8737C321.447 21.3121 310.7 17.2747 295.064 16.1533V16.1543Z" fill="#4E0B11"/>
<path fill-rule="evenodd" clip-rule="evenodd" d="M335.449 21.304C336.625 21.7087 338.244 21.5626 339.059 20.9832C339.875 20.4077 339.582 19.6061 338.406 19.2073C328.727 15.9004 328.783 15.853 318.385 14.7139C316.987 14.5599 315.598 14.9952 315.29 15.6803C314.977 16.3713 315.859 17.0524 317.257 17.2064C326.712 18.2448 326.652 18.2981 335.449 21.305V21.304Z" fill="#4E0B11"/>
<path fill-rule="evenodd" clip-rule="evenodd" d="M332.697 7.1712C331.559 7.59666 331.337 8.39821 332.2 8.96088C333.068 9.52256 334.696 9.63312 335.834 9.20667C341.597 7.04682 347.86 4.79516 356.623 4.41709C362.477 4.16636 369.418 4.75667 378.035 6.69935C379.335 6.9945 380.878 6.71317 381.473 6.07054C382.07 5.42792 381.497 4.66881 380.195 4.37761C370.536 2.19702 362.734 1.585 356.17 1.87028C346.309 2.29277 339.178 4.74186 332.693 7.17021L332.697 7.1712Z" fill="#4E0B11"/>
<path fill-rule="evenodd" clip-rule="evenodd" d="M391.355 7.25819C390.019 7.00647 388.518 7.33716 388.005 7.99657C387.495 8.65597 388.164 9.39435 389.5 9.64607C410.261 13.568 428.912 20.6961 446.196 23.9151C458.54 26.2142 470.228 26.5843 481.512 22.8984C489.781 20.1986 492.64 15.1158 489.438 10.9945C487.306 8.24631 482.514 5.8989 474.766 4.99666C464.088 3.75287 455.729 8.81787 458.013 13.6469C458.959 15.6429 461.705 17.6172 467.003 19.0071C468.265 19.3368 469.838 19.1028 470.513 18.48C471.184 17.8551 470.705 17.0812 469.441 16.7515C465.751 15.7851 463.723 14.4564 463.066 13.0675C461.609 9.99256 466.772 6.69552 473.572 7.48622C479.348 8.15944 483.003 9.86028 484.594 11.9056C486.978 14.9746 484.804 18.7563 478.645 20.7701C466.289 24.8026 453.391 23.0524 439.502 19.6704C424.638 16.0516 408.73 10.5375 391.353 7.25622L391.355 7.25819Z" fill="#4E0B11"/>
<path fill-rule="evenodd" clip-rule="evenodd" d="M440.464 15.1782C441.656 15.5701 443.269 15.4112 444.061 14.8218C444.852 14.2335 444.53 13.4408 443.337 13.0499C428.82 8.29193 428.393 8.74009 412.465 5.28018C411.155 4.99489 409.622 5.29005 409.045 5.93563C408.468 6.58221 409.061 7.3344 410.369 7.61969C425.891 10.9937 426.317 10.5446 440.464 15.1782Z" fill="#4E0B11"/>
<path fill-rule="evenodd" clip-rule="evenodd" d="M395.031 26.92C393.724 26.6297 392.19 26.92 391.607 27.5655C391.024 28.2082 391.611 28.9643 392.917 29.2496C401.845 31.216 405.413 33.3827 405.617 35.5021C405.758 36.9848 404.223 38.3391 402.201 39.3895C400.122 40.4714 397.487 41.2463 395.295 41.4388C392.124 41.7112 389.455 41.5227 387.329 41.0301C383.967 40.2512 382.01 38.7261 381.693 37.3145C381.519 36.5495 381.811 35.815 382.837 35.3491C384.055 34.7983 386.093 34.7065 388.944 35.0974C390.324 35.2879 391.755 34.8911 392.14 34.21C392.524 33.5328 391.717 32.829 390.34 32.6355C384.21 31.7954 380.275 32.6789 378.215 34.0816C375.232 36.1132 376.137 39.6974 381.132 42.0103C384.448 43.5404 389.511 44.5305 396.191 43.953C399.272 43.6884 403.047 42.6648 405.97 41.1476C408.947 39.5997 411.009 37.5593 410.8 35.3827C410.538 32.6296 406.631 29.4638 395.035 26.917L395.031 26.92Z" fill="#4E0B11"/>
<path fill-rule="evenodd" clip-rule="evenodd" d="M371.766 44.5026C370.648 44.0633 369.013 44.1561 368.121 44.7049C367.23 45.2587 367.414 46.0632 368.534 46.5035C369.167 46.7493 379.75 52.0404 399.755 51.3671C412.66 50.9318 422.074 46.1787 424.404 45.084C425.44 44.5964 425.478 43.7869 424.493 43.2775C423.503 42.7672 421.86 42.7455 420.826 43.2331C418.79 44.1916 410.67 48.4343 399.402 48.8183C381.695 49.4126 372.333 44.7286 371.772 44.5046L371.766 44.5026Z" fill="#4E0B11"/>
<path fill-rule="evenodd" clip-rule="evenodd" d="M338.767 49.1299C337.34 49.0637 336.074 49.578 335.94 50.2819C335.803 50.9857 336.853 51.6096 338.278 51.6767C352.16 52.3223 359.7 54.8336 366.876 57.1899C374.724 59.7673 382.179 62.163 395.713 62.2726C406.684 62.3575 411.523 60.4879 417.567 57.7663C422.965 55.3301 429.456 52.1545 443.653 49.2928C444.978 49.0243 445.613 48.276 445.07 47.6255C444.529 46.97 443.01 46.6591 441.686 46.9266C426.662 49.9561 419.777 53.3025 414.065 55.8789C408.998 58.1612 404.993 59.788 395.795 59.713C383.554 59.6172 376.852 57.3962 369.751 55.0655C361.982 52.5108 353.793 49.8278 338.767 49.1299Z" fill="#4E0B11"/>
<path fill-rule="evenodd" clip-rule="evenodd" d="M315.567 53.5845C314.147 53.4917 312.841 53.9852 312.652 54.6831C312.462 55.383 313.46 56.0237 314.88 56.1214C334.659 57.4274 347.448 61.5526 358.707 65.1843C370.755 69.0756 381.207 72.3815 395.759 71.7932C412.113 71.1288 419.719 67.8979 428.358 63.8122C436.396 60.0087 445.408 55.4314 464.582 51.7464C465.916 51.4917 466.577 50.7494 466.057 50.093C465.536 49.4375 464.031 49.1078 462.699 49.3684C442.637 53.2192 433.179 57.991 424.768 61.9672C416.952 65.665 410.128 68.6462 395.334 69.2493C382.022 69.7903 372.572 66.6058 361.554 63.0481C349.75 59.2358 336.308 54.9576 315.573 53.5854L315.567 53.5845Z" fill="#4E0B11"/>
<path fill-rule="evenodd" clip-rule="evenodd" d="M290.208 62.7303C288.784 62.8053 287.754 63.4341 287.91 64.138C288.064 64.8418 289.345 65.3482 290.769 65.2732C317.546 63.831 332.375 68.0618 346.764 72.3717C361.985 76.9322 376.751 81.5619 403.157 80.4889C417.23 79.9223 428.308 76.0172 439.934 71.1358C456.421 64.21 474.158 55.2755 504.967 52.2983C506.373 52.162 507.289 51.4888 507.012 50.7988C506.736 50.1078 505.373 49.6557 503.969 49.7919C477.318 52.3634 460.026 59.1756 445.107 65.5427C430.946 71.5899 419.119 77.2787 402.733 77.9441C377.765 78.9549 363.852 74.496 349.459 70.1881C334.24 65.6325 318.526 61.2121 290.204 62.7343L290.208 62.7303Z" fill="#4E0B11"/>
<path fill-rule="evenodd" clip-rule="evenodd" d="M472.252 62.2605C470.89 62.4718 470.13 63.1924 470.563 63.8656C470.998 64.5388 472.454 64.913 473.821 64.6968C483.127 63.2407 493.219 64.2476 503.247 65.9188C513.833 67.6809 524.346 70.2109 533.861 71.7143C547.831 73.9255 559.754 73.9482 567.432 67.5328C571.559 64.0847 571.22 60.4708 567.858 57.7799C564.505 55.1028 558.087 53.2865 549.759 53.5145C545.171 53.6428 541.145 54.9399 538.911 56.5361C537.259 57.7187 536.589 59.0592 537.096 60.2428C537.882 62.0858 541.64 63.8962 550.782 63.7471C552.213 63.7205 553.335 63.1272 553.287 62.4234C553.237 61.7196 552.037 61.1658 550.606 61.1924C547.585 61.2408 545.383 61.0602 543.888 60.6781C542.923 60.4323 542.34 60.1066 542.173 59.7157C541.935 59.157 542.404 58.5459 543.183 57.9872C544.598 56.9764 547.14 56.1501 550.047 56.0692C556.178 55.9024 560.976 57.1511 563.443 59.1214C565.895 61.0868 565.977 63.7165 562.966 66.2367C556.715 71.4606 546.827 71.0865 535.451 69.284C525.959 67.7796 515.474 65.2604 504.91 63.4974C493.788 61.6465 482.574 60.6475 472.254 62.2625L472.252 62.2605Z" fill="#4E0B11"/>
<path fill-rule="evenodd" clip-rule="evenodd" d="M519.56 50.1939C518.145 50.0843 516.815 50.5582 516.592 51.2541C516.37 51.954 517.338 52.6085 518.752 52.719C527.443 53.3922 533.542 52.4298 539.296 51.0123C544.49 49.7369 549.362 48.0528 555.978 47.0805C565.392 45.7005 569.752 45.8801 574.911 46.6057C578.66 47.1328 582.795 47.9077 589.204 48.579C590.605 48.729 591.985 48.2838 592.284 47.5987C592.582 46.9087 591.687 46.2276 590.288 46.0825C573.877 44.358 572.01 42.0579 554.497 44.6304C548.885 45.4567 544.435 46.7459 540.068 47.9235C534.203 49.5059 528.493 50.8829 519.564 50.1929L519.56 50.1939Z" fill="#4E0B11"/>
<path fill-rule="evenodd" clip-rule="evenodd" d="M527.602 40.3125C526.396 40.6906 526.044 41.4823 526.815 42.0756C527.588 42.6698 529.195 42.8445 530.399 42.4625C541.172 39.0638 542.06 39.126 553.752 39.1832C555.183 39.1921 556.357 38.6245 556.371 37.9168C556.385 37.2129 555.233 36.6325 553.803 36.6285C540.683 36.5624 539.692 36.4963 527.598 40.3125H527.602Z" fill="#4E0B11"/>
<path fill-rule="evenodd" clip-rule="evenodd" d="M456.606 71.973C455.29 72.2494 454.677 73.0026 455.242 73.6491C455.803 74.2997 457.327 74.6037 458.646 74.3263C474.433 71.0066 492.249 73.5267 510.018 76.2177C528.907 79.0754 547.753 82.1405 564.272 79.8019C579.118 77.6993 587.659 73.5494 597.156 68.7125C610.682 61.8213 626.331 53.5372 667.644 48.4495C669.026 48.2788 669.876 47.5828 669.527 46.8977C669.181 46.2117 667.77 45.7991 666.388 45.9698C623.628 51.2382 607.426 59.8036 593.425 66.9356C584.569 71.4468 576.69 75.3885 562.841 77.3489C547.208 79.5601 529.418 76.4822 511.547 73.7735C492.555 70.898 473.484 68.4262 456.612 71.9749L456.606 71.973Z" fill="#4E0B11"/>
<path fill-rule="evenodd" clip-rule="evenodd" d="M579.813 59.4455C578.951 60.0082 579.175 60.8137 580.319 61.2352C581.461 61.6616 583.09 61.5521 583.954 60.9894C593.807 54.5612 599.271 53.3608 610.156 51.6629C611.522 51.4517 612.28 50.7311 611.849 50.0578C611.416 49.3846 609.96 49.0164 608.593 49.2277C596.644 51.0874 590.632 52.3934 579.817 59.4455H579.813Z" fill="#4E0B11"/>
<path fill-rule="evenodd" clip-rule="evenodd" d="M522.899 61.7543C524.199 62.0495 525.742 61.7682 526.337 61.1255C526.934 60.4839 526.361 59.7238 525.059 59.4287C514.658 57.0852 514.59 57.2609 502.91 56.3508C501.495 56.2412 500.167 56.715 499.942 57.411C499.718 58.1108 500.686 58.7643 502.1 58.8759C513.064 59.7327 513.138 59.553 522.901 61.7563L522.899 61.7543Z" fill="#4E0B11"/>
<path fill-rule="evenodd" clip-rule="evenodd" d="M622.725 61.0236C621.292 61.0414 620.16 61.6307 620.198 62.3345C620.236 63.0423 621.426 63.5961 622.857 63.5783C646.699 63.2792 660.084 67.44 672.685 71.2691C686.132 75.3588 698.741 79.0793 720.765 77.4831C733.893 76.5335 742.682 73.2789 751.962 70.1576C764.927 65.8033 779.02 61.8331 809.688 66.1291C811.071 66.3236 812.509 65.9277 812.9 65.2496C813.293 64.5684 812.491 63.8646 811.107 63.6711C778.125 59.0494 762.982 63.3641 749.033 68.0461C740.378 70.9572 732.26 74.0657 720.014 74.9541C699.562 76.4368 687.892 72.892 675.418 69.0925C662.094 65.0482 647.923 60.7077 622.727 61.0236H622.725Z" fill="#4E0B11"/>
<path fill-rule="evenodd" clip-rule="evenodd" d="M644.585 56.0256C643.156 56.0601 642.05 56.6623 642.12 57.3661C642.19 58.0699 643.405 58.6148 644.841 58.5803C663.41 58.1312 673.121 61.2495 682.481 64.0589C692.689 67.1161 702.505 69.8376 721.156 68.0963C730.418 67.2355 737.941 64.7588 746.158 62.2258C757.634 58.6859 770.599 55.0621 792.862 56.4738C794.281 56.5665 795.583 56.069 795.761 55.3711C795.947 54.6712 794.94 54.0306 793.523 53.9417C769.641 52.4255 755.713 56.2645 743.399 60.058C735.751 62.4153 728.807 64.7805 720.18 65.586C703.288 67.1644 694.419 64.6443 685.172 61.8744C675.088 58.8498 664.594 55.5419 644.579 56.0266L644.585 56.0256Z" fill="#4E0B11"/>
<path fill-rule="evenodd" clip-rule="evenodd" d="M719.096 52.7753C720.398 53.0744 721.941 52.793 722.54 52.1504C723.139 51.5078 722.566 50.7516 721.264 50.4525C716.086 49.2788 712.089 48.8652 709.128 48.9146C705.388 48.9758 703.005 49.7319 701.613 50.7654C700.04 51.9352 699.764 53.562 700.729 55.1898C702.05 57.4187 705.664 59.6181 710.35 60.3831C720.166 61.9882 727.438 59.7583 730.927 56.2371C735.915 51.1889 732.792 43.3126 717.301 40.6789C698.161 37.4292 685.034 41.6285 679.428 42.8999C678.136 43.1951 677.565 43.9542 678.16 44.5968C678.759 45.2335 680.301 45.5159 681.598 45.2217C686.628 44.0786 698.399 40.1784 715.604 43.0984C727.599 45.1348 730.121 51.2116 726.26 55.1157C723.85 57.5569 718.783 59.0692 711.983 57.9567C708.878 57.4503 706.586 55.9519 705.71 54.4741C705.211 53.6341 705.123 52.7861 705.933 52.178C706.54 51.7299 707.672 51.4969 709.296 51.4703C711.697 51.4308 714.9 51.8266 719.096 52.7762V52.7753Z" fill="#4E0B11"/>
<path fill-rule="evenodd" clip-rule="evenodd" d="M741.931 41.7164C740.737 41.3255 739.128 41.4923 738.342 42.0806C737.549 42.6699 737.88 43.4616 739.074 43.8496C748.194 46.808 754.441 49.4249 770.351 49.4032C771.779 49.4032 772.939 48.8277 772.939 48.1239C772.931 47.4161 771.759 46.8445 770.331 46.8485C755.857 46.8662 750.225 44.4073 741.929 41.7164H741.931Z" fill="#4E0B11"/>
<path fill-rule="evenodd" clip-rule="evenodd" d="M672.031 36.5094C670.783 36.8569 670.355 37.6397 671.06 38.2517C671.771 38.8627 673.352 39.0779 674.602 38.7304C687.192 35.1866 702.872 29.553 735.529 35.3456C747.264 37.4304 754.609 39.839 761.657 41.6948C772.811 44.6237 783.254 46.2949 807.558 43.4884C808.951 43.3256 809.816 42.6395 809.486 41.9544C809.163 41.2644 807.765 40.838 806.372 40.9999C783.993 43.5812 774.372 42.139 764.102 39.4382C756.865 37.534 749.324 35.0771 737.278 32.9389C702.317 26.7348 685.511 32.7148 672.029 36.5094H672.031Z" fill="#4E0B11"/>
<path fill-rule="evenodd" clip-rule="evenodd" d="M712.305 22.8825C710.922 23.0631 710.103 23.767 710.467 24.4481C710.842 25.1282 712.263 25.5329 713.645 25.3493C728.547 23.3869 737.81 25.1154 747.32 27.7579C754.094 29.6394 760.993 31.9533 769.862 33.8436C792.903 38.7517 805.95 36.3371 810.464 35.5622C811.818 35.3283 812.535 34.5998 812.061 33.9354C811.598 33.2681 810.115 32.9157 808.759 33.1497C804.666 33.8496 792.831 35.9551 771.914 31.4962C763.241 29.6493 756.495 27.371 749.865 25.529C739.264 22.5873 728.924 20.692 712.309 22.8825H712.305Z" fill="#4E0B11"/>
<path fill-rule="evenodd" clip-rule="evenodd" d="M737.763 16.0219C736.327 16.018 735.159 16.5846 735.139 17.2884C735.131 17.9962 736.281 18.5727 737.719 18.5767C752.247 18.6428 760.868 21.8836 769.906 24.5528C779.811 27.4777 790.144 29.8211 807.751 27.6277C809.133 27.4559 809.981 26.7571 809.624 26.0759C809.277 25.3889 807.865 24.9763 806.474 25.147C790.697 27.1174 781.452 24.9842 772.575 22.3594C762.822 19.4789 753.443 16.093 737.765 16.0219H737.763Z" fill="#4E0B11"/>
<path fill-rule="evenodd" clip-rule="evenodd" d="M764.918 12.9096C763.65 12.5838 762.081 12.8257 761.412 13.4505C760.751 14.0754 761.239 14.8483 762.508 15.1741C781.026 19.9498 787.476 21.7662 808.09 19.093C809.484 18.9124 810.304 18.2125 809.947 17.5314C809.581 16.8453 808.16 16.4406 806.772 16.6173C787.826 19.0752 781.936 17.2974 764.92 12.9096H764.918Z" fill="#4E0B11"/>
<path fill-rule="evenodd" clip-rule="evenodd" d="M748.409 11.3261C749.837 11.26 750.879 10.6351 750.747 9.93128C750.614 9.22746 749.346 8.71315 747.918 8.77929C714.196 10.3538 703.862 14.3201 691.823 20.6081C684.113 24.6416 675.706 29.6839 659.458 35.735C641.602 42.3923 619.371 41.8562 610.047 40.1761C599.935 38.3598 594.321 36.0647 588.557 33.8575C579.357 30.3304 569.846 26.9623 543.407 25.7353C541.983 25.6692 540.716 26.1835 540.582 26.8873C540.446 27.5911 541.494 28.215 542.92 28.2821C567.76 29.4341 576.724 32.5604 585.369 35.8762C591.502 38.2236 597.505 40.6421 608.266 42.5778C618.514 44.4208 642.965 45.0881 662.587 37.7754C679.148 31.6019 687.734 26.4698 695.595 22.3633C706.909 16.4484 716.709 12.8029 748.405 11.3261H748.409Z" fill="#4E0B11"/>
<path fill-rule="evenodd" clip-rule="evenodd" d="M602.89 11.1634C604.315 11.2334 605.589 10.7231 605.733 10.0193C605.875 9.32037 604.838 8.69256 603.415 8.62148C556.895 6.2948 539.046 15.3666 522.933 24.6318C507.755 33.3601 494.289 42.3361 457.013 40.8455C454.553 40.7498 448.773 40.1822 445.583 39.6985C435.74 38.2079 436.305 37.7015 421.711 33.5249C420.473 33.1686 418.884 33.3789 418.167 33.9869C417.445 34.598 417.868 35.3808 419.104 35.7371C434.333 40.0993 433.784 40.5879 444.056 42.1446C447.552 42.6767 453.898 43.2877 456.594 43.3973C496.252 44.9797 510.726 35.5841 526.874 26.2962C542.091 17.5452 558.947 8.96994 602.892 11.1653L602.89 11.1634Z" fill="#4E0B11"/>
<path fill-rule="evenodd" clip-rule="evenodd" d="M394.403 18.0281C393.135 17.6984 391.564 17.9403 390.899 18.5651C390.231 19.1851 390.718 19.9639 391.985 20.2897C404.813 23.6183 425.54 30.1433 447.276 33.1876C462.252 35.2793 477.696 35.7206 491.518 32.541C501.536 30.237 506.781 27.1631 511.802 23.7585C518.766 19.0311 525.292 13.6226 545.798 9.01954C547.102 8.73031 547.677 7.96923 547.084 7.3266C546.489 6.68398 544.95 6.39869 543.646 6.69385C525.488 10.7687 517.622 15.4261 511.221 19.7754C505.276 23.8128 500.758 27.5945 489.322 30.2242C476.632 33.1432 462.445 32.6516 448.695 30.7247C427.339 27.7386 407.007 21.2966 394.403 18.0301V18.0281Z" fill="#4E0B11"/>
<path fill-rule="evenodd" clip-rule="evenodd" d="M500.078 13.0189C499.164 13.5598 499.315 14.3693 500.417 14.8174C501.519 15.2666 503.156 15.1916 504.069 14.6506C514.806 8.27372 515.189 8.33689 529.057 5.69433C530.394 5.43866 531.059 4.69634 530.544 4.04088C530.025 3.38147 528.524 3.05473 527.188 3.30645C512.145 6.17309 511.723 6.10301 500.078 13.0199V13.0189Z" fill="#4E0B11"/>
<path fill-rule="evenodd" clip-rule="evenodd" d="M557.002 20.0022C555.573 19.945 554.325 20.4721 554.213 21.1759C554.103 21.8797 555.171 22.4957 556.595 22.547C572.581 23.163 582.639 26.1096 591.791 28.9052C601.636 31.9179 610.532 34.7451 623.784 34.8685C640.122 35.0274 646.369 32.8103 655.578 28.6061C664.171 24.6802 675.541 18.9016 701.881 11.6599C703.129 11.3164 703.586 10.5336 702.889 9.91861C702.184 9.30264 700.605 9.08251 699.355 9.42505C672.441 16.8207 660.833 22.7188 652.051 26.7286C643.887 30.4629 638.373 32.4539 623.882 32.3138C611.692 32.1983 603.582 29.5034 594.524 26.7325C584.775 23.7523 574.032 20.6547 557 20.0012L557.002 20.0022Z" fill="#4E0B11"/>
<path fill-rule="evenodd" clip-rule="evenodd" d="M574.165 15.0982C572.734 15.0854 571.55 15.6431 571.522 16.3509C571.496 17.0547 572.636 17.6401 574.066 17.6529C590.409 17.803 602.124 21.4218 612.636 23.7692C624.345 26.3861 634.677 27.5687 647.406 22.2875C662.923 15.8494 649.788 3.25554 628.969 4.59706C618.809 5.25252 613.251 9.82493 615.634 13.5415C617.172 15.9422 622.043 18.1712 631.744 18.6065C633.169 18.6726 634.433 18.1544 634.563 17.4506C634.693 16.7467 633.641 16.1268 632.213 16.0617C625.403 15.7586 621.658 14.4566 620.578 12.7725C619.034 10.3629 623.059 7.55748 629.64 7.13498C645.334 6.11922 655.756 15.4822 644.058 20.332C633.349 24.7781 624.634 23.6429 614.78 21.4406C603.725 18.9737 591.349 15.2571 574.165 15.1002V15.0982Z" fill="#4E0B11"/>
<path fill-rule="evenodd" clip-rule="evenodd" d="M663.752 11.4496C662.752 11.956 662.77 12.7654 663.794 13.257C664.822 13.7447 666.464 13.7358 667.46 13.2304C674.475 9.68161 678.802 6.73995 697.916 3.95129C699.29 3.75386 700.076 3.04115 699.675 2.36398C699.266 1.6868 697.818 1.29886 696.453 1.50221C675.929 4.49224 671.271 7.63627 663.748 11.4486L663.752 11.4496Z" fill="#4E0B11"/>
<path fill-rule="evenodd" clip-rule="evenodd" d="M810.001 63.6455C808.935 63.1697 803.961 63.1223 803.001 63.6455C802.043 64.1726 808.939 65.6756 810.001 66.1455C813.501 66.6455 821.445 69.1984 841.985 73.4154C855.892 76.2692 872.142 77.9325 888.631 76.055C905.07 74.1775 913.361 70.7294 921.233 66.8598C932.337 61.398 942.564 55.0497 976.528 51.5405C977.929 51.3944 978.828 50.7132 978.534 50.0232C978.241 49.3322 976.863 48.893 975.462 49.0371C945.754 52.1061 933.352 57.256 923.293 62.1986C913.806 66.8588 906.591 71.3789 887.461 73.5615C872.084 75.3166 856.944 73.7204 843.977 71.0552C824.208 66.9961 815.501 64.1455 811.501 63.6455H810.001Z" fill="#4E0B11"/>
<path fill-rule="evenodd" clip-rule="evenodd" d="M900.205 25.6182C898.776 25.6754 897.713 26.2904 897.827 26.9942C897.939 27.6981 899.191 28.2222 900.62 28.165C923.077 27.2766 934.674 30.4117 946.356 34.2418C954.557 36.9327 962.809 39.9455 974.5 42.2662C983.794 44.1092 994.08 45.9127 1019.17 48.3963C1024.16 48.8889 1029.26 50.2699 1032.32 52.1554C1035.06 53.8434 1036.01 55.9726 1033.19 58.1719C1029.59 60.9813 1022.7 60.8185 1018.24 59.4246C1015.78 58.6497 1013.95 57.4938 1014.21 56.17C1014.39 55.251 1015.56 54.3093 1017.88 53.3774C1018.98 52.9293 1019.15 52.1248 1018.24 51.5789C1017.33 51.034 1015.7 50.954 1014.59 51.3982C1010.92 52.8809 1009.33 54.4633 1009.04 55.9282C1008.58 58.3161 1011.63 60.5332 1016.26 61.8165C1022.87 63.6535 1032.44 63.54 1037.58 59.5381C1041.79 56.2579 1040.46 53.0823 1036.37 50.5582C1032.61 48.2364 1026.35 46.5001 1020.2 45.888C995.619 43.4528 985.543 41.6976 976.437 39.8912C965.125 37.6484 957.167 34.7146 949.231 32.1125C936.711 28.0061 924.273 24.6626 900.203 25.6182H900.205Z" fill="#4E0B11"/>
<path fill-rule="evenodd" clip-rule="evenodd" d="M813.381 52.5241C812.251 52.0887 810.622 52.1894 809.741 52.7442C808.861 53.3019 809.063 54.1074 810.191 54.5378C835.332 64.1979 853.6 67.4259 868.432 67.2857C883.418 67.1396 895.049 63.5652 906.852 59.3837C921.638 54.1459 936.728 47.9289 960.288 47.3791C961.718 47.3485 962.824 46.7503 962.756 46.0465C962.688 45.3387 961.472 44.7938 960.044 44.8293C935.306 45.4009 919.348 51.8084 903.822 57.3087C892.893 61.1822 882.206 64.5948 868.33 64.731C854.299 64.8633 837.159 61.662 813.379 52.5241H813.381Z" fill="#4E0B11"/>
<path fill-rule="evenodd" clip-rule="evenodd" d="M818.046 44.1345C817.14 43.5896 815.505 43.5057 814.395 43.9499C813.283 44.3951 813.115 45.2026 814.02 45.7495C840.01 61.4874 868.502 61.7559 882.092 57.3404C887.093 55.7186 890.213 53.4531 890.918 51.0218C891.625 48.5766 889.942 45.9064 884.931 43.484C883.248 42.6706 879.836 41.7871 875.779 41.4228C869.763 40.8858 862.408 41.4574 857.495 44.7821C856.191 45.6626 855.624 46.8886 855.896 48.1768C856.269 49.9665 858.254 51.8401 861.486 52.8509C865.02 53.9545 870.187 54.1747 876.541 51.8401C877.687 51.4186 877.923 50.6131 877.07 50.0504C876.212 49.4828 874.587 49.3693 873.437 49.7918C870.414 50.9003 867.889 51.2547 865.842 51.0188C863.209 50.7197 861.646 49.4808 861.168 48.2746C860.873 47.5401 860.945 46.7919 861.686 46.2875C865.215 43.9035 870.54 43.556 874.858 43.94C877.687 44.1947 880.125 44.7446 881.299 45.3112C884.885 47.0436 886.292 48.9132 885.785 50.6624C885.272 52.4304 882.874 54.0305 879.241 55.2092C866.942 59.2061 841.571 58.3799 818.052 44.1375L818.046 44.1345Z" fill="#4E0B11"/>
<path fill-rule="evenodd" clip-rule="evenodd" d="M899.889 50.5813C899.057 51.1528 899.328 51.9534 900.49 52.363C901.656 52.7767 903.277 52.6394 904.108 52.0679C911.487 46.9762 924.051 44.8608 935.373 43.159C936.742 42.9517 937.515 42.235 937.096 41.5638C936.68 40.8866 935.227 40.5085 933.859 40.7139C921.495 42.5746 907.945 45.0237 899.889 50.5813Z" fill="#4E0B11"/>
<path fill-rule="evenodd" clip-rule="evenodd" d="M895.906 41.2199C894.726 41.6246 894.431 42.4203 895.245 43.0017C896.056 43.5821 897.675 43.7262 898.853 43.3274C908.204 40.1429 908.015 39.9633 918.858 38.3927C920.233 38.1914 921.022 37.4816 920.617 36.8044C920.215 36.1273 918.77 35.7403 917.398 35.9377C905.755 37.6218 905.944 37.8024 895.906 41.2199Z" fill="#4E0B11"/>
<path fill-rule="evenodd" clip-rule="evenodd" d="M971.143 60.4797C970.512 59.8459 968.957 59.5873 967.671 59.8943C966.386 60.2072 965.855 60.9762 966.487 61.605C984.713 79.8887 1026.18 78.8562 1043.43 76.261C1067.68 72.6076 1078.93 65.9681 1092.16 59.4817C1104.82 53.2775 1119.44 47.257 1150.46 44.4989C1151.87 44.3726 1152.8 43.7072 1152.55 43.0133C1152.3 42.3183 1150.95 41.8564 1149.54 41.9837C1117.07 44.8681 1101.76 51.1739 1088.51 57.6683C1075.83 63.8823 1065.15 70.3145 1041.92 73.8109C1026.07 76.1988 987.882 77.2709 971.143 60.4777V60.4797Z" fill="#4E0B11"/>
<path fill-rule="evenodd" clip-rule="evenodd" d="M1002.22 53.7607C1002.78 53.1111 1002.16 52.3589 1000.84 52.0855C999.522 51.8091 997.997 52.1161 997.442 52.7617C993.015 57.9293 994.283 62.0714 998.504 65.017C1004.76 69.3841 1017.91 71.1777 1030.14 69.5914C1053.77 66.5224 1068.52 58.4219 1083.41 51.0737C1097.51 44.1183 1111.74 37.8431 1134.95 37.9695C1136.38 37.9734 1137.56 37.4117 1137.57 36.7039C1137.59 36.0001 1136.44 35.4187 1135.01 35.4108C1110.2 35.2785 1094.82 41.8301 1079.74 49.2672C1065.46 56.3114 1051.47 64.175 1028.82 67.1156C1018.78 68.4216 1007.87 67.1285 1002.74 63.5442C999.376 61.1918 998.689 57.881 1002.22 53.7607H1002.22Z" fill="#4E0B11"/>
<path fill-rule="evenodd" clip-rule="evenodd" d="M1051.78 49.8028C1050.44 50.0476 1049.76 50.7879 1050.26 51.4463C1050.76 52.1058 1052.26 52.4394 1053.6 52.1936C1068.97 49.3497 1075.8 45.0655 1083.1 41.0301C1089.83 37.3017 1097.03 33.8181 1113.1 32.2041C1114.51 32.0639 1115.41 31.3868 1115.13 30.6958C1114.84 30.0058 1113.47 29.5576 1112.07 29.6988C1094.49 31.4667 1086.59 35.2524 1079.22 39.3283C1072.41 43.0972 1066.12 47.1474 1051.78 49.8028Z" fill="#4E0B11"/>
<path fill-rule="evenodd" clip-rule="evenodd" d="M1029.48 40.9897C1028.15 40.7311 1026.64 41.0549 1026.12 41.7113C1025.6 42.3668 1026.25 43.1091 1027.59 43.3687C1037.5 45.2897 1044.88 45.3647 1050.98 44.3924C1057.02 43.426 1061.86 41.4024 1066.67 38.9404C1075.39 34.4806 1084.09 28.4916 1102.17 26.0475C1103.54 25.8638 1104.36 25.16 1103.98 24.4769C1103.6 23.7958 1102.17 23.396 1100.79 23.5855C1081.59 26.1797 1072.18 32.4323 1062.93 37.1675C1058.75 39.3047 1054.63 41.121 1049.38 41.9571C1044.19 42.7873 1037.92 42.6244 1029.48 40.9897Z" fill="#4E0B11"/>
<path fill-rule="evenodd" clip-rule="evenodd" d="M917.645 18.5995C916.235 18.4811 914.894 18.9509 914.656 19.6469C914.417 20.3418 915.369 21.0012 916.781 21.1197C937.486 22.8482 955.211 27.927 972.932 31.8716C991.395 35.978 1009.85 38.8684 1031.33 36.0146C1045.84 34.0887 1052.97 30.8203 1059.7 27.0079C1069.12 21.6646 1077.7 15.1791 1107.51 10.1575C1108.86 9.93345 1109.58 9.20297 1109.12 8.53863C1108.66 7.86935 1107.18 7.50905 1105.83 7.73905C1079.75 12.1308 1069.16 17.5847 1060.62 22.5224C1052.63 27.1481 1046.64 31.3346 1029.98 33.5457C1009.77 36.2288 992.439 33.4056 975.064 29.5399C956.954 25.5085 938.802 20.3625 917.643 18.5995H917.645Z" fill="#4E0B11"/>
<path fill-rule="evenodd" clip-rule="evenodd" d="M940.09 14.3597C938.686 14.2235 937.319 14.6727 937.039 15.3666C936.758 16.0576 937.67 16.7299 939.077 16.8661C946.105 17.561 955.273 19.7298 965.163 21.9755C975.433 24.3101 986.444 26.7424 996.68 27.8677C1011.3 29.4728 1024.38 28.4659 1032.28 21.474C1036.59 17.6647 1036.35 14.4506 1033.87 11.9758C1030.19 8.29182 1021.2 6.19415 1013.45 6.20699C1010.52 6.21094 1005.96 6.73905 1002.43 7.75876C999.741 8.53761 997.682 9.60965 996.957 10.8584C996.307 11.9748 996.588 13.268 998.634 14.7102C1000.25 15.8493 1003.12 17.1326 1007.77 18.5136C1008.99 18.8779 1010.59 18.6844 1011.33 18.0783C1012.07 17.4751 1011.67 16.6874 1010.45 16.3232C1006.64 15.1929 1004.21 14.1771 1002.88 13.2413C1001.98 12.6036 1001.66 12.0538 1001.94 11.5612C1002.34 10.888 1003.61 10.3826 1005.06 9.96501C1007.75 9.18616 1011.23 8.76466 1013.46 8.76071C1019.41 8.75084 1026.39 10.2819 1029.22 13.1051C1031.08 14.9649 1030.98 17.3705 1027.75 20.2332C1021.14 26.077 1010.04 26.7157 997.806 25.3693C985.889 24.0593 972.91 20.9025 961.366 18.2984C953.35 16.486 945.993 14.9382 940.09 14.3588V14.3597Z" fill="#4E0B11"/>
<path fill-rule="evenodd" clip-rule="evenodd" d="M811.851 33.0878C810.687 32.6742 809.067 32.8064 808.231 33.3829C807.4 33.9584 807.668 34.755 808.832 35.1686C811.421 36.0798 822.915 40.1201 838.721 39.9227C849.201 39.7944 861.623 37.825 874.57 31.7699C882.766 27.9359 888.03 24.7968 892.458 22.1888C902.315 16.3756 907.897 13.3371 934.714 11.0282C936.125 10.9048 937.07 10.2454 936.824 9.55148C936.577 8.8516 935.233 8.39061 933.82 8.50907C909.051 10.6423 901.165 13.425 892.716 18.105C887.329 21.0852 881.733 24.8975 870.998 29.92C859.271 35.4036 848.081 37.2545 838.591 37.37C824.442 37.5457 814.166 33.9041 811.849 33.0907L811.851 33.0878Z" fill="#4E0B11"/>
<path fill-rule="evenodd" clip-rule="evenodd" d="M815.062 25.6085C813.91 25.187 812.283 25.3054 811.434 25.873C810.582 26.4406 810.827 27.2442 811.977 27.6627C820.744 30.8551 828.328 32.1621 835.121 32.2134C845.319 32.2983 853.883 29.5531 862.201 25.7013C874.928 19.8091 887.119 11.2378 905.532 8.10755C906.884 7.87952 907.605 7.14904 907.136 6.48075C906.668 5.8174 905.191 5.46104 903.839 5.68907C884.721 8.94366 871.86 17.7203 858.649 23.8366C851.404 27.1909 844.091 29.7288 835.206 29.6587C829.275 29.6113 822.714 28.3932 815.062 25.6085Z" fill="#4E0B11"/>
<path fill-rule="evenodd" clip-rule="evenodd" d="M809.541 16.6978C808.217 16.4293 806.702 16.7422 806.16 17.3927C805.619 18.0482 806.256 18.7945 807.58 19.063C819.521 21.4686 828.383 21.6661 835.577 20.6454C842.772 19.6257 848.358 17.37 853.691 14.7097C863.348 9.89447 872.132 3.62812 890.729 2.54622C892.151 2.46232 893.167 1.82956 893.001 1.12573C892.834 0.425856 891.544 -0.0746231 890.121 0.00928307C870.102 1.17015 860.397 7.72672 849.999 12.9151C845.307 15.2546 840.472 17.295 834.143 18.1874C827.816 19.0847 820.046 18.8132 809.541 16.6978Z" fill="#4E0B11"/>
<path fill-rule="evenodd" clip-rule="evenodd" d="M834.445 11.9104C833.6 12.482 833.852 13.2816 835.006 13.6961C836.16 14.1137 837.787 13.9913 838.633 13.4197C846.895 7.85724 849.809 5.60558 863.829 3.39341C865.194 3.17821 865.947 2.45662 865.51 1.78438C865.073 1.11115 863.613 0.741961 862.246 0.957157C846.837 3.38946 843.523 5.79412 834.445 11.9104Z" fill="#4E0B11"/>
<path fill-rule="evenodd" clip-rule="evenodd" d="M985.842 17.8038C987.068 18.1641 988.665 17.9667 989.4 17.3645C990.133 16.7584 989.733 15.9707 988.505 15.6094C974.624 11.5157 974.001 12.3163 958.423 10.3203C957.039 10.1397 955.623 10.5543 955.262 11.2354C954.901 11.9155 955.733 12.6154 957.117 12.7921C971.979 14.7002 972.6 13.9006 985.842 17.8058V17.8038Z" fill="#4E0B11"/>
<path fill-rule="evenodd" clip-rule="evenodd" d="M1046.58 16.8976C1045.75 17.4692 1046.01 18.2688 1047.17 18.6824C1048.34 19.097 1049.96 18.9647 1050.79 18.3931C1060.73 11.5937 1064.11 9.46153 1086.55 6.2563C1087.93 6.05887 1088.72 5.35109 1088.32 4.67392C1087.93 3.99674 1086.49 3.60584 1085.11 3.80327C1060.91 7.25528 1057.3 9.56814 1046.58 16.8986L1046.58 16.8976Z" fill="#4E0B11"/>
<path fill-rule="evenodd" clip-rule="evenodd" d="M1042.94 5.25718C1041.72 5.62735 1041.35 6.4141 1042.11 7.01625C1042.86 7.61446 1044.46 7.79905 1045.68 7.42493C1053.77 4.94919 1053.68 5.01928 1062.23 3.08844C1063.53 2.79329 1064.1 2.03418 1063.5 1.39155C1062.91 0.748928 1061.36 0.467594 1060.06 0.762748C1051.22 2.76269 1051.31 2.68766 1042.94 5.25619V5.25718Z" fill="#4E0B11"/>
<path fill-rule="evenodd" clip-rule="evenodd" d="M1097.06 16.1543C1095.65 16.0536 1094.33 16.5363 1094.13 17.2362C1093.92 17.9312 1094.9 18.5827 1096.32 18.6824C1111.02 19.7426 1121.05 23.6082 1130.6 26.9585C1141.01 30.608 1150.92 33.6513 1164.69 32.7195C1172.24 32.2091 1178.7 29.6583 1182.45 26.3732C1186.21 23.0751 1187.19 19.0644 1184.04 15.7318C1181.36 12.8869 1175.68 10.4684 1165.87 9.46056C1152.42 8.0835 1144.48 13.3212 1146.45 17.2964C1147.74 19.9045 1153.24 22.3486 1165.01 21.9093C1166.44 21.8521 1167.51 21.24 1167.4 20.5372C1167.29 19.8334 1166.05 19.3062 1164.62 19.3596C1156.58 19.6587 1152.37 18.4761 1151.49 16.6953C1150.21 14.0932 1156.02 11.0666 1164.81 11.9679C1172.57 12.7606 1177.22 14.5571 1179.34 16.8088C1181.8 19.4168 1180.86 22.5431 1177.92 25.1195C1174.97 27.7147 1169.95 29.7857 1163.99 30.1904C1151.67 31.0206 1142.92 28.1362 1133.61 24.8737C1123.45 21.3121 1112.7 17.2747 1097.06 16.1533V16.1543Z" fill="#4E0B11"/>
<path fill-rule="evenodd" clip-rule="evenodd" d="M1137.45 21.304C1138.63 21.7087 1140.24 21.5626 1141.06 20.9832C1141.87 20.4077 1141.58 19.6061 1140.41 19.2073C1130.73 15.9004 1130.78 15.853 1120.38 14.7139C1118.99 14.5599 1117.6 14.9952 1117.29 15.6803C1116.98 16.3713 1117.86 17.0524 1119.26 17.2064C1128.71 18.2448 1128.65 18.2981 1137.45 21.305V21.304Z" fill="#4E0B11"/>
<path fill-rule="evenodd" clip-rule="evenodd" d="M1134.7 7.1712C1133.56 7.59666 1133.34 8.39821 1134.2 8.96088C1135.07 9.52256 1136.7 9.63312 1137.83 9.20667C1143.6 7.04682 1149.86 4.79516 1158.62 4.41709C1164.48 4.16636 1171.42 4.75667 1180.03 6.69935C1181.34 6.9945 1182.88 6.71317 1183.47 6.07054C1184.07 5.42792 1183.5 4.66881 1182.19 4.37761C1172.54 2.19702 1164.73 1.585 1158.17 1.87028C1148.31 2.29277 1141.18 4.74186 1134.69 7.17021L1134.7 7.1712Z" fill="#4E0B11"/>
<path fill-rule="evenodd" clip-rule="evenodd" d="M1193.36 7.25819C1192.02 7.00647 1190.52 7.33716 1190.01 7.99657C1189.5 8.65597 1190.17 9.39435 1191.5 9.64607C1212.26 13.568 1230.91 20.6961 1248.2 23.9151C1260.54 26.2142 1272.23 26.5843 1283.51 22.8984C1291.78 20.1986 1294.64 15.1158 1291.44 10.9945C1289.31 8.24631 1284.52 5.8989 1276.77 4.99666C1266.09 3.75287 1257.73 8.81787 1260.01 13.6469C1260.96 15.6429 1263.71 17.6172 1269 19.0071C1270.27 19.3368 1271.84 19.1028 1272.51 18.48C1273.19 17.8551 1272.71 17.0812 1271.44 16.7515C1267.75 15.7851 1265.72 14.4564 1265.07 13.0675C1263.61 9.99256 1268.77 6.69552 1275.57 7.48622C1281.35 8.15944 1285 9.86028 1286.6 11.9056C1288.98 14.9746 1286.81 18.7563 1280.65 20.7701C1268.29 24.8026 1255.39 23.0524 1241.5 19.6704C1226.64 16.0516 1210.73 10.5375 1193.36 7.25622L1193.36 7.25819Z" fill="#4E0B11"/>
<path fill-rule="evenodd" clip-rule="evenodd" d="M1242.46 15.1782C1243.66 15.5701 1245.27 15.4112 1246.06 14.8218C1246.85 14.2335 1246.53 13.4408 1245.34 13.0499C1230.82 8.29193 1230.39 8.74009 1214.47 5.28018C1213.15 4.99489 1211.62 5.29005 1211.04 5.93563C1210.47 6.58221 1211.06 7.3344 1212.37 7.61969C1227.89 10.9937 1228.32 10.5446 1242.46 15.1782Z" fill="#4E0B11"/>
<path fill-rule="evenodd" clip-rule="evenodd" d="M1197.03 26.92C1195.72 26.6297 1194.19 26.92 1193.61 27.5655C1193.02 28.2082 1193.61 28.9643 1194.92 29.2496C1203.84 31.216 1207.41 33.3827 1207.62 35.5021C1207.76 36.9848 1206.22 38.3391 1204.2 39.3895C1202.12 40.4714 1199.49 41.2463 1197.3 41.4388C1194.12 41.7112 1191.45 41.5227 1189.33 41.0301C1185.97 40.2512 1184.01 38.7261 1183.69 37.3145C1183.52 36.5495 1183.81 35.815 1184.84 35.3491C1186.06 34.7983 1188.09 34.7065 1190.94 35.0974C1192.32 35.2879 1193.75 34.8911 1194.14 34.21C1194.52 33.5328 1193.72 32.829 1192.34 32.6355C1186.21 31.7954 1182.27 32.6789 1180.22 34.0816C1177.23 36.1132 1178.14 39.6974 1183.13 42.0103C1186.45 43.5404 1191.51 44.5305 1198.19 43.953C1201.27 43.6884 1205.05 42.6648 1207.97 41.1476C1210.95 39.5997 1213.01 37.5593 1212.8 35.3827C1212.54 32.6296 1208.63 29.4638 1197.03 26.917L1197.03 26.92Z" fill="#4E0B11"/>
<path fill-rule="evenodd" clip-rule="evenodd" d="M1173.77 44.5026C1172.65 44.0633 1171.01 44.1561 1170.12 44.7049C1169.23 45.2587 1169.41 46.0632 1170.53 46.5035C1171.17 46.7493 1181.75 52.0404 1201.75 51.3671C1214.66 50.9318 1224.07 46.1787 1226.4 45.084C1227.44 44.5964 1227.48 43.7869 1226.49 43.2775C1225.5 42.7672 1223.86 42.7455 1222.83 43.2331C1220.79 44.1916 1212.67 48.4343 1201.4 48.8183C1183.7 49.4126 1174.33 44.7286 1173.77 44.5046L1173.77 44.5026Z" fill="#4E0B11"/>
<path fill-rule="evenodd" clip-rule="evenodd" d="M1140.77 49.1299C1139.34 49.0637 1138.08 49.578 1137.94 50.2819C1137.81 50.9857 1138.86 51.6096 1140.28 51.6767C1154.16 52.3223 1161.7 54.8336 1168.88 57.1899C1176.73 59.7673 1184.18 62.163 1197.71 62.2726C1208.69 62.3575 1213.52 60.4879 1219.57 57.7663C1224.97 55.3301 1231.46 52.1545 1245.66 49.2928C1246.98 49.0243 1247.61 48.276 1247.07 47.6255C1246.53 46.97 1245.01 46.6591 1243.69 46.9266C1228.66 49.9561 1221.78 53.3025 1216.07 55.8789C1211 58.1612 1207 59.788 1197.8 59.713C1185.56 59.6172 1178.85 57.3962 1171.75 55.0655C1163.98 52.5108 1155.8 49.8278 1140.77 49.1299Z" fill="#4E0B11"/>
<path fill-rule="evenodd" clip-rule="evenodd" d="M1117.57 53.5845C1116.15 53.4917 1114.84 53.9852 1114.65 54.6831C1114.46 55.383 1115.46 56.0237 1116.88 56.1214C1136.66 57.4274 1149.45 61.5526 1160.71 65.1843C1172.76 69.0756 1183.21 72.3815 1197.76 71.7932C1214.12 71.1288 1221.72 67.8979 1230.36 63.8122C1238.4 60.0087 1247.41 55.4314 1266.58 51.7464C1267.92 51.4917 1268.58 50.7494 1268.06 50.093C1267.54 49.4375 1266.03 49.1078 1264.7 49.3684C1244.64 53.2192 1235.18 57.991 1226.77 61.9672C1218.95 65.665 1212.13 68.6462 1197.34 69.2493C1184.02 69.7903 1174.57 66.6058 1163.56 63.0481C1151.75 59.2358 1138.31 54.9576 1117.58 53.5854L1117.57 53.5845Z" fill="#4E0B11"/>
<path fill-rule="evenodd" clip-rule="evenodd" d="M1092.21 62.7303C1090.79 62.8053 1089.76 63.4341 1089.91 64.138C1090.07 64.8418 1091.35 65.3482 1092.77 65.2732C1119.55 63.831 1134.38 68.0618 1148.77 72.3717C1163.99 76.9322 1178.75 81.5619 1205.16 80.4889C1219.23 79.9223 1230.31 76.0172 1241.94 71.1358C1258.42 64.21 1276.16 55.2755 1306.97 52.2983C1308.38 52.162 1309.29 51.4888 1309.01 50.7988C1308.74 50.1078 1307.38 49.6557 1305.97 49.7919C1279.32 52.3634 1262.03 59.1756 1247.11 65.5427C1232.95 71.5899 1221.12 77.2787 1204.73 77.9441C1179.77 78.9549 1165.85 74.496 1151.46 70.1881C1136.24 65.6325 1120.53 61.2121 1092.21 62.7343L1092.21 62.7303Z" fill="#4E0B11"/>
<path fill-rule="evenodd" clip-rule="evenodd" d="M1274.25 62.2605C1272.89 62.4718 1272.13 63.1924 1272.56 63.8656C1273 64.5388 1274.46 64.913 1275.82 64.6968C1285.13 63.2407 1295.22 64.2476 1305.25 65.9188C1315.84 67.6809 1326.35 70.2109 1335.86 71.7143C1349.83 73.9255 1361.76 73.9482 1369.43 67.5328C1373.56 64.0847 1373.22 60.4708 1369.86 57.7799C1366.51 55.1028 1360.09 53.2865 1351.76 53.5145C1347.17 53.6428 1343.15 54.9399 1340.91 56.5361C1339.26 57.7187 1338.59 59.0592 1339.1 60.2428C1339.88 62.0858 1343.64 63.8962 1352.78 63.7471C1354.21 63.7205 1355.34 63.1272 1355.29 62.4234C1355.24 61.7196 1354.04 61.1658 1352.61 61.1924C1349.59 61.2408 1347.38 61.0602 1345.89 60.6781C1344.92 60.4323 1344.34 60.1066 1344.18 59.7157C1343.94 59.157 1344.41 58.5459 1345.18 57.9872C1346.6 56.9764 1349.14 56.1501 1352.05 56.0692C1358.18 55.9024 1362.98 57.1511 1365.44 59.1214C1367.9 61.0868 1367.98 63.7165 1364.97 66.2367C1358.72 71.4606 1348.83 71.0865 1337.45 69.284C1327.96 67.7796 1317.48 65.2604 1306.91 63.4974C1295.79 61.6465 1284.58 60.6475 1274.26 62.2625L1274.25 62.2605Z" fill="#4E0B11"/>
<path fill-rule="evenodd" clip-rule="evenodd" d="M1321.56 50.1939C1320.15 50.0843 1318.81 50.5582 1318.59 51.2541C1318.37 51.954 1319.34 52.6085 1320.75 52.719C1329.44 53.3922 1335.54 52.4298 1341.3 51.0123C1346.49 49.7369 1351.36 48.0528 1357.98 47.0805C1367.39 45.7005 1371.75 45.8801 1376.91 46.6057C1380.66 47.1328 1384.8 47.9077 1391.2 48.579C1392.6 48.729 1393.99 48.2838 1394.28 47.5987C1394.58 46.9087 1393.69 46.2276 1392.29 46.0825C1375.88 44.358 1374.01 42.0579 1356.5 44.6304C1350.89 45.4567 1346.44 46.7459 1342.07 47.9235C1336.2 49.5059 1330.49 50.8829 1321.56 50.1929L1321.56 50.1939Z" fill="#4E0B11"/>
<path fill-rule="evenodd" clip-rule="evenodd" d="M1329.6 40.3125C1328.4 40.6906 1328.04 41.4823 1328.81 42.0756C1329.59 42.6698 1331.2 42.8445 1332.4 42.4625C1343.17 39.0638 1344.06 39.126 1355.75 39.1832C1357.18 39.1921 1358.36 38.6245 1358.37 37.9168C1358.39 37.2129 1357.23 36.6325 1355.8 36.6285C1342.68 36.5624 1341.69 36.4963 1329.6 40.3125H1329.6Z" fill="#4E0B11"/>
<path fill-rule="evenodd" clip-rule="evenodd" d="M1258.61 71.973C1257.29 72.2494 1256.68 73.0026 1257.24 73.6491C1257.8 74.2997 1259.33 74.6037 1260.65 74.3263C1276.44 71.0066 1294.25 73.5267 1312.02 76.2177C1330.91 79.0754 1349.75 82.1405 1366.27 79.8019C1381.12 77.6993 1389.66 73.5494 1399.16 68.7125C1412.68 61.8213 1428.33 53.5372 1469.65 48.4495C1471.03 48.2788 1471.88 47.5828 1471.53 46.8977C1471.18 46.2117 1469.77 45.7991 1468.39 45.9698C1425.63 51.2382 1409.43 59.8036 1395.43 66.9356C1386.57 71.4468 1378.69 75.3885 1364.84 77.3489C1349.21 79.5601 1331.42 76.4822 1313.55 73.7735C1294.56 70.898 1275.49 68.4262 1258.61 71.9749L1258.61 71.973Z" fill="#4E0B11"/>
<path fill-rule="evenodd" clip-rule="evenodd" d="M1381.81 59.4455C1380.95 60.0082 1381.18 60.8137 1382.32 61.2352C1383.46 61.6616 1385.09 61.5521 1385.96 60.9894C1395.81 54.5612 1401.27 53.3608 1412.16 51.6629C1413.52 51.4517 1414.28 50.7311 1413.85 50.0578C1413.42 49.3846 1411.96 49.0164 1410.6 49.2277C1398.65 51.0874 1392.63 52.3934 1381.82 59.4455H1381.81Z" fill="#4E0B11"/>
<path fill-rule="evenodd" clip-rule="evenodd" d="M1324.9 61.7543C1326.2 62.0495 1327.74 61.7682 1328.34 61.1255C1328.94 60.4839 1328.36 59.7238 1327.06 59.4287C1316.66 57.0852 1316.59 57.2609 1304.91 56.3508C1303.5 56.2412 1302.17 56.715 1301.94 57.411C1301.72 58.1108 1302.69 58.7643 1304.1 58.8759C1315.07 59.7327 1315.14 59.553 1324.9 61.7563L1324.9 61.7543Z" fill="#4E0B11"/>
<path fill-rule="evenodd" clip-rule="evenodd" d="M1424.73 61.0236C1423.29 61.0414 1422.16 61.6307 1422.2 62.3345C1422.24 63.0423 1423.43 63.5961 1424.86 63.5783C1448.7 63.2792 1462.09 67.44 1474.69 71.2691C1488.13 75.3588 1500.74 79.0793 1522.77 77.4831C1535.89 76.5335 1544.68 73.2789 1553.96 70.1576C1566.93 65.8033 1581.02 61.8331 1611.69 66.1291C1613.07 66.3236 1614.51 65.9277 1614.9 65.2496C1615.29 64.5684 1614.49 63.8646 1613.11 63.6711C1580.13 59.0494 1564.98 63.3641 1551.04 68.0461C1542.38 70.9572 1534.26 74.0657 1522.02 74.9541C1501.56 76.4368 1489.89 72.892 1477.42 69.0925C1464.1 65.0482 1449.93 60.7077 1424.73 61.0236H1424.73Z" fill="#4E0B11"/>
<path fill-rule="evenodd" clip-rule="evenodd" d="M1550.41 11.3261C1551.84 11.26 1552.88 10.6351 1552.75 9.93128C1552.62 9.22746 1551.35 8.71315 1549.92 8.77929C1516.2 10.3538 1505.86 14.3201 1493.82 20.6081C1486.12 24.6416 1477.71 29.6839 1461.46 35.735C1443.6 42.3923 1421.37 41.8562 1412.05 40.1761C1401.94 38.3598 1396.32 36.0647 1390.56 33.8575C1381.36 30.3304 1371.85 26.9623 1345.41 25.7353C1343.98 25.6692 1342.72 26.1835 1342.58 26.8873C1342.45 27.5911 1343.5 28.215 1344.92 28.2821C1369.76 29.4341 1378.73 32.5604 1387.37 35.8762C1393.5 38.2236 1399.51 40.6421 1410.27 42.5778C1420.52 44.4208 1444.97 45.0881 1464.59 37.7754C1481.15 31.6019 1489.74 26.4698 1497.6 22.3633C1508.91 16.4484 1518.71 12.8029 1550.41 11.3261H1550.41Z" fill="#4E0B11"/>
<path fill-rule="evenodd" clip-rule="evenodd" d="M1404.89 11.1634C1406.32 11.2334 1407.59 10.7231 1407.74 10.0193C1407.88 9.32037 1406.84 8.69256 1405.42 8.62148C1358.9 6.2948 1341.05 15.3666 1324.94 24.6318C1309.76 33.3601 1296.29 42.3361 1259.02 40.8455C1256.55 40.7498 1250.77 40.1822 1247.58 39.6985C1237.74 38.2079 1238.31 37.7015 1223.71 33.5249C1222.47 33.1686 1220.89 33.3789 1220.17 33.9869C1219.45 34.598 1219.87 35.3808 1221.11 35.7371C1236.34 40.0993 1235.79 40.5879 1246.06 42.1446C1249.55 42.6767 1255.9 43.2877 1258.6 43.3973C1298.25 44.9797 1312.73 35.5841 1328.88 26.2962C1344.09 17.5452 1360.95 8.96994 1404.89 11.1653L1404.89 11.1634Z" fill="#4E0B11"/>
<path fill-rule="evenodd" clip-rule="evenodd" d="M1196.4 18.0281C1195.13 17.6984 1193.56 17.9403 1192.9 18.5651C1192.23 19.1851 1192.72 19.9639 1193.98 20.2897C1206.81 23.6183 1227.54 30.1433 1249.28 33.1876C1264.25 35.2793 1279.7 35.7206 1293.52 32.541C1303.54 30.237 1308.78 27.1631 1313.8 23.7585C1320.77 19.0311 1327.29 13.6226 1347.8 9.01954C1349.1 8.73031 1349.68 7.96923 1349.08 7.3266C1348.49 6.68398 1346.95 6.39869 1345.65 6.69385C1327.49 10.7687 1319.62 15.4261 1313.22 19.7754C1307.28 23.8128 1302.76 27.5945 1291.32 30.2242C1278.63 33.1432 1264.44 32.6516 1250.69 30.7247C1229.34 27.7386 1209.01 21.2966 1196.4 18.0301V18.0281Z" fill="#4E0B11"/>
<path fill-rule="evenodd" clip-rule="evenodd" d="M1302.08 13.0189C1301.17 13.5598 1301.32 14.3693 1302.42 14.8174C1303.52 15.2666 1305.16 15.1916 1306.07 14.6506C1316.81 8.27372 1317.19 8.33689 1331.06 5.69433C1332.4 5.43866 1333.06 4.69634 1332.55 4.04088C1332.03 3.38147 1330.53 3.05473 1329.19 3.30645C1314.15 6.17309 1313.72 6.10301 1302.08 13.0199V13.0189Z" fill="#4E0B11"/>
<path fill-rule="evenodd" clip-rule="evenodd" d="M1359 20.0022C1357.57 19.945 1356.33 20.4721 1356.21 21.1759C1356.1 21.8797 1357.17 22.4957 1358.6 22.547C1374.58 23.163 1384.64 26.1096 1393.79 28.9052C1403.64 31.9179 1412.53 34.7451 1425.78 34.8685C1442.12 35.0274 1448.37 32.8103 1457.58 28.6061C1466.17 24.6802 1477.54 18.9016 1503.88 11.6599C1505.13 11.3164 1505.59 10.5336 1504.89 9.91861C1504.18 9.30264 1502.6 9.08251 1501.35 9.42505C1474.44 16.8207 1462.83 22.7188 1454.05 26.7286C1445.89 30.4629 1440.37 32.4539 1425.88 32.3138C1413.69 32.1983 1405.58 29.5034 1396.52 26.7325C1386.77 23.7523 1376.03 20.6547 1359 20.0012L1359 20.0022Z" fill="#4E0B11"/>
<path fill-rule="evenodd" clip-rule="evenodd" d="M1376.16 15.0982C1374.73 15.0854 1373.55 15.6431 1373.52 16.3509C1373.5 17.0547 1374.64 17.6401 1376.07 17.6529C1392.41 17.803 1404.12 21.4218 1414.64 23.7692C1426.35 26.3861 1436.68 27.5687 1449.41 22.2875C1464.92 15.8494 1451.79 3.25554 1430.97 4.59706C1420.81 5.25252 1415.25 9.82493 1417.63 13.5415C1419.17 15.9422 1424.04 18.1712 1433.74 18.6065C1435.17 18.6726 1436.43 18.1544 1436.56 17.4506C1436.69 16.7467 1435.64 16.1268 1434.21 16.0617C1427.4 15.7586 1423.66 14.4566 1422.58 12.7725C1421.03 10.3629 1425.06 7.55748 1431.64 7.13498C1447.33 6.11922 1457.76 15.4822 1446.06 20.332C1435.35 24.7781 1426.63 23.6429 1416.78 21.4406C1405.72 18.9737 1393.35 15.2571 1376.16 15.1002V15.0982Z" fill="#4E0B11"/>
</svg>
