<svg xmlns="http://www.w3.org/2000/svg" width="776" height="766" viewBox="0 0 582 574.5"><defs><clipPath id="a"><path d="M.254 104h581.492v26H.254Zm0 0"/></clipPath></defs><path d="M52.559 128.516h30.683v1.289H52.56Zm0 0"/><path fill="#a0562e" d="M79.504 142.953v1.547c0 .387.129.773.258 1.16.258 1.031 1.16 1.934 2.191 2.45.902.515 1.547 1.417 1.547 2.577v7.735H53.719v-7.734c0-.774.386-1.547.902-2.063.258-.258.387-.387.645-.516 1.03-.515 1.804-1.289 2.191-2.449.129-.387.129-.773.258-1.16v-1.547c0-.387-.13-.773-.258-1.16-.258-1.031-1.16-1.934-2.191-2.45-.258-.128-.516-.257-.645-.515-.516-.516-.902-1.289-.902-2.062v-7.735H83.5v7.735c0 1.16-.645 2.062-1.547 2.578-1.031.515-1.805 1.289-2.191 2.449-.13.258-.258.773-.258 1.16m0 0"/><path d="M84.145 158.938h-31.07v-8.25c0-.903.386-1.805 1.03-2.45.258-.258.516-.515.903-.644.644-.387 1.547-1.031 1.804-1.934.13-.387.13-.644.258-1.031v-1.418c0-.258-.129-.645-.258-1.031-.257-1.032-1.16-1.676-1.804-1.934a4 4 0 0 1-.903-.644 3.52 3.52 0 0 1-1.03-2.45v-8.636h31.07v8.25c0 1.289-.774 2.578-1.934 3.093-.645.387-1.547 1.032-1.805 2.063-.129.387-.129.773-.258 1.031v1.547c0 .258.13.645.258 1.031.258 1.031 1.16 1.676 1.805 2.063 1.16.644 1.934 1.804 1.934 3.094Zm-29.782-1.29h28.492v-6.96c0-.774-.515-1.547-1.16-1.934-.902-.516-2.062-1.29-2.449-2.836-.129-.387-.258-.902-.258-1.29v-1.675c0-.387.13-.773.258-1.289.387-1.418 1.547-2.32 2.45-2.836.773-.387 1.16-1.16 1.16-1.933v-7.09H54.362v6.96c0 .645.258 1.16.645 1.548.129.128.387.257.515.386 1.29.645 2.192 1.676 2.45 2.836.129.387.257.774.257 1.29v1.675c0 .516-.128.902-.257 1.29-.387 1.16-1.16 2.19-2.45 2.835a1.8 1.8 0 0 0-.515.387c-.387.386-.645 1.031-.645 1.547Zm0 0"/><path fill="#a0562e" d="M53.46 224.934h30.17v7.218H53.46Zm0 0"/><path d="M84.273 232.797H52.816v-8.508h31.457Zm-30.168-1.29h28.88v-5.929h-28.88Zm0 0"/><path fill="#a0562e" d="M81.438 256.516H55.78c-1.289 0-2.191 1.03-2.191 2.191 0 1.29 1.031 2.191 2.191 2.191h25.657c1.289 0 2.19-1.03 2.19-2.191s-1.03-2.191-2.19-2.191m0 0"/><path d="M81.438 261.672H55.78c-1.547 0-2.836-1.29-2.836-2.836 0-1.547 1.29-2.836 2.836-2.836h25.657c1.546 0 2.835 1.29 2.835 2.836 0 1.547-1.289 2.836-2.835 2.836M55.78 257.16c-.902 0-1.547.774-1.547 1.547s.774 1.547 1.547 1.547h25.657c.902 0 1.546-.774 1.546-1.547s-.773-1.547-1.546-1.547Zm0 0"/><path fill="#a0562e" d="M55.781 261.027h25.657v95.387H55.78Zm0 0"/><path d="M82.082 357.059H55.137v-96.676h26.945Zm-25.656-1.29h24.367v-94.097H56.426Zm0 0"/><path fill="#a0562e" d="M81.438 363.89H55.78a2.31 2.31 0 0 1-2.32-2.32 2.31 2.31 0 0 1 2.32-2.32h25.657a2.31 2.31 0 0 1 2.32 2.32c-.13 1.29-1.16 2.32-2.32 2.32m0 0"/><path d="M81.438 364.535H55.78c-1.547 0-2.965-1.289-2.965-2.965s1.29-2.965 2.965-2.965h25.657c1.546 0 2.964 1.29 2.964 2.965 0 1.676-1.418 2.965-2.965 2.965m-25.657-4.512c-.902 0-1.676.774-1.676 1.676 0 .903.774 1.676 1.676 1.676h25.657c.902 0 1.675-.773 1.675-1.676s-.773-1.676-1.675-1.676Zm0 0"/><path fill="#a0562e" d="M79.633 377.813H57.586c-2.191 0-3.996-1.805-3.996-3.997 0-2.191 1.805-3.996 3.996-3.996h22.047c2.191 0 3.996 1.805 3.996 3.996 0 2.192-1.805 3.997-3.996 3.997m0 0"/><path d="M79.633 378.457H57.586a4.62 4.62 0 0 1-4.64-4.64 4.62 4.62 0 0 1 4.64-4.641h22.047a4.62 4.62 0 0 1 4.64 4.64 4.62 4.62 0 0 1-4.64 4.641m-22.047-8.121c-1.934 0-3.352 1.547-3.352 3.351s1.547 3.352 3.352 3.352h22.047c1.933 0 3.351-1.547 3.351-3.351s-1.546-3.352-3.351-3.352Zm0 0"/><path fill="#a0562e" d="M82.21 356.414H55.009a1.43 1.43 0 0 0-1.418 1.418 1.43 1.43 0 0 0 1.418 1.418H82.21a1.43 1.43 0 0 0 1.418-1.418 1.43 1.43 0 0 0-1.418-1.418m0 0"/><path d="M82.21 360.023H55.009a2.036 2.036 0 0 1-2.063-2.062c0-1.16.903-2.063 2.063-2.063H82.21c1.16 0 2.062.903 2.062 2.063s-.902 2.062-2.062 2.062m-27.202-2.964c-.516 0-.774.386-.774.773s.387.773.774.773H82.21c.516 0 .773-.386.773-.773s-.386-.773-.773-.773Zm0 0"/><path fill="#a0562e" d="M82.21 377.813H55.009a1.43 1.43 0 0 0-1.418 1.417 1.43 1.43 0 0 0 1.418 1.418H82.21a1.43 1.43 0 0 0 1.418-1.418 1.43 1.43 0 0 0-1.418-1.418m0 0"/><path d="M82.21 381.422H55.009a2.036 2.036 0 0 1-2.063-2.063c0-1.16.903-2.062 2.063-2.062H82.21c1.16 0 2.062.902 2.062 2.062s-.902 2.063-2.062 2.063m-27.202-2.965c-.516 0-.774.387-.774.773 0 .516.387.774.774.774H82.21c.516 0 .773-.387.773-.774 0-.515-.386-.773-.773-.773Zm0 0"/><path fill="#a0562e" d="M58.488 363.89h20.114v5.801H58.488Zm0 0"/><path d="M79.375 370.336H57.844v-7.09h21.402v7.09Zm-20.242-1.29h18.824v-4.51H59.133Zm0 0"/><path fill="#a0562e" d="M81.438 239.629H55.78a2.31 2.31 0 0 1-2.32-2.32 2.31 2.31 0 0 1 2.32-2.32h25.657a2.31 2.31 0 0 1 2.32 2.32c-.13 1.289-1.16 2.32-2.32 2.32m0 0"/><path d="M81.438 240.273H55.78c-1.547 0-2.965-1.289-2.965-2.964s1.29-2.965 2.965-2.965h25.657c1.546 0 2.964 1.289 2.964 2.965s-1.418 2.964-2.965 2.964m-25.657-4.511c-.902 0-1.676.773-1.676 1.675 0 .903.774 1.676 1.676 1.676h25.657c.902 0 1.675-.773 1.675-1.675 0-.903-.773-1.676-1.675-1.676Zm0 0"/><path fill="#a0562e" d="M79.633 253.55H57.586c-2.191 0-3.996-1.804-3.996-3.995 0-2.192 1.805-3.996 3.996-3.996h22.047c2.191 0 3.996 1.804 3.996 3.996 0 2.191-1.805 3.996-3.996 3.996m0 0"/><path d="M79.633 254.195H57.586a4.62 4.62 0 0 1-4.64-4.64 4.62 4.62 0 0 1 4.64-4.64h22.047a4.62 4.62 0 0 1 4.64 4.64 4.62 4.62 0 0 1-4.64 4.64m-22.047-8.12c-1.934 0-3.352 1.546-3.352 3.35s1.547 3.352 3.352 3.352h22.047c1.933 0 3.351-1.547 3.351-3.351s-1.546-3.352-3.351-3.352Zm0 0"/><path fill="#a0562e" d="M82.21 232.152H55.009a1.43 1.43 0 0 0-1.418 1.418 1.43 1.43 0 0 0 1.418 1.418H82.21a1.43 1.43 0 0 0 1.418-1.418c0-.644-.645-1.418-1.418-1.418m0 0"/><path d="M82.21 235.762H55.009a2.036 2.036 0 0 1-2.063-2.063c0-1.16.903-2.062 2.063-2.062H82.21c1.16 0 2.062.902 2.062 2.062s-.902 2.063-2.062 2.063m-27.202-2.965c-.516 0-.774.387-.774.773 0 .387.387.774.774.774H82.21c.516 0 .773-.387.773-.774 0-.386-.386-.773-.773-.773Zm0 0"/><path fill="#a0562e" d="M82.21 253.55H55.009a1.43 1.43 0 0 0-1.418 1.419 1.43 1.43 0 0 0 1.418 1.418H82.21a1.43 1.43 0 0 0 1.418-1.418 1.43 1.43 0 0 0-1.418-1.418m0 0"/><path d="M82.21 257.16H55.009a2.036 2.036 0 0 1-2.063-2.062c0-1.16.903-2.063 2.063-2.063H82.21c1.16 0 2.062.903 2.062 2.063s-.902 2.062-2.062 2.062m-27.202-2.965c-.516 0-.774.387-.774.774 0 .386.387.773.774.773H82.21c.516 0 .773-.387.773-.773 0-.387-.386-.774-.773-.774Zm0 0"/><path fill="#a0562e" d="M58.488 239.629h20.114v5.8H58.488Zm0 0"/><path d="M79.375 246.074H57.844v-7.09h21.402v7.09Zm-20.242-1.289h18.824v-4.512H59.133Zm0 0"/><path fill="#a0562e" d="M58.488 380.777c0 7.09-5.027 11.473-5.027 16.371 0 8.122 5.027 8.637 5.027 8.637"/><path d="M58.488 406.43s-5.543-.645-5.543-9.282c0-2.32 1.032-4.64 2.192-6.96 1.418-2.836 2.707-5.672 2.707-9.41h1.289c0 3.995-1.547 7.218-2.836 9.925-1.16 2.32-2.063 4.254-2.063 6.317 0 7.476 4.383 7.992 4.383 7.992Zm0 0"/><path fill="#a0562e" d="M58.488 380.777c0 7.09-5.027 11.473-5.027 16.371 0 8.122 5.027 8.637 5.027 8.637"/><path d="M58.488 406.43s-5.543-.645-5.543-9.282c0-2.32 1.032-4.64 2.192-6.96 1.418-2.836 2.707-5.672 2.707-9.41h1.289c0 3.995-1.547 7.218-2.836 9.925-1.16 2.32-2.063 4.254-2.063 6.317 0 7.476 4.383 7.992 4.383 7.992Zm0 0"/><path fill="#a0562e" d="M78.73 380.777c0 7.09 5.028 11.473 5.028 16.371 0 8.122-5.028 8.637-5.028 8.637"/><path d="m78.73 406.43-.128-1.29c.128 0 4.382-.515 4.382-7.992 0-2.062-1.03-4.125-2.062-6.316-1.418-2.836-2.836-5.93-2.836-9.926h1.289c0 3.739 1.418 6.574 2.707 9.41 1.16 2.32 2.191 4.512 2.191 6.961 0 8.508-5.543 9.153-5.543 9.153m0 0"/><path fill="#a0562e" d="M81.309 410.426H55.91a2.31 2.31 0 0 1-2.32-2.32 2.31 2.31 0 0 1 2.32-2.32h25.528a2.31 2.31 0 0 1 2.32 2.32c-.13 1.289-1.16 2.32-2.45 2.32m0 0"/><path d="M81.309 411.07H55.91c-1.676 0-2.965-1.289-2.965-2.965s1.29-2.964 2.965-2.964h25.528c1.675 0 2.964 1.289 2.964 2.964s-1.418 2.965-3.093 2.965m-25.399-4.64c-.902 0-1.676.773-1.676 1.675 0 .903.774 1.676 1.676 1.676h25.528c.902 0 1.675-.773 1.675-1.676s-.773-1.675-1.675-1.675Zm0 0"/><path fill="#a0562e" d="M81.309 418.285H55.91a2.31 2.31 0 0 1-2.32-2.32 2.31 2.31 0 0 1 2.32-2.32h25.528a2.31 2.31 0 0 1 2.32 2.32c-.13 1.289-1.16 2.32-2.45 2.32m0 0"/><path d="M81.309 418.93H55.91c-1.676 0-2.965-1.29-2.965-2.965 0-1.676 1.29-2.965 2.965-2.965h25.528c1.675 0 2.964 1.29 2.964 2.965 0 1.676-1.418 2.965-3.093 2.965m-25.399-4.64c-.902 0-1.676.772-1.676 1.675 0 .902.774 1.676 1.676 1.676h25.528c.902 0 1.675-.774 1.675-1.676s-.773-1.676-1.675-1.676Zm0 0"/><path fill="#a0562e" d="M82.984 413.645h-28.75c-.902 0-1.547-.645-1.547-1.547v-.13c0-.902.645-1.546 1.547-1.546h28.75c.903 0 1.547.644 1.547 1.547v.129c0 .902-.773 1.547-1.547 1.547m0 0"/><path d="M82.984 414.29h-28.75c-1.16 0-2.191-1.032-2.191-2.192 0-1.29 1.031-2.317 2.191-2.317h28.75c1.16 0 2.192 1.028 2.192 2.188 0 1.289-1.031 2.32-2.192 2.32m-28.75-3.22a.88.88 0 0 0-.902.899c0 .644.387 1.031.902 1.031h28.75a.88.88 0 0 0 .903-.902c0-.645-.387-1.028-.903-1.028Zm0 0"/><path fill="#a0562e" d="M55.781 418.285h25.657v12.633H55.78Zm0 0"/><path d="M82.082 431.563H55.137V417.64h26.945Zm-25.656-1.29h24.367V418.93H56.426Zm0 0"/><path fill="#a0562e" d="M89.043 546.93H48.047V434.914c0-2.191 1.676-3.867 3.867-3.867h33.262c2.191 0 3.867 1.676 3.867 3.867Zm0 0"/><path d="M89.688 547.574H47.402v-112.66c0-2.45 2.063-4.512 4.512-4.512h33.262c2.449 0 4.511 2.063 4.511 4.512Zm-40.997-1.289h39.707v-111.37a3.19 3.19 0 0 0-3.222-3.224H51.914a3.19 3.19 0 0 0-3.223 3.223Zm3.868-417.769h30.683v1.289H52.56Zm0 0"/><path fill="#a0562e" d="M85.176 224.934H51.914c-2.191 0-3.867-1.676-3.867-3.868V162.16c0-2.191 1.676-3.867 3.867-3.867h33.262c2.191 0 3.867 1.676 3.867 3.867v58.906c0 2.192-1.676 3.868-3.867 3.868m0 0"/><path d="M85.176 225.578H51.914c-2.45 0-4.512-2.062-4.512-4.512v-59.035c0-2.449 2.063-4.511 4.512-4.511h33.262c2.449 0 4.511 2.062 4.511 4.511v59.035c0 2.45-1.933 4.512-4.511 4.512m-33.262-66.64a3.19 3.19 0 0 0-3.223 3.222v59.035a3.19 3.19 0 0 0 3.223 3.223h33.262a3.19 3.19 0 0 0 3.222-3.223V162.16a3.19 3.19 0 0 0-3.222-3.222Zm0 0"/><path fill="#a0562e" d="M53.46 224.934h30.17v7.218H53.46Zm0 0"/><path d="M84.273 232.797H52.816v-8.508h31.457Zm-30.168-1.29h28.88v-5.929h-28.88Zm0 0"/><path fill="#a0562e" d="M81.438 256.516H55.78c-1.289 0-2.191 1.03-2.191 2.191 0 1.29 1.031 2.191 2.191 2.191h25.657c1.289 0 2.19-1.03 2.19-2.191s-1.03-2.191-2.19-2.191m0 0"/><path d="M81.438 261.672H55.78c-1.547 0-2.836-1.29-2.836-2.836 0-1.547 1.29-2.836 2.836-2.836h25.657c1.546 0 2.835 1.29 2.835 2.836 0 1.547-1.289 2.836-2.835 2.836M55.78 257.16c-.902 0-1.547.774-1.547 1.547s.774 1.547 1.547 1.547h25.657c.902 0 1.546-.774 1.546-1.547s-.773-1.547-1.546-1.547Zm0 0"/><path fill="#a0562e" d="M55.781 261.027h25.657v95.387H55.78Zm0 0"/><path d="M82.082 357.059H55.137v-96.676h26.945Zm-25.656-1.29h24.367v-94.097H56.426Zm0 0"/><path fill="#a0562e" d="M81.438 363.89H55.78a2.31 2.31 0 0 1-2.32-2.32 2.31 2.31 0 0 1 2.32-2.32h25.657a2.31 2.31 0 0 1 2.32 2.32c-.13 1.29-1.16 2.32-2.32 2.32m0 0"/><path d="M81.438 364.535H55.78c-1.547 0-2.965-1.289-2.965-2.965s1.29-2.965 2.965-2.965h25.657c1.546 0 2.964 1.29 2.964 2.965 0 1.676-1.418 2.965-2.965 2.965m-25.657-4.512c-.902 0-1.676.774-1.676 1.676 0 .903.774 1.676 1.676 1.676h25.657c.902 0 1.675-.773 1.675-1.676s-.773-1.676-1.675-1.676Zm0 0"/><path fill="#a0562e" d="M79.633 377.813H57.586c-2.191 0-3.996-1.805-3.996-3.997 0-2.191 1.805-3.996 3.996-3.996h22.047c2.191 0 3.996 1.805 3.996 3.996 0 2.192-1.805 3.997-3.996 3.997m0 0"/><path d="M79.633 378.457H57.586a4.62 4.62 0 0 1-4.64-4.64 4.62 4.62 0 0 1 4.64-4.641h22.047a4.62 4.62 0 0 1 4.64 4.64 4.62 4.62 0 0 1-4.64 4.641m-22.047-8.121c-1.934 0-3.352 1.547-3.352 3.351s1.547 3.352 3.352 3.352h22.047c1.933 0 3.351-1.547 3.351-3.351s-1.546-3.352-3.351-3.352Zm0 0"/><path fill="#a0562e" d="M82.21 356.414H55.009a1.43 1.43 0 0 0-1.418 1.418 1.43 1.43 0 0 0 1.418 1.418H82.21a1.43 1.43 0 0 0 1.418-1.418 1.43 1.43 0 0 0-1.418-1.418m0 0"/><path d="M82.21 360.023H55.009a2.036 2.036 0 0 1-2.063-2.062c0-1.16.903-2.063 2.063-2.063H82.21c1.16 0 2.062.903 2.062 2.063s-.902 2.062-2.062 2.062m-27.202-2.964c-.516 0-.774.386-.774.773s.387.773.774.773H82.21c.516 0 .773-.386.773-.773s-.386-.773-.773-.773Zm0 0"/><path fill="#a0562e" d="M83.629 379.23a1.43 1.43 0 0 1-1.418 1.418H55.008c-.774 0-1.547-.644-1.547-1.418s.644-1.418 1.547-1.418H82.21a1.43 1.43 0 0 1 1.418 1.418m0 0"/><path d="M82.21 381.422H55.009c-1.16 0-2.192-.902-2.192-2.063 0-1.16.903-2.191 2.192-2.191H82.21c1.16 0 2.062.902 2.062 2.191 0 1.032-.902 2.063-2.062 2.063m-27.202-2.965a.88.88 0 0 0-.903.902c0 .516.387.774.903.774H82.21c.516 0 .773-.387.773-.774 0-.386-.386-.902-.773-.902Zm0 0"/><path fill="#a0562e" d="M58.488 363.89h20.114v5.801H58.488Zm0 0"/><path d="M79.375 370.336H57.844v-7.09h21.402v7.09Zm-20.242-1.29h18.824v-4.51H59.133Zm0 0"/><path fill="#a0562e" d="M81.438 239.629H55.78a2.31 2.31 0 0 1-2.32-2.32 2.31 2.31 0 0 1 2.32-2.32h25.657a2.31 2.31 0 0 1 2.32 2.32c-.13 1.289-1.16 2.32-2.32 2.32m0 0"/><path d="M81.438 240.273H55.78c-1.547 0-2.965-1.289-2.965-2.964s1.29-2.965 2.965-2.965h25.657c1.546 0 2.964 1.289 2.964 2.965s-1.418 2.964-2.965 2.964m-25.657-4.511c-.902 0-1.676.773-1.676 1.675 0 .903.774 1.676 1.676 1.676h25.657c.902 0 1.675-.773 1.675-1.675 0-.903-.773-1.676-1.675-1.676Zm0 0"/><path fill="#a0562e" d="M79.633 253.55H57.586c-2.191 0-3.996-1.804-3.996-3.995 0-2.192 1.805-3.996 3.996-3.996h22.047c2.191 0 3.996 1.804 3.996 3.996 0 2.191-1.805 3.996-3.996 3.996m0 0"/><path d="M79.633 254.195H57.586a4.62 4.62 0 0 1-4.64-4.64 4.62 4.62 0 0 1 4.64-4.64h22.047a4.62 4.62 0 0 1 4.64 4.64 4.62 4.62 0 0 1-4.64 4.64m-22.047-8.12c-1.934 0-3.352 1.546-3.352 3.35s1.547 3.352 3.352 3.352h22.047c1.933 0 3.351-1.547 3.351-3.351s-1.546-3.352-3.351-3.352Zm0 0"/><path fill="#a0562e" d="M82.21 232.152H55.009a1.43 1.43 0 0 0-1.418 1.418 1.43 1.43 0 0 0 1.418 1.418H82.21a1.43 1.43 0 0 0 1.418-1.418c0-.644-.645-1.418-1.418-1.418m0 0"/><path d="M82.21 235.762H55.009a2.036 2.036 0 0 1-2.063-2.063c0-1.16.903-2.062 2.063-2.062H82.21c1.16 0 2.062.902 2.062 2.062s-.902 2.063-2.062 2.063m-27.202-2.965c-.516 0-.774.387-.774.773 0 .387.387.774.774.774H82.21c.516 0 .773-.387.773-.774 0-.386-.386-.773-.773-.773Zm0 0"/><path fill="#a0562e" d="M82.21 253.55H55.009a1.43 1.43 0 0 0-1.418 1.419 1.43 1.43 0 0 0 1.418 1.418H82.21a1.43 1.43 0 0 0 1.418-1.418 1.43 1.43 0 0 0-1.418-1.418m0 0"/><path d="M82.21 257.16H55.009a2.036 2.036 0 0 1-2.063-2.062c0-1.16.903-2.063 2.063-2.063H82.21c1.16 0 2.062.903 2.062 2.063s-.902 2.062-2.062 2.062m-27.202-2.965c-.516 0-.774.387-.774.774 0 .386.387.773.774.773H82.21c.516 0 .773-.387.773-.773 0-.387-.386-.774-.773-.774Zm0 0"/><path fill="#a0562e" d="M58.488 239.629h20.114v5.8H58.488Zm0 0"/><path d="M79.375 246.074H57.844v-7.09h21.402v7.09Zm-20.242-1.289h18.824v-4.512H59.133Zm0 0"/><path fill="#a0562e" d="M83.629 397.148c0 8.122-5.027 8.637-5.027 8.637H58.488s-5.027-.515-5.027-8.637c0-4.898 5.027-9.28 5.027-16.37h20.114c0 7.09 5.027 11.472 5.027 16.37m0 0"/><path d="M58.488 406.43c-.129 0-5.672-.645-5.672-9.282 0-2.32 1.032-4.64 2.192-6.96 1.418-2.836 2.836-5.672 2.836-9.41v-.645h21.402v.644c0 3.739 1.418 6.575 2.836 9.41 1.16 2.32 2.191 4.512 2.191 6.961 0 8.637-5.543 9.282-5.543 9.282Zm.645-25.008c-.13 3.738-1.547 6.703-2.836 9.41-1.16 2.32-2.063 4.254-2.063 6.316 0 7.348 4.254 7.993 4.383 7.993H78.73c.13 0 4.383-.516 4.383-7.993 0-2.062-1.031-4.125-2.062-6.316-1.29-2.707-2.707-5.672-2.836-9.41Zm0 0"/><path fill="#a0562e" d="M83.629 408.105a2.307 2.307 0 0 1-2.32 2.317H55.78a2.307 2.307 0 0 1-2.32-2.317 2.31 2.31 0 0 1 2.32-2.32h25.53a2.31 2.31 0 0 1 2.32 2.32m0 0"/><path d="M81.309 411.07H55.78c-1.676 0-2.965-1.289-2.965-2.965s1.29-2.964 2.965-2.964h25.53c1.675 0 2.964 1.289 2.964 2.964s-1.289 2.965-2.964 2.965m-25.399-4.64c-.902 0-1.676.773-1.676 1.675 0 .903.774 1.676 1.676 1.676h25.528c.902 0 1.675-.773 1.675-1.676s-.773-1.675-1.675-1.675Zm0 0"/><path fill="#a0562e" d="M81.309 418.285H55.91a2.31 2.31 0 0 1-2.32-2.32 2.31 2.31 0 0 1 2.32-2.32h25.528a2.31 2.31 0 0 1 2.32 2.32c-.13 1.289-1.16 2.32-2.45 2.32m0 0"/><path d="M81.309 418.93H55.91c-1.676 0-2.965-1.29-2.965-2.965 0-1.676 1.29-2.965 2.965-2.965h25.528c1.675 0 2.964 1.29 2.964 2.965 0 1.676-1.418 2.965-3.093 2.965m-25.399-4.64c-.902 0-1.676.772-1.676 1.675 0 .902.774 1.676 1.676 1.676h25.528c.902 0 1.675-.774 1.675-1.676s-.773-1.676-1.675-1.676Zm0 0"/><path fill="#a0562e" d="M82.984 413.645h-28.75c-.902 0-1.547-.645-1.547-1.547v-.13c0-.902.645-1.546 1.547-1.546h28.75c.903 0 1.547.644 1.547 1.547v.129c0 .902-.773 1.547-1.547 1.547m0 0"/><path d="M82.984 414.29h-28.75c-1.16 0-2.191-1.032-2.191-2.192 0-1.29 1.031-2.317 2.191-2.317h28.75c1.16 0 2.192 1.028 2.192 2.188 0 1.289-1.031 2.32-2.192 2.32m-28.75-3.22a.88.88 0 0 0-.902.899c0 .644.387 1.031.902 1.031h28.75a.88.88 0 0 0 .903-.902c0-.645-.387-1.028-.903-1.028Zm0 0"/><path fill="#a0562e" d="M55.781 418.285h25.657v12.633H55.78Zm0 0"/><path d="M82.082 431.563H55.137V417.64h26.945Zm-25.656-1.29h24.367V418.93H56.426Zm0 0"/><path fill="#a0562e" d="M89.043 546.93H48.047V434.914c0-2.191 1.676-3.867 3.867-3.867h33.262c2.191 0 3.867 1.676 3.867 3.867Zm0 0"/><path d="M89.688 547.574H47.402v-112.66c0-2.45 2.063-4.512 4.512-4.512h33.262c2.449 0 4.511 2.063 4.511 4.512Zm-40.997-1.289h39.707v-111.37a3.19 3.19 0 0 0-3.222-3.224H51.914a3.19 3.19 0 0 0-3.223 3.223Zm0 0"/><path fill="#a0562e" d="M104.902 560.078H32.188c0-7.348 5.933-13.277 13.152-13.277h46.28c7.48.129 13.281 6.058 13.281 13.277m0 0"/><path d="M105.547 560.723H31.543v-.645c0-7.605 6.191-13.922 13.926-13.922H91.75c7.61 0 13.926 6.188 13.926 13.922v.645Zm-72.715-1.29h71.426c-.387-6.574-5.801-11.988-12.508-11.988H45.469c-6.703.13-12.25 5.414-12.637 11.989m0 0"/><path fill="#a0562e" d="M117.406 573.355H19.684v-.386c0-7.09 5.8-12.89 12.89-12.89h72.07c7.09 0 12.891 5.8 12.891 12.89v.386Zm0 0"/><path d="M118.05 574H19.04v-1.031c0-7.477 6.058-13.535 13.534-13.535h72.07c7.477 0 13.536 6.058 13.536 13.535V574Zm-97.722-1.29h96.434c-.13-6.573-5.543-11.987-12.246-11.987H32.574c-6.703 0-12.117 5.285-12.246 11.988m0 0"/><path fill="#a0562e" d="M546.715 104.668H35.156S32.832 95.516 46.5 89.07c0 0-11.988-7.218-11.988-23.203 0-15.851 23.847-27.969 48.086-8.375 0 0 8.636-37.512 39.965-18.562 1.289 1.03 8.124-.387 9.671-2.063 0 0 2.32.645 1.934 4.383 0 0 6.832-5.8 9.281-3.738 0 0-.773-3.739 2.192-5.285 0 0 7.347 5.671 15.468-.774 8.125-6.445 18.309-21.012 44.48-21.012 26.173 0 42.157 24.75 42.157 24.75S257.286.773 290.934.773c33.652 0 43.191 34.418 43.191 34.418s15.855-24.75 42.156-24.75c26.172 0 36.356 14.567 44.48 21.012 8.122 6.445 15.47.774 15.47.774 2.964 1.675 2.19 5.285 2.19 5.285 2.321-2.063 9.282 3.738 9.282 3.738-.387-3.738 1.934-4.383 1.934-4.383 1.547 1.676 8.383 3.094 9.672 2.063 31.328-19.078 39.964 18.562 39.964 18.562 24.368-19.594 48.086-7.605 48.086 8.375 0 15.856-11.988 23.203-11.988 23.203 13.668 6.446 11.344 15.598 11.344 15.598m0 0"/><path d="M547.23 105.313H34.64l-.128-.516c-.13-.387-2.196-9.281 10.699-15.856-2.836-2.191-11.348-9.668-11.348-23.074 0-6.832 4.387-13.273 11.477-16.625 10.828-5.156 24.625-2.449 37 7.219 1.031-3.738 5.414-17.273 16.375-21.914 6.96-2.965 15.082-1.676 24.363 3.996 1.031.902 7.348-.387 8.77-1.934l.257-.257.387.128c.903.258 2.32 1.29 2.45 3.61 1.804-1.418 5.413-3.867 7.863-3.48 0-1.547.515-3.739 2.707-4.9l.386-.257.387.258c.258.258 6.961 5.285 14.695-.773 1.418-1.16 2.97-2.45 4.516-3.997 7.863-7.218 18.434-17.144 40.352-17.144 23.078 0 38.418 19.078 41.898 23.848C249.937 27.328 261.156 0 291.196 0c30.034 0 41.253 27.328 43.445 33.645 3.48-4.77 18.82-23.848 41.898-23.848 21.918 0 32.617 9.926 40.352 17.144 1.546 1.418 3.097 2.836 4.515 3.997 7.735 6.058 14.567.773 14.696.773l.386-.258.387.258c2.063 1.16 2.707 3.223 2.707 4.898 2.45-.386 6.059 2.063 7.863 3.48.258-2.964 2.32-3.609 2.45-3.609l.386-.128.258.257c1.418 1.547 7.738 2.836 8.77 1.934 9.28-5.672 17.402-6.961 24.363-3.996 10.96 4.64 15.344 18.047 16.375 21.914 12.375-9.668 26.172-12.375 37-7.219 7.09 3.352 11.473 9.793 11.473 16.625 0 13.406-8.508 20.883-11.344 23.074 12.894 6.575 10.699 15.47 10.699 15.856Zm-511.558-1.29h510.527c.258-1.933.258-9.023-10.957-14.437l-1.031-.516 1.031-.644c.13-.13 11.73-7.348 11.73-22.688 0-6.316-4.124-12.242-10.699-15.465-10.57-5.027-24.238-2.191-36.355 7.606l-.773.644-.258-1.03c0-.13-3.996-17.016-15.86-22.044-6.574-2.707-14.308-1.418-23.074 3.867-1.547 1.29-7.996-.129-10.058-1.804-.516.258-1.418 1.16-1.16 3.48l.128 1.547-1.289-1.031c-2.707-2.32-7.09-4.899-8.379-3.738l-1.418 1.289.387-1.934c0-.129.516-2.965-1.547-4.383-1.676 1.031-8.508 4.899-15.855-1.031-1.422-1.16-2.969-2.578-4.645-3.996-7.605-7.09-18.176-16.758-39.449-16.758-25.527 0-41.383 24.106-41.512 24.363l-.773 1.16-.387-1.417c-.129-.387-9.797-33.903-42.676-33.903-32.746 0-42.543 33.645-42.672 33.903l-.386 1.417-.774-1.16c-.129-.258-15.984-24.363-41.511-24.363-21.403 0-31.844 9.668-39.45 16.758-1.675 1.547-3.093 2.965-4.644 3.996-7.477 5.8-14.309 2.062-15.856 1.031-2.191 1.418-1.547 4.254-1.547 4.383l.387 1.934-1.418-1.29c-1.418-1.16-5.8 1.547-8.379 3.739l-1.289 1.031.13-1.547c.257-2.32-.645-3.222-1.161-3.48-2.195 1.675-8.64 3.093-10.187 1.804-8.766-5.285-16.5-6.574-23.075-3.867-12.25 5.285-16.246 22.043-16.246 22.172l-.258 1.031-.773-.644c-12.117-9.797-25.785-12.633-36.356-7.606-6.574 3.094-10.699 9.02-10.699 15.465 0 15.34 11.602 22.559 11.73 22.688l1.032.644-1.031.516c-11.344 5.156-11.344 12.375-11.215 14.308m0 0"/><path fill="#a0562e" d="M524.285 142.953v1.547c0 .387.13.773.258 1.16.258 1.031 1.16 1.934 2.191 2.45.258.128.516.257.645.515.516.516.902 1.29.902 2.063v7.734H498.5v-7.734c0-1.16.645-2.063 1.547-2.579 1.031-.515 1.805-1.289 2.191-2.449.13-.387.258-.773.258-1.16v-1.547c0-.387-.129-.773-.258-1.16-.258-1.031-1.16-1.934-2.191-2.45-.902-.515-1.547-1.417-1.547-2.577v-7.735h29.652v7.735c0 .773-.386 1.547-.902 2.062-.258.258-.387.387-.645.516-1.03.515-1.804 1.289-2.19 2.449 0 .387-.13.773-.13 1.16m0 0"/><path d="M528.797 158.938h-31.07v-8.25c0-1.29.773-2.579 1.933-3.094.645-.387 1.547-1.031 1.805-2.063.129-.386.129-.773.258-1.031v-1.418c0-.258-.13-.644-.258-1.031-.258-1.031-1.16-1.676-1.805-2.063-1.16-.644-1.933-1.804-1.933-3.093v-8.38h31.07v8.25c0 .903-.387 1.805-1.031 2.45-.258.258-.516.515-.903.644-.644.387-1.547 1.032-1.804 2.063-.13.387-.13.644-.258 1.031v1.547c0 .258.129.645.258 1.031.257 1.031 1.16 1.676 1.804 1.934.258.129.645.387.903.644a3.52 3.52 0 0 1 1.03 2.45Zm-29.781-1.29h28.492v-6.96c0-.645-.258-1.16-.645-1.547-.129-.13-.386-.258-.515-.387-1.29-.645-2.192-1.676-2.45-2.836-.128-.387-.257-.773-.257-1.29v-1.675c0-.387.129-.902.257-1.289.387-1.16 1.16-2.191 2.45-2.836.257-.129.386-.258.515-.387.387-.386.645-1.03.645-1.546v-7.09h-28.492v6.96c0 .774.515 1.548 1.16 1.934.902.516 2.062 1.29 2.449 2.836.129.387.258.903.258 1.29v1.675c0 .516-.13.902-.258 1.29-.387 1.417-1.547 2.32-2.45 2.835-.773.387-1.16 1.16-1.16 1.934Zm0 0"/><path fill="#a0562e" d="M528.332 232.223h-30.168v-7.22h30.168Zm0 0"/><path d="M529.055 232.797h-31.457v-8.508h31.457Zm-30.168-1.29h28.879v-5.929h-28.88Zm0 0"/><path fill="#a0562e" d="M500.434 256.516h25.656c1.289 0 2.191 1.03 2.191 2.191 0 1.29-1.031 2.191-2.191 2.191h-25.656c-1.29 0-2.192-1.03-2.192-2.191s1.031-2.191 2.192-2.191m0 0"/><path d="M526.09 261.672h-25.656c-1.547 0-2.836-1.29-2.836-2.836 0-1.547 1.289-2.836 2.836-2.836h25.656c1.547 0 2.836 1.29 2.836 2.836.129 1.547-1.16 2.836-2.836 2.836m-25.656-4.512c-.903 0-1.547.774-1.547 1.547s.773 1.547 1.547 1.547h25.656c.902 0 1.547-.774 1.547-1.547s-.774-1.547-1.547-1.547Zm0 0"/><path fill="#a0562e" d="M526.14 356.398h-25.656v-95.386h25.657Zm0 0"/><path d="M526.734 357.059H499.79v-96.676h26.945Zm-25.656-1.29h24.367v-94.097h-24.367Zm0 0"/><path fill="#a0562e" d="M500.434 363.89h25.656a2.31 2.31 0 0 0 2.32-2.32 2.31 2.31 0 0 0-2.32-2.32h-25.656a2.31 2.31 0 0 0-2.32 2.32c.128 1.29 1.16 2.32 2.32 2.32m0 0"/><path d="M526.09 364.535h-25.656c-1.547 0-2.965-1.289-2.965-2.965s1.289-2.965 2.965-2.965h25.656c1.547 0 2.965 1.29 2.965 2.965 0 1.676-1.418 2.965-2.965 2.965m-25.656-4.512c-.903 0-1.676.774-1.676 1.676 0 .903.773 1.676 1.676 1.676h25.656c.902 0 1.676-.773 1.676-1.676s-.774-1.676-1.676-1.676Zm0 0"/><path fill="#a0562e" d="M502.238 377.813h22.047c2.192 0 3.996-1.805 3.996-3.997 0-2.191-1.804-3.996-3.996-3.996h-22.047c-2.191 0-3.996 1.805-3.996 3.996 0 2.192 1.805 3.997 3.996 3.997m0 0"/><path d="M524.285 378.457h-22.047a4.62 4.62 0 0 1-4.64-4.64 4.62 4.62 0 0 1 4.64-4.641h22.047a4.62 4.62 0 0 1 4.64 4.64c.13 2.579-2.062 4.641-4.64 4.641m-22.047-8.121c-1.933 0-3.351 1.547-3.351 3.351s1.547 3.352 3.351 3.352h22.047c1.934 0 3.352-1.547 3.352-3.351s-1.547-3.352-3.352-3.352Zm0 0"/><path fill="#a0562e" d="M499.66 356.414h27.203a1.43 1.43 0 0 1 1.418 1.418 1.43 1.43 0 0 1-1.418 1.418H499.66a1.43 1.43 0 0 1-1.418-1.418 1.43 1.43 0 0 1 1.418-1.418m0 0"/><path d="M526.863 360.023H499.66a2.036 2.036 0 0 1-2.062-2.062c0-1.16.902-2.063 2.062-2.063h27.203c1.16 0 2.063.903 2.063 2.063s-.903 2.062-2.063 2.062m-27.203-2.964c-.515 0-.773.386-.773.773s.386.773.773.773h27.203c.516 0 .774-.386.774-.773s-.387-.773-.774-.773Zm0 0"/><path fill="#a0562e" d="M499.66 377.813h27.203a1.43 1.43 0 0 1 1.418 1.417 1.43 1.43 0 0 1-1.418 1.418H499.66a1.43 1.43 0 0 1-1.418-1.418 1.43 1.43 0 0 1 1.418-1.418m0 0"/><path d="M526.863 381.422H499.66a2.036 2.036 0 0 1-2.062-2.063c0-1.16.902-2.062 2.062-2.062h27.203c1.16 0 2.063.902 2.063 2.062.129 1.16-.903 2.063-2.063 2.063m-27.203-2.965c-.515 0-.773.387-.773.773 0 .516.386.774.773.774h27.203c.516 0 .774-.387.774-.774 0-.515-.387-.773-.774-.773Zm0 0"/><path fill="#a0562e" d="M523.434 369.707H503.32v-5.8h20.114Zm0 0"/><path d="M524.027 370.336h-21.402v-7.09h21.402Zm-20.242-1.29h18.824v-4.51h-18.824Zm0 0"/><path fill="#a0562e" d="M500.434 239.629h25.656a2.31 2.31 0 0 0 2.32-2.32 2.31 2.31 0 0 0-2.32-2.32h-25.656a2.31 2.31 0 0 0-2.32 2.32c.128 1.289 1.16 2.32 2.32 2.32m0 0"/><path d="M526.09 240.273h-25.656c-1.547 0-2.965-1.289-2.965-2.964s1.289-2.965 2.965-2.965h25.656c1.547 0 2.965 1.289 2.965 2.965s-1.418 2.964-2.965 2.964m-25.656-4.511c-.903 0-1.676.773-1.676 1.675 0 .903.773 1.676 1.676 1.676h25.656c.902 0 1.676-.773 1.676-1.675 0-.903-.774-1.676-1.676-1.676Zm0 0"/><path fill="#a0562e" d="M502.238 253.55h22.047c2.192 0 3.996-1.804 3.996-3.995 0-2.192-1.804-3.996-3.996-3.996h-22.047c-2.191 0-3.996 1.804-3.996 3.996 0 2.191 1.805 3.996 3.996 3.996m0 0"/><path d="M524.285 254.195h-22.047a4.62 4.62 0 0 1-4.64-4.64 4.62 4.62 0 0 1 4.64-4.64h22.047a4.62 4.62 0 0 1 4.64 4.64 4.62 4.62 0 0 1-4.64 4.64m-22.047-8.12c-1.933 0-3.351 1.546-3.351 3.35s1.547 3.352 3.351 3.352h22.047c1.934 0 3.352-1.547 3.352-3.351s-1.547-3.352-3.352-3.352Zm0 0"/><path fill="#a0562e" d="M499.66 232.152h27.203a1.43 1.43 0 0 1 1.418 1.418 1.43 1.43 0 0 1-1.418 1.418H499.66a1.43 1.43 0 0 1-1.418-1.418c0-.644.645-1.418 1.418-1.418m0 0"/><path d="M526.863 235.762H499.66a2.036 2.036 0 0 1-2.062-2.063c0-1.16.902-2.062 2.062-2.062h27.203c1.16 0 2.063.902 2.063 2.062.129 1.16-.903 2.063-2.063 2.063m-27.203-2.965c-.515 0-.773.387-.773.773 0 .387.386.774.773.774h27.203c.516 0 .774-.387.774-.774 0-.386-.387-.773-.774-.773Zm0 0"/><path fill="#a0562e" d="M499.66 253.55h27.203a1.43 1.43 0 0 1 1.418 1.419 1.43 1.43 0 0 1-1.418 1.418H499.66a1.43 1.43 0 0 1-1.418-1.418 1.43 1.43 0 0 1 1.418-1.418m0 0"/><path d="M526.863 257.16H499.66a2.036 2.036 0 0 1-2.062-2.062c0-1.16.902-2.063 2.062-2.063h27.203c1.16 0 2.063.903 2.063 2.063.129 1.16-.903 2.062-2.063 2.062m-27.203-2.965c-.515 0-.773.387-.773.774 0 .386.386.773.773.773h27.203c.516 0 .774-.387.774-.773 0-.387-.387-.774-.774-.774Zm0 0"/><path fill="#a0562e" d="M523.434 245.512H503.32v-5.801h20.114Zm0 0"/><path d="M524.027 246.074h-21.402v-7.09h21.402Zm-20.242-1.289h18.824v-4.512h-18.824Zm0 0"/><path fill="#a0562e" d="M523.383 380.777c0 7.09 5.027 11.473 5.027 16.371 0 8.122-5.027 8.637-5.027 8.637"/><path d="m523.383 406.43-.13-1.29c.13 0 4.384-.515 4.384-7.992 0-2.062-1.032-4.125-2.063-6.316-1.418-2.836-2.836-5.93-2.836-9.926h1.29c0 3.739 1.417 6.574 2.706 9.41 1.16 2.32 2.192 4.512 2.192 6.961.129 8.508-5.414 9.153-5.543 9.153m0 0"/><path fill="#a0562e" d="M523.383 380.777c0 7.09 5.027 11.473 5.027 16.371 0 8.122-5.027 8.637-5.027 8.637"/><path d="m523.383 406.43-.13-1.29c.13 0 4.384-.515 4.384-7.992 0-2.062-1.032-4.125-2.063-6.316-1.418-2.836-2.836-5.93-2.836-9.926h1.29c0 3.739 1.417 6.574 2.706 9.41 1.16 2.32 2.192 4.512 2.192 6.961.129 8.508-5.414 9.153-5.543 9.153m0 0"/><path fill="#a0562e" d="M503.14 380.777c0 7.09-5.027 11.473-5.027 16.371 0 8.122 5.028 8.637 5.028 8.637"/><path d="M503.14 406.43s-5.542-.645-5.542-9.282c0-2.32 1.03-4.64 2.191-6.96 1.418-2.836 2.707-5.672 2.707-9.41h1.29c0 3.995-1.548 7.218-2.837 9.925-1.16 2.32-2.062 4.254-2.062 6.317 0 7.476 4.383 7.992 4.383 7.992Zm0 0"/><path fill="#a0562e" d="M500.563 410.426h25.527a2.31 2.31 0 0 0 2.32-2.32 2.31 2.31 0 0 0-2.32-2.32h-25.528a2.31 2.31 0 0 0-2.32 2.32 2.31 2.31 0 0 0 2.32 2.32m0 0"/><path d="M525.96 411.07h-25.526c-1.676 0-2.965-1.289-2.965-2.965s1.289-2.964 2.965-2.964h25.527c1.676 0 2.965 1.289 2.965 2.964s-1.29 2.965-2.965 2.965m-25.398-4.64c-.902 0-1.675.773-1.675 1.675 0 .903.773 1.676 1.675 1.676h25.528c.902 0 1.676-.773 1.676-1.676s-.774-1.675-1.676-1.675Zm0 0"/><path fill="#a0562e" d="M500.563 418.285h25.527a2.31 2.31 0 0 0 2.32-2.32 2.31 2.31 0 0 0-2.32-2.32h-25.528a2.31 2.31 0 0 0-2.32 2.32 2.31 2.31 0 0 0 2.32 2.32m0 0"/><path d="M525.96 418.93h-25.526c-1.676 0-2.965-1.29-2.965-2.965 0-1.676 1.289-2.965 2.965-2.965h25.527c1.676 0 2.965 1.29 2.965 2.965 0 1.676-1.29 2.965-2.965 2.965m-25.398-4.64c-.902 0-1.675.772-1.675 1.675 0 .902.773 1.676 1.675 1.676h25.528c.902 0 1.676-.774 1.676-1.676s-.774-1.676-1.676-1.676Zm0 0"/><path fill="#a0562e" d="M498.887 413.645h28.75c.902 0 1.547-.645 1.547-1.547v-.13c0-.902-.645-1.546-1.547-1.546h-28.75c-.903 0-1.547.644-1.547 1.547v.129c0 .902.773 1.547 1.547 1.547m0 0"/><path d="M527.637 414.29h-28.75c-1.16 0-2.192-1.032-2.192-2.192 0-1.29 1.032-2.317 2.192-2.317h28.75c1.16 0 2.191 1.028 2.191 2.188 0 1.289-.902 2.32-2.191 2.32m-28.75-3.22a.88.88 0 0 0-.903.899c0 .644.387 1.031.903 1.031h28.75a.88.88 0 0 0 .902-.902c0-.645-.387-1.028-.902-1.028Zm0 0"/><path fill="#a0562e" d="M526.14 431h-25.656v-12.633h25.657Zm0 0"/><path d="M526.734 431.563H499.79V417.64h26.945Zm-25.656-1.29h24.367V418.93h-24.367Zm0 0"/><path fill="#a0562e" d="m580.492 104.668-11.601 24.492H12.98L1.374 104.668Zm0 0"/><g clip-path="url(#a)"><path d="M569.277 129.805H12.594L.473 104.023h581.054Zm-555.91-1.29h555.137l10.957-23.202H2.41Zm0 0"/></g><path fill="#a0562e" d="M533.824 162.16v59.035c0 2.192-1.676 3.868-3.867 3.868h-33.262c-2.191 0-3.867-1.676-3.867-3.868V162.16c0-2.191 1.676-3.867 3.867-3.867h33.262c2.063 0 3.867 1.676 3.867 3.867m0 0"/><path d="M529.957 225.578h-33.262c-2.449 0-4.511-2.062-4.511-4.512v-59.035c0-2.449 2.062-4.511 4.511-4.511h33.262c2.45 0 4.512 2.062 4.512 4.511v59.035c0 2.45-2.063 4.512-4.512 4.512m-33.262-66.64a3.19 3.19 0 0 0-3.222 3.222v59.035a3.19 3.19 0 0 0 3.222 3.223h33.262a3.19 3.19 0 0 0 3.223-3.223V162.16a3.19 3.19 0 0 0-3.223-3.222Zm0 0"/><path fill="#a0562e" d="M528.332 232.223h-30.168v-7.22h30.168Zm0 0"/><path d="M529.055 232.797h-31.457v-8.508h31.457Zm-30.168-1.29h28.879v-5.929h-28.88Zm0 0"/><path fill="#a0562e" d="M500.434 256.516h25.656c1.289 0 2.191 1.03 2.191 2.191 0 1.29-1.031 2.191-2.191 2.191h-25.656c-1.29 0-2.192-1.03-2.192-2.191s1.031-2.191 2.192-2.191m0 0"/><path d="M526.09 261.672h-25.656c-1.547 0-2.836-1.29-2.836-2.836 0-1.547 1.289-2.836 2.836-2.836h25.656c1.547 0 2.836 1.29 2.836 2.836.129 1.547-1.16 2.836-2.836 2.836m-25.656-4.512c-.903 0-1.547.774-1.547 1.547s.773 1.547 1.547 1.547h25.656c.902 0 1.547-.774 1.547-1.547s-.774-1.547-1.547-1.547Zm0 0"/><path fill="#a0562e" d="M526.14 356.398h-25.656v-95.386h25.657Zm0 0"/><path d="M526.734 357.059H499.79v-96.676h26.945Zm-25.656-1.29h24.367v-94.097h-24.367Zm0 0"/><path fill="#a0562e" d="M500.434 363.89h25.656a2.31 2.31 0 0 0 2.32-2.32 2.31 2.31 0 0 0-2.32-2.32h-25.656a2.31 2.31 0 0 0-2.32 2.32c.128 1.29 1.16 2.32 2.32 2.32m0 0"/><path d="M526.09 364.535h-25.656c-1.547 0-2.965-1.289-2.965-2.965s1.289-2.965 2.965-2.965h25.656c1.547 0 2.965 1.29 2.965 2.965 0 1.676-1.418 2.965-2.965 2.965m-25.656-4.512c-.903 0-1.676.774-1.676 1.676 0 .903.773 1.676 1.676 1.676h25.656c.902 0 1.676-.773 1.676-1.676s-.774-1.676-1.676-1.676Zm0 0"/><path fill="#a0562e" d="M502.238 377.813h22.047c2.192 0 3.996-1.805 3.996-3.997 0-2.191-1.804-3.996-3.996-3.996h-22.047c-2.191 0-3.996 1.805-3.996 3.996 0 2.192 1.805 3.997 3.996 3.997m0 0"/><path d="M524.285 378.457h-22.047a4.62 4.62 0 0 1-4.64-4.64 4.62 4.62 0 0 1 4.64-4.641h22.047a4.62 4.62 0 0 1 4.64 4.64c.13 2.579-2.062 4.641-4.64 4.641m-22.047-8.121c-1.933 0-3.351 1.547-3.351 3.351s1.547 3.352 3.351 3.352h22.047c1.934 0 3.352-1.547 3.352-3.351s-1.547-3.352-3.352-3.352Zm0 0"/><path fill="#a0562e" d="M499.66 356.414h27.203a1.43 1.43 0 0 1 1.418 1.418 1.43 1.43 0 0 1-1.418 1.418H499.66a1.43 1.43 0 0 1-1.418-1.418 1.43 1.43 0 0 1 1.418-1.418m0 0"/><path d="M526.863 360.023H499.66a2.036 2.036 0 0 1-2.062-2.062c0-1.16.902-2.063 2.062-2.063h27.203c1.16 0 2.063.903 2.063 2.063s-.903 2.062-2.063 2.062m-27.203-2.964c-.515 0-.773.386-.773.773s.386.773.773.773h27.203c.516 0 .774-.386.774-.773s-.387-.773-.774-.773Zm0 0"/><path fill="#a0562e" d="M528.41 379.23a1.43 1.43 0 0 1-1.418 1.418H499.79c-.773 0-1.547-.644-1.547-1.418s.645-1.418 1.547-1.418h27.074c.774 0 1.547.645 1.547 1.418m0 0"/><path d="M526.863 381.422H499.66a2.036 2.036 0 0 1-2.062-2.063c0-1.16.902-2.191 2.062-2.191h27.203c1.16 0 2.192.902 2.192 2.191 0 1.032-1.032 2.063-2.192 2.063m-27.203-2.965c-.515 0-.773.387-.773.902 0 .516.386.774.773.774h27.203c.516 0 .903-.387.903-.774 0-.386-.387-.902-.903-.902Zm0 0"/><path fill="#a0562e" d="M523.434 369.707H503.32v-5.8h20.114Zm0 0"/><path d="M524.027 370.336h-21.402v-7.09h21.402Zm-20.242-1.29h18.824v-4.51h-18.824Zm0 0"/><path fill="#a0562e" d="M500.434 239.629h25.656a2.31 2.31 0 0 0 2.32-2.32 2.31 2.31 0 0 0-2.32-2.32h-25.656a2.31 2.31 0 0 0-2.32 2.32c.128 1.289 1.16 2.32 2.32 2.32m0 0"/><path d="M526.09 240.273h-25.656c-1.547 0-2.965-1.289-2.965-2.964s1.289-2.965 2.965-2.965h25.656c1.547 0 2.965 1.289 2.965 2.965s-1.418 2.964-2.965 2.964m-25.656-4.511c-.903 0-1.676.773-1.676 1.675 0 .903.773 1.676 1.676 1.676h25.656c.902 0 1.676-.773 1.676-1.675 0-.903-.774-1.676-1.676-1.676Zm0 0"/><path fill="#a0562e" d="M502.238 253.55h22.047c2.192 0 3.996-1.804 3.996-3.995 0-2.192-1.804-3.996-3.996-3.996h-22.047c-2.191 0-3.996 1.804-3.996 3.996 0 2.191 1.805 3.996 3.996 3.996m0 0"/><path d="M524.285 254.195h-22.047a4.62 4.62 0 0 1-4.64-4.64 4.62 4.62 0 0 1 4.64-4.64h22.047a4.62 4.62 0 0 1 4.64 4.64 4.62 4.62 0 0 1-4.64 4.64m-22.047-8.12c-1.933 0-3.351 1.546-3.351 3.35s1.547 3.352 3.351 3.352h22.047c1.934 0 3.352-1.547 3.352-3.351s-1.547-3.352-3.352-3.352Zm0 0"/><path fill="#a0562e" d="M499.66 232.152h27.203a1.43 1.43 0 0 1 1.418 1.418 1.43 1.43 0 0 1-1.418 1.418H499.66a1.43 1.43 0 0 1-1.418-1.418c0-.644.645-1.418 1.418-1.418m0 0"/><path d="M526.863 235.762H499.66a2.036 2.036 0 0 1-2.062-2.063c0-1.16.902-2.062 2.062-2.062h27.203c1.16 0 2.063.902 2.063 2.062.129 1.16-.903 2.063-2.063 2.063m-27.203-2.965c-.515 0-.773.387-.773.773 0 .387.386.774.773.774h27.203c.516 0 .774-.387.774-.774 0-.386-.387-.773-.774-.773Zm0 0"/><path fill="#a0562e" d="M499.66 253.55h27.203a1.43 1.43 0 0 1 1.418 1.419 1.43 1.43 0 0 1-1.418 1.418H499.66a1.43 1.43 0 0 1-1.418-1.418 1.43 1.43 0 0 1 1.418-1.418m0 0"/><path d="M526.863 257.16H499.66a2.036 2.036 0 0 1-2.062-2.062c0-1.16.902-2.063 2.062-2.063h27.203c1.16 0 2.063.903 2.063 2.063.129 1.16-.903 2.062-2.063 2.062m-27.203-2.965c-.515 0-.773.387-.773.774 0 .386.386.773.773.773h27.203c.516 0 .774-.387.774-.773 0-.387-.387-.774-.774-.774Zm0 0"/><path fill="#a0562e" d="M523.434 245.512H503.32v-5.801h20.114Zm0 0"/><path d="M524.027 246.074h-21.402v-7.09h21.402Zm-20.242-1.289h18.824v-4.512h-18.824Zm0 0"/><path fill="#a0562e" d="M528.41 397.148c0 8.122-5.027 8.637-5.027 8.637H503.27s-5.028-.515-5.028-8.637c0-4.898 5.028-9.28 5.028-16.37h20.113c0 7.09 5.027 11.472 5.027 16.37m0 0"/><path d="M503.27 406.43c-.13 0-5.672-.645-5.672-9.282 0-2.32 1.03-4.64 2.191-6.96 1.418-2.836 2.836-5.672 2.836-9.41v-.645h21.402v.644c0 3.739 1.418 6.575 2.836 9.41 1.16 2.32 2.192 4.512 2.192 6.961 0 8.637-5.543 9.282-5.543 9.282Zm.515-25.008c-.129 3.738-1.547 6.703-2.836 9.41-1.16 2.32-2.062 4.254-2.062 6.316 0 7.348 4.254 7.993 4.383 7.993h20.113c.129 0 4.383-.516 4.383-7.993 0-2.062-1.032-4.125-2.063-6.316-1.289-2.707-2.707-5.672-2.836-9.41Zm0 0"/><path fill="#a0562e" d="M528.41 408.105a2.307 2.307 0 0 1-2.32 2.317h-25.528a2.307 2.307 0 0 1-2.32-2.317 2.31 2.31 0 0 1 2.32-2.32h25.528c1.16 0 2.32 1.031 2.32 2.32m0 0"/><path d="M526.09 411.07h-25.528c-1.675 0-2.964-1.289-2.964-2.965s1.289-2.964 2.964-2.964h25.528c1.676 0 2.965 1.289 2.965 2.964s-1.418 2.965-2.965 2.965m-25.528-4.64c-.902 0-1.675.773-1.675 1.675 0 .903.773 1.676 1.675 1.676h25.528c.902 0 1.676-.773 1.676-1.676s-.774-1.675-1.676-1.675Zm0 0"/><path fill="#a0562e" d="M500.563 418.285h25.527a2.31 2.31 0 0 0 2.32-2.32 2.31 2.31 0 0 0-2.32-2.32h-25.528a2.31 2.31 0 0 0-2.32 2.32 2.31 2.31 0 0 0 2.32 2.32m0 0"/><path d="M525.96 418.93h-25.526c-1.676 0-2.965-1.29-2.965-2.965 0-1.676 1.289-2.965 2.965-2.965h25.527c1.676 0 2.965 1.29 2.965 2.965 0 1.676-1.29 2.965-2.965 2.965m-25.398-4.64c-.902 0-1.675.772-1.675 1.675 0 .902.773 1.676 1.675 1.676h25.528c.902 0 1.676-.774 1.676-1.676s-.774-1.676-1.676-1.676Zm0 0"/><path fill="#a0562e" d="M498.887 413.645h28.75c.902 0 1.547-.645 1.547-1.547v-.13c0-.902-.645-1.546-1.547-1.546h-28.75c-.903 0-1.547.644-1.547 1.547v.129c0 .902.773 1.547 1.547 1.547m0 0"/><path d="M527.637 414.29h-28.75c-1.16 0-2.192-1.032-2.192-2.192 0-1.29 1.032-2.317 2.192-2.317h28.75c1.16 0 2.191 1.028 2.191 2.188 0 1.289-.902 2.32-2.191 2.32m-28.75-3.22a.88.88 0 0 0-.903.899c0 .644.387 1.031.903 1.031h28.75a.88.88 0 0 0 .902-.902c0-.645-.387-1.028-.902-1.028Zm0 0"/><path fill="#a0562e" d="M526.14 431h-25.656v-12.633h25.657Zm0 0"/><path d="M526.734 431.563H499.79V417.64h26.945Zm-25.656-1.29h24.367V418.93h-24.367Zm0 0"/><path fill="#a0562e" d="M492.828 546.93h40.996V434.914c0-2.191-1.676-3.867-3.867-3.867h-33.262c-2.191 0-3.867 1.676-3.867 3.867Zm0 0"/><path d="M534.469 547.574h-42.285v-112.66c0-2.45 2.062-4.512 4.511-4.512h33.262c2.45 0 4.512 2.063 4.512 4.512Zm-40.996-1.289h39.707v-111.37a3.19 3.19 0 0 0-3.223-3.224h-33.262a3.19 3.19 0 0 0-3.222 3.223Zm0 0"/><path fill="#a0562e" d="M476.969 560.078h72.715c0-7.348-5.934-13.277-13.153-13.277H490.25c-7.48.129-13.281 6.058-13.281 13.277m0 0"/><path d="M550.328 560.723h-74.004v-.645c0-7.605 6.188-13.922 13.926-13.922h46.281c7.606 0 13.926 6.188 13.926 13.922v.645Zm-72.715-1.29h71.426c-.387-6.574-5.805-11.988-12.508-11.988H490.25c-6.836.13-12.379 5.414-12.637 11.989m0 0"/><path fill="#a0562e" d="M464.465 573.355h97.723v-.386c0-7.09-5.801-12.89-12.891-12.89h-72.07c-7.09 0-12.891 5.8-12.891 12.89v.386Zm0 0"/><path d="M562.832 574H463.82v-1.031c0-7.477 6.059-13.535 13.535-13.535h72.07c7.477 0 13.536 6.058 13.536 13.535V574Zm-97.723-1.29h96.434c-.129-6.573-5.543-11.987-12.246-11.987h-72.07c-6.575 0-11.989 5.285-12.118 11.988m0 0"/><path fill="#a5886e" d="M153.504 200.184v77.214c-.774 1.032-1.547 2.192-2.32 3.223v-81.726c0-.774.386-1.547 1.03-1.934.13 1.418.516 2.836 1.29 3.223m0 0"/><path d="M150.54 282.684v-83.79c0-1.03.515-1.933 1.417-2.449l.902-.515.13 1.03c.257 2.192.773 2.58.902 2.708l.386.129v77.86l-.129.128c-.773 1.031-1.546 2.192-2.32 3.223Zm1.288-84.176v80.051c.387-.516.645-.903 1.031-1.418v-76.7c-.515-.386-.773-1.03-1.03-1.933m0 0"/><path fill="#a5886e" d="M428.367 196.574c-.129 1.16-.387 2.063-.515 2.32H154.02c-.258-.257-.387-1.16-.516-2.32Zm0 0"/><path d="M428.238 199.54H153.633l-.13-.259c-.386-.515-.515-1.676-.644-2.578v-.644l.645-.13h275.508v.645c-.13.903-.258 2.192-.645 2.707Zm-273.832-1.29h273.059c.129-.258.129-.516.258-1.031H154.148c.13.515.258.902.258 1.031m0 0"/><path fill="#a5886e" d="M430.688 198.895v80.18c-.774-1.032-1.547-2.192-2.32-3.223v-75.668c.773-.387 1.03-1.676 1.288-3.094.645.258 1.031 1.031 1.031 1.805m0 0"/><path d="m431.332 281.137-1.16-1.676c-.774-1.031-1.547-2.191-2.32-3.223l-.13-.129v-76.312l.387-.129c.13-.129.645-.516.903-2.707l.129-1.031.902.515c.773.516 1.418 1.418 1.418 2.45v82.242Zm-2.32-5.543c.386.515.644.902 1.031 1.418v-78.504c-.258.902-.516 1.547-1.031 1.933Zm0 0"/><path fill="#a5886e" d="M155.438 198.895c-.258.773-.774 1.289-1.547 1.289-.13 0-.387 0-.516-.13-.773-.386-1.031-1.675-1.29-3.093-.128-1.031-.128-2.063-.128-2.836 0-.387.258-.645.645-.645.386 0 .644.258.644.645 0 .902 0 1.805.129 2.45.129 1.16.387 1.933.516 2.32Zm0 0"/><path d="M153.89 200.57c-.257 0-.386 0-.644-.129-.773-.386-1.16-1.546-1.418-3.351-.129-1.16-.129-2.32-.129-2.965 0-.516.387-1.031 1.031-1.031.516 0 1.032.386 1.032 1.031 0 .773 0 1.676.129 2.45.129 1.03.257 1.675.386 2.062h1.676l-.129.386q-.58 1.548-1.933 1.547m-1.16-6.703c-.128 0-.386.13-.386.387 0 .516 0 1.676.129 2.836.257 2.191.773 2.707 1.16 2.836.129 0 .258.129.258.129.386 0 .773-.13 1.03-.645h-1.16l-.128-.129c-.387-.515-.516-1.804-.645-2.449-.129-.902-.129-1.676-.129-2.578.13-.258 0-.387-.129-.387m0 0"/><path fill="#a5886e" d="M155.824 195.414v1.16h-1.289v-1.16c0-1.418-.258-2.707-.515-3.867-.13-.902-.387-1.676-.387-2.32v-6.446h1.289v6.446c0 .515.129 1.289.258 2.062.386 1.16.644 2.578.644 4.125m0 0"/><path d="M156.082 196.96h-1.934v-1.546c0-1.289-.257-2.578-.515-3.738-.13-.903-.387-1.676-.387-2.45v-6.703h1.934v6.704c0 .515.129 1.289.257 2.062.258 1.16.516 2.578.516 4.254v1.16Zm-1.289-.644h.644v-.773c0-1.418-.257-2.836-.515-3.996-.129-.902-.387-1.676-.387-2.192v-6.058h-.644v6.058q0 .967.386 2.32c.258 1.16.516 2.579.516 3.868zm0 0"/><path fill="#a5886e" d="M429.785 194.125c0 .773 0 1.934-.129 2.836-.129 1.418-.515 2.707-1.289 3.094-.129.129-.258.129-.515.129-.774 0-1.29-.516-1.547-1.29h1.418c.257-.257.386-1.16.515-2.32.13-.773.13-1.547.13-2.449 0-.387.257-.645.644-.645.515 0 .773.258.773.645m0 0"/><path d="M427.98 200.57c-.902 0-1.418-.515-1.804-1.547l-.13-.386h1.677c.129-.258.257-1.032.386-1.934.13-.773.13-1.676.13-2.45 0-.515.386-1.03 1.03-1.03.516 0 1.032.386 1.032 1.03 0 .774 0 1.806-.13 2.837-.257 1.933-.644 2.965-1.417 3.351-.387.13-.645.13-.774.13m-1.03-1.289c.257.645.644.645 1.03.645.13 0 .258 0 .258-.13.258-.128.774-.773 1.16-2.964.13-1.031.13-2.062.13-2.836 0-.129-.13-.387-.387-.387-.13 0-.387.13-.387.387 0 .902 0 1.676-.129 2.45-.129.773-.258 1.933-.645 2.449l-.128.128h-.903Zm0 0"/><path fill="#a5886e" d="M428.238 182.781v6.446q0 .966-.386 2.32c-.258 1.16-.516 2.45-.516 3.867v1.16h-1.29v-1.16c0-1.547.259-2.965.517-4.125.128-.773.257-1.547.257-2.062v-6.446Zm0 0"/><path d="M427.723 196.96h-1.934v-1.417c0-1.547.258-2.965.516-4.125.129-.773.257-1.547.257-2.063v-6.703h1.934v6.703c0 .774-.129 1.547-.387 2.45-.257 1.16-.515 2.449-.515 3.867v1.16Zm-1.29-.644h.645v-.773c0-1.418.258-2.707.516-3.867.129-.903.386-1.676.386-2.32v-6.06h-.644v6.06c0 .644-.129 1.289-.258 2.19-.258 1.161-.515 2.579-.515 4.126-.13 0-.13.387-.13.644m0 0"/><path fill="#d6a672" d="M461.5 376.652c0 93.97-76.195 170.02-170.047 170.02-93.984 0-170.05-76.05-170.05-170.02 0-35.578 10.96-68.707 29.652-96.03.773-1.161 1.547-2.192 2.32-3.224.387-.515.645-1.03 1.031-1.418l2.32-3.093c31.07-40.219 79.805-66.13 134.598-66.13 56.078 0 105.973 27.2 136.914 69.095.774 1.03 1.547 2.191 2.32 3.222 19.594 27.582 30.942 61.227 30.942 97.578m0 0"/><path fill="#c19263" d="M461.5 376.652c0 93.97-76.195 170.02-170.047 170.02-61.496 0-115.258-32.61-145.168-81.336 25.785 15.855 56.211 24.879 88.7 24.879 23.202 0 45.378-4.64 65.492-13.02 41.253-17.273 74.257-50.273 91.535-91.52 8.379-20.109 13.02-42.28 13.02-65.484 0-32.48-9.153-62.773-24.884-88.683 18.825 11.472 35.196 26.554 48.22 44.215.773 1.03 1.546 2.191 2.32 3.222 19.464 27.711 30.812 61.356 30.812 97.707m0 0"/><path fill="#dfb683" d="M406.32 376.652q-.001 2.82-.136 5.633a117 117 0 0 1-1.105 11.219 116 116 0 0 1-2.2 11.055 114 114 0 0 1-3.274 10.785 114 114 0 0 1-4.312 10.414q-1.206 2.547-2.535 5.035a112 112 0 0 1-2.781 4.902 114 114 0 0 1-9.73 13.816 112 112 0 0 1-3.685 4.27 116 116 0 0 1-3.886 4.082 116 116 0 0 1-8.352 7.57 116 116 0 0 1-4.445 3.47 122 122 0 0 1-4.61 3.245 116 116 0 0 1-9.668 5.793 117 117 0 0 1-10.19 4.82 116 116 0 0 1-16.048 5.301 115 115 0 0 1-16.652 2.887q-2.806.277-5.625.414a113 113 0 0 1-11.27 0q-2.817-.136-5.625-.414a117 117 0 0 1-5.593-.687 116 116 0 0 1-11.059-2.2q-2.734-.687-5.434-1.503a118 118 0 0 1-10.613-3.797 117 117 0 0 1-10.191-4.82 119 119 0 0 1-4.906-2.778 121 121 0 0 1-4.762-3.016 122 122 0 0 1-4.61-3.246 116 116 0 0 1-4.445-3.468 116 116 0 0 1-8.351-7.57 116 116 0 0 1-3.887-4.083 112 112 0 0 1-3.684-4.27 114 114 0 0 1-9.73-13.816 112 112 0 0 1-2.781-4.902q-1.329-2.488-2.536-5.035-1.2-2.55-2.285-5.156a114 114 0 0 1-2.027-5.258 114 114 0 0 1-4.508-16.285 116 116 0 0 1-.965-5.555 117 117 0 0 1-1.105-11.219q-.136-2.814-.137-5.633.001-2.818.137-5.636a117 117 0 0 1 1.105-11.215 116 116 0 0 1 2.2-11.055q.683-2.738 1.503-5.433a116 116 0 0 1 3.797-10.614 114.4 114.4 0 0 1 7.602-15.094q1.447-2.419 3.015-4.761a114 114 0 0 1 3.246-4.61 119 119 0 0 1 3.47-4.445 109 109 0 0 1 3.683-4.266 116 116 0 0 1 3.887-4.086 116 116 0 0 1 4.082-3.886 116 116 0 0 1 13.324-10.395 116 116 0 0 1 4.762-3.015q2.42-1.454 4.906-2.778c1.66-.886 3.34-1.734 5.039-2.535a112 112 0 0 1 5.152-2.285 113 113 0 0 1 10.613-3.797 114 114 0 0 1 10.938-2.738q2.766-.55 5.555-.965c1.859-.277 3.722-.504 5.593-.691q2.808-.274 5.625-.414 2.813-.136 5.637-.137 2.82.001 5.633.137 2.819.139 5.625.414c1.871.187 3.734.414 5.594.691a116 116 0 0 1 11.058 2.2c1.825.456 3.633.956 5.434 1.503a113 113 0 0 1 10.613 3.797q2.605 1.078 5.152 2.285c1.7.8 3.38 1.649 5.04 2.535 1.656.883 3.293 1.809 4.902 2.778a114 114 0 0 1 9.375 6.261 116 116 0 0 1 8.715 7.148 116 116 0 0 1 4.082 3.887 116 116 0 0 1 3.887 4.086 109 109 0 0 1 3.683 4.266 119 119 0 0 1 3.469 4.445 114 114 0 0 1 3.246 4.61 110 110 0 0 1 3.016 4.761 114.4 114.4 0 0 1 9.629 20.355 116 116 0 0 1 1.769 5.353q.82 2.695 1.504 5.433a116 116 0 0 1 2.2 11.055 117 117 0 0 1 1.105 11.215q.135 2.818.136 5.636m0 0"/><path fill="#d3a879" d="M406.32 376.652c0 63.418-51.441 114.852-114.867 114.852-9.93 0-19.469-1.29-28.621-3.61 13.02-2.19 25.652-5.8 37.516-10.828 41.254-17.273 74.257-50.273 91.535-91.52 5.027-11.858 8.637-24.491 10.828-37.51 2.32 9.151 3.61 18.82 3.61 28.616m0 0"/><path fill="#d6a672" d="M392.398 376.652a99 99 0 0 1-.488 9.89 99 99 0 0 1-.605 4.919 99 99 0 0 1-.848 4.883 98 98 0 0 1-1.086 4.832 100 100 0 0 1-2.875 9.476 102 102 0 0 1-1.781 4.625 100 100 0 0 1-4.238 8.953 99 99 0 0 1-2.442 4.31 99 99 0 0 1-2.652 4.187 104 104 0 0 1-2.852 4.05q-1.476 1.987-3.047 3.903a106 106 0 0 1-3.238 3.754 102 102 0 0 1-7.004 7.003 99 99 0 0 1-3.75 3.235 105 105 0 0 1-3.906 3.047q-1.993 1.475-4.05 2.851-2.062 1.376-4.188 2.653a102 102 0 0 1-8.739 4.668q-2.237 1.06-4.527 2.007a99 99 0 0 1-9.328 3.336q-2.372.72-4.774 1.325a103 103 0 0 1-14.636 2.539c-1.64.16-3.29.28-4.938.363a100 100 0 0 1-4.953.121q-2.478.001-4.957-.121a104 104 0 0 1-4.937-.363 104 104 0 0 1-4.918-.61 103 103 0 0 1-9.719-1.93 102 102 0 0 1-4.774-1.324 99 99 0 0 1-9.328-3.336 102 102 0 0 1-13.266-6.676 104 104 0 0 1-4.187-2.652 104 104 0 0 1-4.05-2.851c-1.325-.985-2.63-2-3.907-3.047a99 99 0 0 1-3.75-3.235 102 102 0 0 1-7.004-7.004 106 106 0 0 1-3.238-3.753 105 105 0 0 1-3.047-3.903 104 104 0 0 1-2.851-4.05 99 99 0 0 1-2.653-4.188 99 99 0 0 1-2.441-4.309 100 100 0 0 1-6.02-13.578 100 100 0 0 1-2.875-9.477 98 98 0 0 1-1.086-4.831 99 99 0 0 1-.847-4.883 99 99 0 0 1-.606-4.918 99 99 0 0 1-.488-9.89 100 100 0 0 1 .488-9.895q.24-2.466.606-4.914c.242-1.637.523-3.262.847-4.883q.481-2.43 1.086-4.832a100.4 100.4 0 0 1 6.664-18.629 102 102 0 0 1 4.672-8.738 99 99 0 0 1 2.653-4.184 100.7 100.7 0 0 1 16.14-18.71 101 101 0 0 1 7.656-6.285q1.994-1.477 4.051-2.853 2.062-1.377 4.188-2.648a98 98 0 0 1 4.312-2.441 98 98 0 0 1 4.426-2.23q2.237-1.058 4.527-2.009a102 102 0 0 1 14.102-4.656q2.406-.601 4.836-1.086 2.429-.482 4.883-.848c1.632-.242 3.273-.44 4.918-.605 1.64-.16 3.289-.281 4.937-.363a100 100 0 0 1 4.957-.121q2.474 0 4.953.12 2.475.124 4.938.364c1.644.164 3.285.363 4.918.606q2.452.365 4.883.847 2.429.485 4.835 1.086 2.402.601 4.774 1.32a104 104 0 0 1 9.328 3.336 104 104 0 0 1 4.527 2.008 98 98 0 0 1 4.426 2.23 98 98 0 0 1 4.313 2.442 99 99 0 0 1 8.238 5.5 101 101 0 0 1 7.656 6.285 102 102 0 0 1 3.59 3.414 102 102 0 0 1 6.652 7.34 101.6 101.6 0 0 1 8.551 12.14 102 102 0 0 1 6.68 13.266 103 103 0 0 1 1.781 4.621 100 100 0 0 1 2.875 9.48 97 97 0 0 1 1.086 4.833q.486 2.43.848 4.883.364 2.449.605 4.914a100 100 0 0 1 .488 9.894m0 0"/><path fill="#dfb683" d="M211.133 339.914c3.222-7.734 6.96-15.469 11.988-22.559 5.031-7.09 11.09-13.535 18.309-18.562 7.218-5.023 15.468-8.762 24.11-10.566 1.03-.258 2.19-.387 3.222-.516 1.031-.129 2.191-.387 3.222-.387 1.16-.129 2.192-.129 3.352-.129 1.031 0 2.191-.129 3.223 0 2.191.13 4.382.387 6.574.645 2.191.387 4.254 1.031 6.32 1.676.387.129.516.515.387.902-.13.129-.258.387-.387.387-2.066.902-4 1.547-6.062 2.191a51 51 0 0 1-5.801 1.93c-1.934.644-3.738 1.418-5.543 2.062-1.805.645-3.61 1.418-5.414 2.063-7.219 2.836-14.184 5.93-20.758 9.926-6.574 3.867-13.02 8.25-18.95 13.664-5.804 5.414-10.96 11.73-14.698 18.82-.387.902-1.547 1.16-2.45.773-.644-.515-1.03-1.546-.644-2.32m-55.953-24.621c2.062-2.965 3.351-6.445 4.511-9.797 1.547-3.351 2.965-6.703 4.387-10.055l4.899-9.921a383 383 0 0 1 5.671-9.797c2.063-3.094 4.254-6.317 6.575-9.282 2.449-2.836 4.898-5.8 7.605-8.507 1.418-1.29 2.707-2.579 4.125-3.868s2.84-2.578 4.387-3.738 3.094-2.32 4.64-3.351c1.547-1.032 3.094-2.192 4.77-3.223l7.348-4.254 2.578-1.29 5.156-2.448 2.578-1.16 1.29-.645 1.288-.516c3.614-1.289 7.094-2.707 10.832-3.738 1.805-.516 3.61-1.031 5.543-1.418l2.707-.644 1.418-.387 1.418-.258c14.828-2.707 30.168-2.836 44.48.902.387.13.516.516.516.774s-.257.387-.386.516c-3.614 1.16-7.094 2.062-10.446 2.835-3.48 1.032-6.832 2.063-10.183 3.094s-6.574 2.32-9.797 3.352c-3.223 1.16-6.45 2.578-9.543 3.738-12.633 5.156-24.363 11.473-35.453 18.82-.774.387-1.418.903-2.063 1.418l-2.062 1.418c-1.418.903-2.707 1.934-4.125 2.836-2.707 1.934-5.414 3.996-8.121 5.801a431 431 0 0 1-8.125 6.059c-2.707 2.062-5.286 4.253-8.121 6.316-2.579 2.191-5.157 4.512-7.864 6.832-2.449 2.445-4.898 5.023-7.347 7.602-2.192 2.707-4.383 5.543-6.575 8.378-1.937 2.965-3.87 5.93-5.03 9.282v.129c-.259.902-1.29 1.418-2.321 1.16s-1.418-1.29-1.16-2.32c-.258-.258-.13-.516 0-.645m168.633 61.359c0 1.059-.055 2.118-.157 3.172a32.7 32.7 0 0 1-1.238 6.219 32 32 0 0 1-2.43 5.86 32 32 0 0 1-1.633 2.722 31 31 0 0 1-1.89 2.55 32 32 0 0 1-4.485 4.485 32 32 0 0 1-2.55 1.895 32.5 32.5 0 0 1-8.586 4.058 33 33 0 0 1-6.223 1.238 33 33 0 0 1-3.168.157c-1.062 0-2.117-.055-3.172-.156a33 33 0 0 1-6.222-1.239 32.5 32.5 0 0 1-5.864-2.425 32.4 32.4 0 0 1-5.273-3.527 32 32 0 0 1-4.484-4.484 31 31 0 0 1-1.891-2.552 32 32 0 0 1-1.633-2.723 32 32 0 0 1-2.43-5.859 32.7 32.7 0 0 1-1.238-6.219 33 33 0 0 1-.156-3.172c0-1.058.055-2.117.156-3.172a32.7 32.7 0 0 1 1.238-6.222 33 33 0 0 1 1.07-2.988 32.6 32.6 0 0 1 2.993-5.594 32.4 32.4 0 0 1 6.375-7.035q1.232-1.007 2.55-1.891 1.324-.884 2.723-1.633 1.407-.751 2.871-1.355 1.47-.612 2.993-1.07a32 32 0 0 1 6.222-1.239 32 32 0 0 1 3.172-.156q1.587-.001 3.168.156a32 32 0 0 1 6.223 1.238q1.522.46 2.992 1.07a32 32 0 0 1 5.594 2.989q1.32.884 2.55 1.89 1.228 1.009 2.352 2.133 1.125 1.127 2.133 2.352a32.4 32.4 0 0 1 3.523 5.273c.5.938.953 1.891 1.36 2.872q.608 1.47 1.07 2.988a32.7 32.7 0 0 1 1.238 6.223q.154 1.583.156 3.171m0 0"/><path fill="#a0562e" d="M496.695 158.293c-2.191 0-3.867 1.676-3.867 3.867v20.75H89.043v-20.75c0-2.191-1.676-3.867-3.867-3.867Zm0 0"/><path d="M493.473 183.426H88.398V162.03a3.19 3.19 0 0 0-3.222-3.222v-1.29h411.39v1.29a3.19 3.19 0 0 0-3.222 3.222v21.395Zm-403.785-1.29h402.367v-20.105c0-1.289.515-2.449 1.418-3.222H88.398c.774.773 1.418 1.933 1.418 3.222v20.106Zm201.765 365.18c-94.113 0-170.695-76.566-170.695-170.664 0-34.675 10.316-67.933 29.781-96.418.774-1.16 1.547-2.191 2.32-3.351.387-.516.645-1.031 1.032-1.418l2.32-3.094c32.617-42.152 81.867-66.387 135.113-66.387 54.016 0 105.328 25.91 137.43 69.352.773 1.031 1.547 2.191 2.32 3.223 20.238 28.742 30.942 62.644 30.942 97.964.129 94.227-76.454 170.793-170.563 170.793m0-340.043c-52.86 0-101.723 23.977-134.082 65.872l-2.32 3.093a36 36 0 0 0-1.031 1.418c-.774 1.031-1.547 2.192-2.32 3.223-19.337 28.226-29.653 61.355-29.653 95.644 0 93.325 75.937 169.375 169.402 169.375 93.34 0 169.406-75.921 169.406-169.375 0-35.062-10.574-68.707-30.683-97.32-.774-1.031-1.547-2.191-2.32-3.223-31.844-42.925-82.77-68.707-136.399-68.707m0 0"/></svg>