<svg xmlns="http://www.w3.org/2000/svg" xmlns:xlink="http://www.w3.org/1999/xlink" width="1920" zoomAndPan="magnify" viewBox="0 0 1440 484.499986" height="646" preserveAspectRatio="xMidYMid meet" version="1.0"><defs><clipPath id="160722dbf2"><path d="M 0.742188 6 L 1439 6 L 1439 483 L 0.742188 483 Z M 0.742188 6 " clip-rule="nonzero"/></clipPath></defs><path fill="#c1911d" d="M 649.902344 49.890625 C 652.195312 49.355469 645.539062 51.683594 643.628906 53.054688 C 639.597656 55.964844 635.699219 58.996094 631.550781 61.722656 C 621.679688 68.179688 611.105469 73.535156 600.480469 78.601562 C 561.746094 97.089844 520.621094 113.402344 478.207031 120.832031 C 437.316406 128.011719 395.4375 128.011719 356.453125 112.566406 C 307.667969 93.242188 264.96875 55.730469 209.6875 58.359375 C 185.011719 59.53125 106.824219 80.777344 123.621094 120.382812 C 131.320312 138.519531 158.742188 145.878906 175.140625 152.503906 C 211.714844 167.261719 247.417969 181.351562 275.84375 209.710938 C 333.683594 267.414062 355.433594 363.101562 434.371094 398.957031 C 491.175781 424.738281 553.464844 399.910156 560.609375 335.359375 C 561.109375 330.828125 560.089844 344.480469 559.589844 349.011719 C 558.585938 358.046875 557.796875 367.066406 559.355469 376.101562 C 564.105469 403.507812 586.578125 416.472656 612.207031 420.554688 C 646.054688 425.945312 691.398438 424.957031 724.207031 414.398438 C 740.570312 409.128906 763.84375 386.140625 780.828125 387.3125 C 795.601562 388.332031 812.765625 402.988281 825.296875 409.867188 C 855.398438 426.429688 891.703125 438.726562 925.601562 426.226562 C 952.40625 416.339844 969.9375 389.167969 986.285156 367.351562 C 1006.628906 340.179688 1028.382812 316.320312 1059.453125 301.347656 C 1132.515625 266.09375 1214.433594 303.503906 1291.628906 289.449219 C 1320.324219 284.214844 1368.007812 269.003906 1374.382812 234.941406 C 1378.113281 214.980469 1358.839844 203.734375 1343.113281 197.378906 C 1307.960938 183.191406 1269.527344 177.234375 1231.800781 176.632812 C 1156.476562 175.425781 1081.972656 187.589844 1007.097656 172.816406 C 965.824219 164.683594 923.308594 153.441406 884.425781 137.261719 C 857.6875 126.136719 833.042969 109.773438 805.152344 101.507812 C 767.171875 90.265625 725.078125 90.785156 685.824219 86.449219 " fill-opacity="1" fill-rule="nonzero"/><path fill="#fcc103" d="M 80.070312 116.449219 C 79.316406 119.5625 86.378906 117.605469 89.40625 118.609375 C 99.933594 122.070312 110.824219 123.859375 121.898438 124.347656 C 162.207031 126.101562 196.988281 94.164062 236.859375 102.109375 C 268.75 108.46875 288.226562 136.609375 314.492188 153.308594 C 367.214844 186.820312 430.257812 205.726562 492.128906 189.496094 C 547.507812 174.976562 577.039062 126.488281 622.566406 95.835938 C 637.289062 85.929688 667.21875 68.867188 681.375 89.128906 C 688.621094 99.515625 684.789062 127.675781 668.542969 128.027344 C 652.09375 128.378906 655.8125 87.121094 633.574219 103.179688 C 604.730469 124.011719 620.003906 163.398438 653.988281 165.539062 C 687.316406 167.648438 735.335938 127.59375 727.753906 92.070312 C 720.191406 56.535156 680.472656 37.964844 647.125 38.617188 C 588.820312 39.769531 545.199219 79.910156 495.726562 104.371094 C 465.644531 119.261719 431.746094 125.265625 398.300781 123.8125 C 343.019531 121.386719 313.421875 81.515625 265.152344 61.839844 C 203.984375 36.925781 138.429688 56.03125 82.179688 84.308594 C 65.5 92.707031 44.769531 101.40625 30.816406 114.15625 " fill-opacity="1" fill-rule="nonzero"/><path fill="#fcc103" d="M 517.109375 328.851562 C 514.78125 327.195312 520.152344 323.515625 519.71875 320.6875 C 518.867188 315.132812 512.992188 311.152344 508.910156 307.988281 C 501.882812 302.550781 494.453125 299.039062 486.324219 295.675781 C 483.828125 294.636719 479.699219 292.980469 479.882812 289.632812 C 480.214844 283.527344 489.335938 280.832031 494.101562 281.019531 C 506.25 281.503906 518.964844 291.992188 525.003906 301.898438 C 538.726562 324.386719 527.597656 349.582031 506.199219 362.097656 C 481.238281 376.6875 444.394531 378.609375 418.613281 364.839844 C 385.769531 347.324219 384.914062 306.214844 367.847656 276.769531 C 330.671875 212.585938 285.398438 151.417969 211.613281 129.199219 C 186.0625 121.519531 158.375 115.664062 131.585938 118.910156 C 124.675781 119.746094 110.839844 121.484375 108.097656 129.566406 C 106.65625 133.816406 111.058594 136.695312 114.253906 138.300781 C 124.257812 143.351562 135.703125 145.929688 146.496094 148.589844 C 189.761719 159.296875 239.421875 171.429688 269.855469 206.597656 C 291.050781 231.125 298.179688 262.730469 310.578125 291.859375 C 335.707031 350.9375 368.753906 401.148438 433.46875 420.355469 C 457.359375 427.449219 483.664062 429.777344 506.367188 417.695312 C 542.019531 398.722656 570.464844 349.800781 563.46875 309.160156 C 555.589844 263.234375 502.902344 232.765625 460.640625 256.574219 C 453.394531 260.65625 446.769531 266.128906 441.765625 272.800781 C 438.320312 277.402344 435.695312 282.640625 433.96875 288.113281 C 418.894531 335.914062 491.609375 366.914062 520.4375 330.15625 " fill-opacity="1" fill-rule="nonzero"/><path fill="#fcc103" d="M 564.425781 367.667969 C 564.257812 368.488281 576.355469 371.5 576.871094 371.632812 C 593.871094 376.234375 611.136719 378.695312 628.6875 380.03125 C 655.359375 382.058594 682.160156 382.109375 708.816406 379.78125 C 722.871094 378.5625 737.023438 377.003906 750.726562 373.492188 C 752.148438 373.125 762.355469 368.523438 763.390625 370.429688 C 766.6875 376.585938 764.78125 391.695312 765.015625 398.519531 C 765.25 405.164062 765.785156 412.140625 764.546875 418.714844 C 759.8125 443.8125 720.375 445 701.136719 446.019531 C 654.136719 448.496094 605.816406 443.027344 561.511719 426.695312 C 545.066406 420.625 524.804688 412.894531 512.742188 399.523438 " fill-opacity="1" fill-rule="nonzero"/><path fill="#fcc103" d="M 863.359375 343.859375 C 859.695312 337.25 866.757812 329.203125 860.117188 321.910156 C 846.964844 307.453125 828.960938 324.050781 825.097656 337.855469 C 815.425781 372.589844 852.25 400.078125 883.992188 397.515625 C 932.796875 393.570312 951.433594 353.765625 976.964844 318.8125 C 992.039062 298.183594 1010.929688 280.785156 1033 267.867188 C 1106.882812 224.683594 1187.175781 243.574219 1267.972656 241.683594 C 1285.222656 241.28125 1302.605469 240.09375 1319.371094 235.777344 C 1329.292969 233.214844 1338.007812 228.832031 1346.375 222.992188 C 1347.597656 222.140625 1353.71875 216.167969 1355.34375 216.503906 C 1361.433594 217.722656 1370.734375 229.636719 1375.488281 233.449219 C 1380.441406 237.417969 1388.472656 241.199219 1390.144531 247.890625 C 1392.085938 255.652344 1387.367188 264.6875 1383.550781 271.097656 C 1371.90625 290.621094 1353 303.890625 1331.082031 309.394531 C 1259.339844 327.464844 1187.664062 281.886719 1115.734375 299.925781 C 1024.734375 322.730469 995.855469 437.304688 901.105469 454.453125 C 889.078125 456.644531 876.746094 457.046875 864.601562 455.574219 C 850.578125 453.867188 836.757812 449.820312 824.292969 443.125 C 765.148438 411.402344 749.035156 300.007812 819.875 271.882812 C 828.410156 268.484375 837.59375 266.59375 846.78125 266.460938 C 877.128906 265.976562 933.667969 295.070312 914.257812 333.320312 C 910.929688 339.878906 905.910156 345.097656 900.539062 350.019531 " fill-opacity="1" fill-rule="nonzero"/><path fill="#fcc103" d="M 1299.964844 262.160156 C 1300.566406 264.035156 1298.492188 258.53125 1297.535156 256.824219 C 1295.246094 252.691406 1292.398438 248.960938 1289.304688 245.398438 C 1281.425781 236.34375 1272.457031 228.28125 1262.484375 221.570312 C 1231.683594 200.839844 1193.117188 194.71875 1156.992188 202.164062 C 1107.335938 212.402344 1062.464844 238.671875 1010.027344 233.25 C 931.074219 225.085938 884.324219 159.128906 815.859375 128.746094 C 792.167969 118.238281 767.054688 112.484375 741.105469 114.308594 C 734.765625 114.757812 717.515625 120.097656 714.136719 111.714844 C 707.59375 95.484375 733.863281 79.558594 744.953125 74.855469 C 782.617188 58.878906 830.636719 59.964844 869.484375 70.90625 C 933.316406 88.894531 975.328125 145.292969 1041.113281 159.734375 C 1067.96875 165.640625 1095.992188 167.230469 1123.011719 161.558594 C 1155.589844 154.714844 1186.894531 141.445312 1220.890625 145.359375 C 1286.445312 152.941406 1326.128906 211.398438 1364.226562 258.332031 " fill-opacity="1" fill-rule="nonzero"/><path fill="#fcc103" d="M 739.550781 97.527344 C 740.253906 98.113281 745.421875 95.703125 746.058594 95.503906 C 752.183594 93.425781 758.289062 91.4375 764.613281 90.03125 C 785.894531 85.261719 807.195312 85.546875 828.445312 90.382812 C 883.992188 103.03125 922.722656 152.269531 973.453125 175.492188 C 1006.898438 190.785156 1046.402344 197.832031 1082.707031 190.050781 C 1117.542969 182.570312 1150.269531 163.179688 1186.425781 163.246094 C 1204.710938 163.261719 1223.734375 166.492188 1240.367188 174.40625 C 1256.628906 182.152344 1269.359375 195.671875 1283.816406 206.128906 C 1306.539062 222.523438 1333.625 235.441406 1361.566406 239.171875 C 1366.417969 239.808594 1371.320312 240.226562 1376.222656 240.328125 C 1380.472656 240.429688 1384.738281 240.261719 1388.972656 239.859375 C 1392.4375 239.539062 1395.882812 239.054688 1399.3125 238.4375 C 1401.4375 238.050781 1403.578125 237.652344 1405.6875 237.199219 C 1409.183594 236.429688 1427.941406 233.417969 1428.644531 225.957031 C 1428.710938 225.167969 1409.300781 222.945312 1408.148438 222.726562 C 1393.273438 219.964844 1378.785156 215.382812 1364.964844 209.222656 C 1328.121094 192.792969 1301.351562 162.242188 1265.695312 144.589844 C 1232.652344 128.226562 1191.5625 120.398438 1155.335938 129.648438 C 1118.5625 139.035156 1085.402344 162.445312 1045.867188 155.535156 C 1007.851562 148.875 981.867188 121.519531 952.152344 99.402344 C 925.519531 79.589844 895.335938 64.867188 863.042969 57.152344 C 833.695312 50.160156 801.070312 47.230469 771.15625 51.75 C 759.007812 53.574219 742.996094 56.601562 735.449219 67.445312 " fill-opacity="1" fill-rule="nonzero"/><path fill="#fcc103" d="M 1378.148438 221.019531 C 1379.035156 220.769531 1377.261719 222.609375 1376.910156 223.445312 C 1376.140625 225.320312 1375.371094 227.195312 1374.652344 229.082031 C 1372.574219 234.539062 1370.585938 240.078125 1367.941406 245.296875 C 1360.0625 260.921875 1345.421875 272.585938 1330.027344 280.347656 C 1312.542969 289.183594 1292.382812 287.191406 1273.527344 285.652344 C 1246.589844 283.445312 1219.703125 280.5 1192.832031 277.4375 C 1130.359375 270.34375 1068.085938 274.578125 1018.609375 317.925781 C 985.25 347.15625 964.234375 387.210938 926.285156 411.707031 C 910.527344 421.894531 891.671875 430.5625 872.496094 429.289062 C 835.167969 426.832031 802.460938 389.703125 798.058594 353.984375 C 796.035156 337.570312 798.59375 319.816406 810.15625 307.285156 C 823.125 293.25 845.34375 287.675781 863.042969 295.507812 C 873.199219 299.992188 885.027344 310.949219 879.558594 323.195312 C 876.410156 330.273438 856.050781 337.550781 868.113281 345.601562 C 869.351562 346.421875 870.6875 347.074219 872.0625 347.640625 C 874.269531 348.546875 876.597656 349.148438 878.9375 349.597656 C 911.648438 355.90625 936.878906 316.921875 919.125 288.914062 C 912.484375 278.457031 901.792969 271.0625 891.117188 265.207031 C 853.507812 244.542969 800.402344 249.179688 771.070312 282.992188 C 755.109375 301.378906 751.027344 328.167969 755.730469 351.472656 C 760.597656 375.550781 774.820312 397.382812 790.664062 415.753906 C 803.230469 430.292969 818.070312 444.011719 835.117188 453.148438 C 847.984375 460.058594 862.660156 464.558594 877.097656 466.632812 C 925.117188 473.511719 970.390625 447.527344 999.570312 410.601562 C 1025.71875 377.539062 1045.296875 335.195312 1088.429688 321.105469 C 1121.992188 310.148438 1154.316406 325.054688 1186.910156 332.199219 C 1218.984375 339.226562 1253.28125 338.605469 1285.421875 332.566406 C 1314.738281 327.0625 1344.71875 319.164062 1368.660156 300.507812 C 1380.722656 291.105469 1390.378906 279.011719 1399.75 267.03125 C 1407.644531 256.925781 1424.109375 240.34375 1422.25 225.6875 " fill-opacity="1" fill-rule="nonzero"/><path fill="#fcc103" d="M 767.875 397.585938 C 769.0625 397.550781 765.550781 398.152344 764.460938 398.621094 C 762.523438 399.441406 760.566406 400.210938 758.605469 400.945312 C 753.019531 402.988281 747.265625 404.710938 741.558594 406.367188 C 725.277344 411.101562 708.445312 413.378906 691.566406 414.515625 C 655.859375 416.941406 619.957031 414.214844 585.003906 406.519531 C 574.746094 404.277344 564.675781 401.382812 554.601562 398.40625 C 551.941406 397.601562 546.019531 394.90625 543.628906 397.683594 C 540.816406 400.964844 541.636719 408.828125 541.769531 412.726562 C 542.824219 442.441406 582.175781 450.003906 605.382812 455.191406 C 649.335938 465.042969 696.617188 462.636719 737.792969 443.496094 C 753.183594 436.335938 768.929688 427.71875 779.472656 414.046875 " fill-opacity="1" fill-rule="nonzero"/><path fill="#fcc103" d="M 521.375 330.292969 C 520.855469 331.363281 522.929688 328.382812 523.332031 327.246094 C 524.070312 325.136719 523.886719 322.996094 522.949219 320.957031 C 520.453125 315.566406 514.78125 312.707031 508.960938 313.277344 C 495.207031 314.582031 487.628906 329.621094 472.820312 329.136719 C 452.945312 328.5 444.058594 305.679688 453.730469 289.9375 C 470.210938 263.082031 507.941406 264.789062 528.601562 285.351562 C 552.863281 309.511719 545.820312 341.382812 531.429688 368.773438 C 525.992188 379.148438 520.035156 390.375 510.382812 397.46875 C 485.320312 415.871094 445.867188 416.15625 419.113281 401.949219 C 403.703125 393.769531 391.640625 380.871094 380.011719 368.136719 C 370.242188 357.414062 360.753906 346.386719 354.664062 333.070312 C 349.261719 321.273438 346.699219 308.289062 342.585938 295.992188 C 333.015625 267.367188 321.886719 238.234375 302.847656 214.425781 C 279.925781 185.765625 251.164062 157.910156 216.296875 144.859375 C 181.628906 131.875 143.75 132.261719 108.597656 121.066406 C 82.011719 112.601562 57.585938 95.199219 39.714844 73.902344 C 34.765625 68.011719 26.214844 52.570312 19.472656 65.035156 C 5.851562 90.214844 40.203125 116.984375 56.765625 130.421875 C 77.847656 147.519531 102.074219 160.152344 128.859375 165.304688 C 172.445312 173.703125 221.300781 169.6875 257.554688 199.839844 C 274.253906 213.726562 285.144531 232.75 289.582031 253.929688 C 294.316406 276.652344 293.378906 299.136719 301.242188 321.457031 C 307.449219 339.074219 317.203125 354.71875 328.78125 369.308594 C 369.722656 420.890625 441.582031 462.683594 506.382812 428.304688 C 534.742188 413.246094 560.910156 392.78125 564.457031 358.652344 C 565.878906 344.980469 564.523438 330.960938 562.464844 317.441406 C 556.644531 279.109375 535.328125 232.796875 489.25 237.382812 C 480.464844 238.269531 471.917969 240.847656 463.902344 244.511719 C 453.042969 249.480469 443.140625 256.640625 435.242188 265.640625 C 430.273438 271.3125 426.324219 277.855469 423.949219 285.035156 C 406.214844 338.554688 486.207031 375.230469 520.4375 334.15625 " fill-opacity="1" fill-rule="nonzero"/><path fill="#fcc103" d="M 44.234375 85.230469 C 44.066406 86.5 52.53125 91.417969 53.351562 91.90625 C 63.539062 97.710938 75.804688 101.140625 87.382812 102.546875 C 110.171875 105.304688 131.519531 97.777344 150.492188 85.597656 C 169.535156 73.351562 188.105469 56.753906 211.832031 55.3125 C 243.753906 53.371094 271.828125 83.1875 295.234375 101.023438 C 333.03125 129.800781 377.738281 155.71875 426.742188 154.863281 C 477.925781 153.976562 519.097656 127.507812 558.71875 97.777344 C 586.242188 77.148438 614.183594 50.292969 651.140625 51.714844 C 668.625 52.367188 688.234375 60.316406 697.707031 75.777344 C 713.433594 101.425781 694.492188 138.953125 666.601562 146.265625 C 663.324219 147.117188 659.941406 147.484375 656.5625 147.132812 C 626.179688 143.972656 648.734375 111.515625 653.769531 97.140625 C 656.09375 90.515625 656.328125 81.597656 647.578125 80.492188 C 636.820312 79.140625 626.964844 86.566406 620.960938 94.800781 C 608.878906 111.363281 605.785156 135.707031 617.011719 153.542969 C 621.878906 161.289062 632.238281 176.582031 640.265625 180.597656 C 688.785156 204.90625 738.730469 150.882812 738.761719 100.203125 C 738.78125 87.570312 737.527344 74.035156 731.871094 62.558594 C 718.703125 35.886719 687.199219 22.753906 659.023438 21.617188 C 577.792969 18.304688 523.484375 104.300781 441.132812 101.777344 C 384.765625 100.035156 337.617188 58.425781 289.363281 34.214844 C 261.4375 20.210938 227.074219 12.632812 195.835938 14.855469 C 153.488281 17.886719 123.824219 45.191406 86.027344 60.015625 C 73.914062 64.75 60.929688 67.445312 47.898438 66.421875 C 36.921875 65.570312 16.695312 50.226562 15.339844 67.527344 C 15.15625 69.902344 15.171875 72.328125 15.457031 74.6875 C 15.90625 78.554688 17.09375 82.21875 18.75 85.730469 C 21.328125 91.152344 24.960938 96.039062 29.140625 100.320312 C 34.546875 105.875 40.820312 110.324219 47.3125 114.507812 " fill-opacity="1" fill-rule="nonzero"/><g clip-path="url(#160722dbf2)"><path fill="#624313" d="M 530.980469 431.128906 C 528.101562 433.289062 525.105469 435.246094 522.011719 436.988281 C 476.734375 462.550781 427.3125 455.492188 385.316406 431.0625 C 344.460938 407.320312 310.84375 367.066406 295.652344 326.109375 C 287.554688 304.273438 283.875 280.484375 277.550781 258.011719 C 271.863281 237.851562 264.015625 218.761719 247.050781 204.003906 C 230.652344 189.75 212.550781 184.128906 193.609375 181.28125 C 172.761719 178.15625 150.929688 178.253906 128.875 175.425781 C 94.257812 170.976562 60.8125 157.15625 36.1875 131.824219 C 20.609375 115.8125 9.113281 95.734375 3.792969 74.003906 C 2.738281 69.734375 0.75 61.671875 0.78125 55.164062 C 0.816406 50.578125 1.855469 46.546875 3.625 43.585938 C 4.195312 42.613281 9.113281 35.621094 17.515625 39.269531 C 19.070312 39.953125 26.5 44.054688 26.734375 44.171875 C 32.269531 47.148438 37.992188 49.910156 44.015625 51.785156 C 58.269531 56.25 73.429688 54.511719 87.667969 50.679688 C 114.921875 43.316406 136.355469 25.683594 162.070312 15.257812 C 183.371094 6.625 206.742188 4.316406 229.449219 7.277344 C 267.007812 12.179688 302.949219 30.351562 334.671875 50.195312 C 361.492188 66.976562 386.136719 87.671875 418.527344 92.105469 C 460.441406 97.859375 503.035156 78.367188 537.972656 57.054688 C 562.214844 42.28125 585.054688 24.445312 612.492188 15.859375 C 647.410156 4.953125 693.621094 0 722.183594 28.394531 C 729.996094 36.171875 736.101562 44.90625 740.585938 54.210938 C 749.574219 50.195312 759.34375 47.449219 768.277344 44.992188 C 825.933594 29.078125 889.929688 46.34375 939.570312 78.183594 C 970.273438 97.878906 995.6875 126.421875 1032.011719 136.242188 C 1057.910156 143.234375 1083.042969 136.308594 1108.273438 128.496094 C 1136.75 119.695312 1165.359375 109.691406 1194.875 111.582031 C 1229.941406 113.839844 1263.503906 124.664062 1292.199219 145.125 C 1312.378906 159.515625 1328.523438 179.292969 1349.839844 192.125 C 1364.679688 201.074219 1381.445312 206.3125 1398.058594 210.914062 C 1408.882812 213.910156 1423.019531 215.867188 1432.777344 221.6875 C 1438.164062 224.882812 1439.101562 229.21875 1438.28125 233.667969 C 1437.996094 235.207031 1437.359375 236.929688 1436.105469 238.65625 C 1435.316406 239.742188 1432.625 242.132812 1431.871094 242.785156 C 1428.292969 247.355469 1424.542969 251.804688 1420.664062 256.105469 C 1401.40625 277.4375 1381.257812 299.40625 1356.949219 315.066406 C 1315.472656 341.800781 1257.917969 351.324219 1209.429688 344.765625 C 1177.40625 340.414062 1145.484375 327.078125 1112.972656 327.261719 C 1087.359375 327.414062 1067.816406 339.863281 1051.152344 356.425781 C 1032.832031 374.613281 1017.875 397.703125 1002.964844 417.242188 C 976.730469 451.644531 938.667969 479.867188 894.113281 482.445312 C 878.703125 483.332031 863.328125 480.472656 848.90625 475.167969 C 829.714844 468.089844 811.628906 457.5 795.550781 444.933594 C 791.148438 441.503906 786.964844 437.871094 783.050781 434.058594 C 769.296875 443.476562 754.589844 452.882812 739.300781 458.921875 C 707.695312 471.4375 671.351562 472.523438 637.972656 469.226562 C 598.839844 465.363281 561.765625 456.578125 530.980469 431.128906 Z M 722.535156 66.792969 C 718.988281 58.457031 713.816406 50.628906 706.890625 43.753906 C 696.082031 32.992188 681.777344 29.128906 666.96875 28.710938 C 650.605469 28.242188 633.589844 31.972656 618.96875 36.558594 C 593.21875 44.589844 571.988281 61.6875 549.265625 75.558594 C 510.265625 99.351562 462.363281 119.996094 415.582031 113.589844 C 380.0625 108.703125 352.589844 86.96875 323.175781 68.566406 C 294.03125 50.328125 261.152344 33.277344 226.652344 28.777344 C 207.628906 26.285156 188.054688 28.109375 170.203125 35.335938 C 143.683594 46.09375 121.429688 64.011719 93.304688 71.59375 C 75.121094 76.496094 55.742188 78.167969 37.542969 72.460938 C 33.058594 71.074219 28.707031 69.285156 24.457031 67.292969 C 24.589844 67.863281 24.722656 68.378906 24.839844 68.847656 C 29.242188 86.851562 38.8125 103.449219 51.710938 116.71875 C 72.910156 138.519531 101.839844 150.113281 131.636719 153.925781 C 153.839844 156.773438 175.824219 156.703125 196.820312 159.851562 C 219.710938 163.296875 241.445312 170.425781 261.269531 187.65625 C 281.617188 205.359375 291.585938 227.945312 298.414062 252.140625 C 304.589844 274.039062 308.085938 297.28125 315.980469 318.578125 C 329.550781 355.1875 359.667969 391.109375 396.191406 412.339844 C 431.59375 432.902344 473.207031 439.664062 511.371094 418.113281 C 530.226562 407.472656 544.027344 386.726562 551.757812 363.820312 C 559.605469 340.597656 561.210938 314.980469 554.503906 294.570312 C 541.652344 255.503906 497.550781 238.90625 461.109375 255.855469 C 446.335938 262.730469 433.851562 275.746094 431.160156 292.195312 C 425.320312 327.796875 461.425781 356.109375 494.136719 339.894531 C 502.285156 335.863281 508.390625 329.773438 514.230469 322.945312 C 518.113281 318.414062 524.953125 317.875 529.507812 321.757812 C 534.039062 325.640625 534.574219 332.484375 530.695312 337.035156 C 522.929688 346.101562 514.582031 353.949219 503.757812 359.320312 C 455.085938 383.429688 401.09375 341.667969 409.777344 288.679688 C 413.625 265.171875 430.839844 246.03125 451.972656 236.210938 C 500.074219 213.824219 558.132812 236.210938 575.082031 287.8125 C 583.113281 312.238281 581.675781 342.941406 572.289062 370.746094 C 566.582031 387.664062 557.949219 403.441406 546.941406 416.171875 C 573.878906 437.421875 606.234375 444.316406 640.101562 447.660156 C 670.148438 450.640625 702.890625 450.035156 731.335938 438.777344 C 744.351562 433.625 756.851562 425.710938 768.664062 417.660156 C 761.101562 407.503906 755.042969 396.261719 750.675781 383.914062 C 739.347656 351.773438 738.914062 314.011719 756.617188 283.960938 C 789.894531 227.425781 874.773438 223.011719 920.082031 266.210938 C 934.671875 280.113281 942.097656 304.273438 939.070312 324.585938 C 937.429688 335.664062 932.777344 345.550781 925.148438 352.558594 C 917.386719 359.671875 906.496094 364.089844 891.855469 363.136719 C 881.496094 362.464844 871.808594 358.484375 862.824219 353.5625 C 857.570312 350.6875 855.648438 344.109375 858.527344 338.859375 C 861.386719 333.621094 867.980469 331.679688 873.234375 334.558594 C 879.457031 337.972656 886.066406 341.050781 893.257812 341.519531 C 900.773438 342.003906 906.511719 340.246094 910.492188 336.597656 C 914.59375 332.835938 916.75 327.347656 917.636719 321.40625 C 919.679688 307.6875 914.976562 291.273438 905.140625 281.886719 C 869.167969 247.605469 801.707031 250.082031 775.289062 294.953125 C 760.816406 319.515625 761.851562 350.4375 771.105469 376.703125 C 778.433594 397.449219 791.601562 414.367188 808.882812 427.867188 C 823.222656 439.0625 839.300781 448.53125 856.402344 454.820312 C 868.027344 459.121094 880.445312 461.53125 892.859375 460.8125 C 931.074219 458.601562 963.246094 433.605469 985.75 404.109375 C 1001.226562 383.796875 1016.871094 359.9375 1035.878906 341.050781 C 1056.554688 320.519531 1081.101562 305.78125 1112.855469 305.597656 C 1146.371094 305.394531 1179.332031 318.8125 1212.339844 323.28125 C 1255.992188 329.203125 1307.859375 320.921875 1345.203125 296.84375 C 1367.925781 282.222656 1386.582031 261.527344 1404.582031 241.582031 C 1406.324219 239.660156 1408.011719 237.699219 1409.6875 235.726562 C 1403.761719 234.21875 1397.523438 233.25 1392.269531 231.792969 C 1373.78125 226.65625 1355.191406 220.652344 1338.664062 210.695312 C 1316.878906 197.578125 1300.261719 177.484375 1279.617188 162.761719 C 1254.234375 144.660156 1224.503906 135.203125 1193.484375 133.214844 C 1166.582031 131.472656 1140.632812 141.179688 1114.664062 149.191406 C 1085.484375 158.226562 1056.324219 165.253906 1026.355469 157.15625 C 987.859375 146.75 960.417969 117.300781 927.878906 96.421875 C 883.253906 67.8125 825.867188 51.566406 774.050781 65.871094 C 765.550781 68.214844 755.996094 70.570312 747.699219 74.65625 C 755.078125 107.496094 745.273438 143.769531 721.230469 169.921875 C 701.921875 190.902344 672.339844 205.761719 643.296875 198.214844 C 627.25 194.03125 611.808594 182.789062 602.054688 168.25 C 591.8125 153.007812 587.816406 134.335938 594.539062 116.484375 C 602.570312 95.152344 621.527344 82.785156 642.375 76.394531 C 648.097656 74.636719 654.171875 77.851562 655.925781 83.554688 C 657.683594 89.277344 654.453125 95.351562 648.75 97.109375 C 634.261719 101.558594 620.40625 109.304688 614.820312 124.128906 C 610.636719 135.203125 613.679688 146.714844 620.039062 156.167969 C 626.863281 166.324219 637.539062 174.324219 648.75 177.234375 C 670 182.753906 691.164062 170.609375 705.269531 155.265625 C 724.007812 134.886719 732.136719 106.710938 726.949219 81.0625 C 725.761719 80.394531 724.691406 79.507812 723.789062 78.386719 C 721.0625 74.988281 720.726562 70.457031 722.535156 66.792969 Z M 722.535156 66.792969 " fill-opacity="1" fill-rule="evenodd"/></g></svg>