<svg xmlns="http://www.w3.org/2000/svg" viewBox="0 0 1440 484.5"><defs><clipPath id="a"><path d="M.742 6H1439v477H.742Zm0 0"/></clipPath></defs><path fill="#c1911d" d="M649.902 49.89c2.293-.535-4.363 1.794-6.273 3.165-4.031 2.91-7.93 5.941-12.078 8.668-9.871 6.457-20.446 11.812-31.07 16.879-38.735 18.488-79.86 34.8-122.274 42.23-40.89 7.18-82.77 7.18-121.754-8.266C307.668 93.242 264.97 55.73 209.688 58.36c-24.676 1.172-102.864 22.418-86.067 62.024 7.7 18.137 35.121 25.496 51.52 32.12 36.574 14.759 72.277 28.849 100.703 57.208 57.84 57.703 79.59 153.39 158.527 189.246 56.805 25.781 119.094.953 126.238-63.598.5-4.53-.52 9.121-1.02 13.653-1.003 9.035-1.792 18.054-.234 27.09 4.75 27.406 27.223 40.37 52.852 44.453 33.848 5.39 79.191 4.402 112-6.157 16.363-5.27 39.637-28.257 56.621-27.086 14.774 1.02 31.938 15.676 44.469 22.555 30.101 16.563 66.406 28.86 100.305 16.36 26.804-9.887 44.336-37.059 60.683-58.875 20.344-27.172 42.098-51.032 73.168-66.004 73.063-35.254 154.98 2.156 232.176-11.899 28.695-5.234 76.379-20.445 82.754-54.508 3.73-19.96-15.543-31.207-31.27-37.562-35.152-14.188-73.586-20.145-111.312-20.746-75.324-1.207-149.828 10.957-224.703-3.817-41.274-8.132-83.79-19.375-122.672-35.554-26.739-11.125-51.383-27.489-79.274-35.754-37.98-11.242-80.074-10.723-119.328-15.059"/><path fill="#fcc103" d="M80.07 116.45c-.754 3.112 6.309 1.155 9.336 2.16 10.528 3.46 21.418 5.25 32.492 5.738 40.309 1.754 75.09-30.184 114.961-22.239 31.891 6.36 51.368 34.5 77.633 51.2 52.723 33.511 115.766 52.418 177.637 36.187 55.379-14.52 84.91-63.008 130.437-93.66 14.723-9.906 44.653-26.969 58.809-6.707 7.246 10.387 3.414 38.547-12.832 38.898-16.45.352-12.73-40.906-34.969-24.847-28.844 20.832-13.57 60.218 20.414 62.36 33.328 2.108 81.348-37.946 73.766-73.47-7.563-35.535-47.281-54.105-80.629-53.453-58.305 1.153-101.926 41.293-151.398 65.754-30.082 14.89-63.98 20.895-97.426 19.442-55.281-2.426-84.88-42.297-133.149-61.973C203.984 36.926 138.43 56.03 82.18 84.309c-16.68 8.398-37.41 17.097-51.364 29.847"/><path fill="#fcc103" d="M517.11 328.852c-2.329-1.657 3.042-5.336 2.609-8.164-.852-5.555-6.727-9.536-10.809-12.7-7.027-5.437-14.457-8.949-22.586-12.312-2.496-1.04-6.625-2.696-6.441-6.043.332-6.106 9.453-8.801 14.219-8.613 12.148.484 24.863 10.972 30.902 20.878 13.723 22.489 2.594 47.684-18.805 60.2-24.96 14.59-61.804 16.511-87.586 2.742-32.843-17.516-33.699-58.625-50.765-88.07-37.176-64.184-82.45-125.352-156.235-147.57-25.55-7.68-53.238-13.536-80.027-10.29-6.91.836-20.746 2.574-23.488 10.656-1.442 4.25 2.96 7.13 6.156 8.735 10.004 5.05 21.45 7.629 32.242 10.289 43.266 10.707 92.926 22.84 123.36 58.008 21.195 24.527 28.324 56.132 40.722 85.261 25.129 59.079 58.176 109.29 122.89 128.496 23.891 7.094 50.196 9.422 72.9-2.66 35.652-18.972 64.097-67.894 57.1-108.535-7.878-45.926-60.566-76.394-102.827-52.586-7.246 4.082-13.871 9.555-18.875 16.227-3.446 4.601-6.07 9.84-7.797 15.312-15.074 47.801 57.64 78.801 86.469 42.043"/><path fill="#fcc103" d="M564.426 367.668c-.168.82 11.93 3.832 12.445 3.965 17 4.601 34.266 7.062 51.817 8.398 26.671 2.028 53.472 2.078 80.128-.25 14.055-1.219 28.207-2.777 41.91-6.289 1.422-.367 11.63-4.969 12.665-3.062 3.297 6.156 1.39 21.265 1.625 28.09.234 6.644.77 13.62-.47 20.195-4.734 25.098-44.171 26.285-63.41 27.305-47 2.476-95.32-2.993-139.624-19.325-16.446-6.07-36.707-13.8-48.77-27.172M863.36 343.86c-3.664-6.609 3.399-14.656-3.242-21.949-13.152-14.457-31.156 2.14-35.02 15.945-9.671 34.735 27.153 62.223 58.895 59.66 48.805-3.945 67.442-43.75 92.973-78.702 15.074-20.63 33.965-38.028 56.035-50.946 73.883-43.183 154.176-24.293 234.973-26.183 17.25-.403 34.632-1.59 51.398-5.907 9.922-2.562 18.637-6.945 27.004-12.785 1.223-.851 7.344-6.824 8.969-6.488 6.09 1.219 15.39 13.133 20.144 16.945 4.953 3.969 12.985 7.75 14.657 14.442 1.94 7.761-2.778 16.797-6.594 23.207-11.645 19.523-30.551 32.793-52.469 38.297-71.742 18.07-143.418-27.508-215.348-9.47-91 22.805-119.879 137.38-214.629 154.528-12.027 2.192-24.359 2.594-36.503 1.121-14.024-1.707-27.844-5.754-40.309-12.449-59.145-31.723-75.258-143.117-4.418-171.242 8.535-3.399 17.719-5.29 26.906-5.422 30.348-.484 86.887 28.61 67.477 66.86-3.328 6.558-8.348 11.777-13.719 16.699"/><path fill="#fcc103" d="M1299.965 262.16c.601 1.875-1.473-3.629-2.43-5.336-2.289-4.133-5.137-7.863-8.23-11.426-7.88-9.054-16.848-17.117-26.82-23.828-30.801-20.73-69.368-26.851-105.493-19.406-49.656 10.238-94.527 36.508-146.965 31.086-78.953-8.164-125.703-74.121-194.168-104.504-23.691-10.508-48.804-16.262-74.754-14.437-6.34.449-23.59 5.789-26.968-2.594-6.543-16.23 19.726-32.156 30.816-36.86 37.664-15.976 85.684-14.89 124.531-3.949 63.832 17.989 105.844 74.387 171.63 88.828 26.855 5.907 54.878 7.496 81.898 1.825 32.578-6.844 63.883-20.114 97.879-16.2 65.554 7.582 105.238 66.04 143.336 112.973"/><path fill="#fcc103" d="M739.55 97.527c.704.586 5.872-1.824 6.509-2.023 6.125-2.078 12.23-4.067 18.554-5.473 21.282-4.77 42.582-4.484 63.832.352 55.547 12.648 94.278 61.887 145.008 85.11 33.445 15.292 72.95 22.339 109.254 14.558 34.836-7.48 67.563-26.871 103.719-26.805 18.285.016 37.308 3.246 53.941 11.16 16.262 7.746 28.992 21.266 43.45 31.723 22.722 16.394 49.808 29.312 77.75 33.043 4.851.637 9.753 1.055 14.656 1.156 4.25.102 8.515-.066 12.75-.469 3.465-.32 6.91-.804 10.34-1.422 2.124-.386 4.265-.785 6.374-1.238 3.497-.77 22.254-3.781 22.958-11.242.066-.789-19.344-3.012-20.497-3.23-14.875-2.762-29.363-7.344-43.183-13.504-36.844-16.43-63.613-46.98-99.27-64.633-33.043-16.363-74.132-24.192-110.36-14.942-36.773 9.387-69.933 32.797-109.468 25.887-38.015-6.66-64-34.015-93.715-56.133-26.632-19.812-56.816-34.535-89.109-42.25-29.348-6.992-61.973-9.922-91.887-5.402-12.148 1.824-28.16 4.852-35.707 15.695"/><path fill="#fcc103" d="M1378.148 221.02c.887-.25-.886 1.59-1.238 2.425-.77 1.875-1.539 3.75-2.258 5.637-2.078 5.457-4.066 10.996-6.71 16.215-7.88 15.625-22.52 27.289-37.915 35.05-17.484 8.837-37.644 6.844-56.5 5.305-26.937-2.207-53.824-5.152-80.695-8.214-62.473-7.094-124.746-2.86-174.223 40.488-33.359 29.23-54.375 69.285-92.324 93.781-15.758 10.188-34.613 18.856-53.789 17.582-37.328-2.457-70.035-39.586-74.437-75.305-2.024-16.414.535-34.168 12.097-46.699 12.969-14.035 35.188-19.61 52.887-11.777 10.156 4.484 21.984 15.441 16.516 27.687-3.149 7.078-23.508 14.356-11.446 22.407 1.239.82 2.574 1.472 3.95 2.039 2.207.906 4.535 1.507 6.875 1.957 32.71 6.308 57.94-32.676 40.187-60.684-6.64-10.457-17.332-17.851-28.008-23.707-37.61-20.664-90.715-16.027-120.047 17.785-15.96 18.387-20.043 45.176-15.34 68.48 4.868 24.079 19.09 45.91 34.934 64.282 12.566 14.539 27.406 28.258 44.453 37.394 12.867 6.91 27.543 11.41 41.98 13.485 48.02 6.879 93.294-19.106 122.473-56.031 26.149-33.063 45.727-75.407 88.86-89.497 33.562-10.957 65.886 3.95 98.48 11.094 32.074 7.028 66.371 6.406 98.512.367 29.316-5.503 59.297-13.402 83.238-32.058 12.063-9.403 21.719-21.496 31.09-33.477 7.895-10.105 24.36-26.687 22.5-41.344m-654.375 171.9c1.188-.035-2.324.566-3.414 1.035-1.938.82-3.895 1.59-5.856 2.324-5.585 2.043-11.34 3.766-17.046 5.422-16.282 4.735-33.114 7.012-49.993 8.149-35.707 2.425-71.609-.301-106.562-7.996-10.258-2.243-20.328-5.137-30.402-8.114-2.66-.804-8.582-3.5-10.973-.722-2.813 3.28-1.992 11.144-1.86 15.043 1.055 29.714 40.407 37.277 63.614 42.464 43.953 9.852 91.234 7.446 132.41-11.695 15.39-7.16 31.137-15.777 41.68-29.45"/><path fill="#fcc103" d="M521.375 330.293c-.52 1.07 1.555-1.91 1.957-3.047.738-2.11.555-4.25-.383-6.289-2.496-5.39-8.168-8.25-13.988-7.68-13.754 1.305-21.332 16.344-36.14 15.86-19.876-.637-28.762-23.457-19.09-39.2 16.48-26.855 54.21-25.148 74.87-4.585 24.262 24.16 17.22 56.03 2.829 83.421-5.438 10.375-11.395 21.602-21.047 28.696-25.063 18.402-64.516 18.687-91.27 4.48-15.41-8.18-27.472-21.078-39.101-33.812-9.77-10.723-19.258-21.75-25.348-35.067-5.402-11.797-7.965-24.78-12.078-37.078-9.57-28.625-20.7-57.758-39.738-81.566-22.922-28.66-51.684-56.516-86.551-69.567-34.668-12.984-72.547-12.597-107.7-23.793-26.585-8.464-51.011-25.867-68.882-47.164-4.95-5.89-13.5-21.332-20.242-8.867-13.621 25.18 20.73 51.95 37.293 65.387 21.082 17.098 45.308 29.73 72.093 34.883 43.586 8.398 92.442 4.382 128.696 34.535 16.699 13.887 27.59 32.91 32.027 54.09 4.734 22.722 3.797 45.207 11.66 67.527 6.207 17.617 15.961 33.262 27.54 47.852 40.94 51.582 112.8 93.375 177.6 58.996 28.36-15.059 54.528-35.524 58.075-69.653 1.422-13.672.066-27.691-1.992-41.21-5.82-38.333-27.137-84.645-73.215-80.06-8.785.888-17.332 3.466-25.348 7.13-10.859 4.968-20.761 12.129-28.66 21.129-4.969 5.671-8.918 12.214-11.293 19.394-17.734 53.52 62.258 90.195 96.488 49.121"/><path fill="#fcc103" d="M44.234 85.23c-.168 1.27 8.297 6.188 9.118 6.676 10.187 5.805 22.453 9.235 34.03 10.64 22.79 2.759 44.138-4.769 63.11-16.948 19.043-12.246 37.613-28.844 61.34-30.285 31.922-1.942 59.996 27.874 83.402 45.71 37.797 28.778 82.504 54.696 131.508 53.84 51.184-.886 92.356-27.355 131.977-57.086 27.523-20.629 55.465-47.484 92.422-46.062 17.484.652 37.093 8.601 46.566 24.062 15.727 25.649-3.215 63.176-31.105 70.489-3.278.851-6.66 1.218-10.04.867-30.382-3.16-7.828-35.617-2.792-49.992 2.324-6.625 2.558-15.543-6.192-16.649-10.758-1.351-20.613 6.074-26.617 14.309-12.082 16.562-15.176 40.906-3.95 58.742 4.868 7.746 15.227 23.039 23.255 27.055 48.52 24.308 98.464-29.715 98.496-80.395.02-12.633-1.235-26.168-6.89-37.644-13.169-26.672-44.673-39.805-72.849-40.942-81.23-3.312-135.539 82.684-217.89 80.16-56.367-1.742-103.516-43.351-151.77-67.562-27.925-14.004-62.289-21.582-93.527-19.36-42.348 3.032-72.012 30.336-109.809 45.16-12.113 4.735-25.097 7.43-38.129 6.407-10.976-.852-31.203-16.195-32.558 1.105-.184 2.375-.168 4.801.117 7.16.45 3.868 1.637 7.532 3.293 11.043 2.578 5.422 6.21 10.31 10.39 14.59 5.407 5.555 11.68 10.004 18.172 14.188"/><g clip-path="url(#a)"><path fill="#624313" fill-rule="evenodd" d="M530.98 431.129a82 82 0 0 1-8.968 5.86c-45.278 25.562-94.7 18.503-136.696-5.926-40.855-23.743-74.472-63.997-89.664-104.954-8.097-21.836-11.777-45.625-18.101-68.097-5.688-20.16-13.535-39.25-30.5-54.008-16.399-14.254-34.5-19.875-53.442-22.723-20.847-3.125-42.68-3.027-64.734-5.855-34.617-4.45-68.063-18.27-92.688-43.602-15.578-16.012-27.074-36.09-32.394-57.82C2.738 69.734.75 61.672.781 55.164c.035-4.586 1.074-8.617 2.844-11.578.57-.973 5.488-7.965 13.89-4.316 1.555.683 8.985 4.785 9.22 4.902 5.535 2.976 11.257 5.738 17.28 7.613C58.27 56.25 73.43 54.512 87.669 50.68c27.254-7.364 48.687-24.996 74.402-35.422 21.301-8.633 44.672-10.942 67.38-7.98 37.558 4.902 73.5 23.074 105.222 42.917 26.82 16.782 51.465 37.477 83.855 41.91 41.914 5.754 84.508-13.738 119.446-35.05 24.242-14.774 47.082-32.61 74.52-41.196C647.41 4.953 693.62 0 722.182 28.395c7.813 7.777 13.919 16.511 18.403 25.816 8.988-4.016 18.758-6.762 27.691-9.219 57.657-15.914 121.653 1.352 171.293 33.192 30.703 19.695 56.117 48.238 92.442 58.058 25.898 6.992 51.031.067 76.261-7.746 28.477-8.8 57.086-18.805 86.602-16.914 35.066 2.258 68.629 13.082 97.324 33.543 20.18 14.39 36.324 34.168 57.64 47 14.84 8.95 31.606 14.188 48.22 18.79 10.824 2.995 24.96 4.952 34.718 10.773 5.387 3.195 6.325 7.53 5.504 11.98-.285 1.539-.922 3.262-2.176 4.988-.789 1.086-3.48 3.477-4.234 4.13a250 250 0 0 1-11.207 13.32c-19.258 21.332-39.406 43.3-63.715 58.96-41.476 26.735-99.031 36.258-147.52 29.7-32.023-4.352-63.945-17.688-96.456-17.504-25.614.152-45.157 12.601-61.82 29.164-18.321 18.187-33.278 41.277-48.188 60.816-26.235 34.403-64.297 62.625-108.852 65.203-15.41.887-30.785-1.972-45.207-7.277-19.191-7.078-37.277-17.668-53.355-30.234a150 150 0 0 1-12.5-10.875c-13.754 9.418-28.461 18.824-43.75 24.863-31.606 12.515-67.95 13.601-101.328 10.305-39.133-3.864-76.207-12.649-106.993-38.098ZM722.535 66.793c-3.547-8.336-8.719-16.164-15.644-23.04-10.809-10.76-25.114-14.624-39.922-15.042-16.364-.469-33.38 3.262-48 7.848-25.75 8.03-46.98 25.129-69.703 39-39 23.793-86.903 44.437-133.684 38.03-35.52-4.886-62.992-26.62-92.406-45.023-29.145-18.238-62.024-35.289-96.524-39.789-19.023-2.492-38.597-.668-56.449 6.559-26.52 10.758-48.773 28.676-76.898 36.258-18.184 4.902-37.563 6.574-55.762.867-4.484-1.387-8.836-3.176-13.086-5.168.133.57.266 1.086.383 1.555 4.402 18.004 13.973 34.601 26.87 47.87 21.2 21.802 50.13 33.395 79.927 37.208 22.203 2.847 44.187 2.777 65.183 5.926 22.89 3.445 44.625 10.574 64.45 27.804 20.347 17.703 30.316 40.29 37.144 64.485 6.176 21.898 9.672 45.14 17.566 66.437 13.57 36.61 43.688 72.531 80.211 93.762 35.403 20.562 77.016 27.324 115.18 5.773 18.856-10.64 32.656-31.386 40.387-54.293 7.847-23.222 9.453-48.84 2.746-69.25-12.852-39.066-56.953-55.664-93.395-38.715-14.773 6.875-27.257 19.891-29.949 36.34-5.84 35.602 30.266 63.914 62.977 47.7 8.148-4.032 14.254-10.122 20.093-16.95 3.883-4.53 10.723-5.07 15.278-1.187 4.531 3.883 5.066 10.726 1.187 15.277-7.765 9.067-16.113 16.914-26.937 22.285-48.672 24.11-102.664-17.652-93.98-70.64 3.847-23.508 21.062-42.649 42.195-52.47 48.101-22.386 106.16 0 123.109 51.602 8.031 24.426 6.594 55.13-2.793 82.934-5.707 16.918-14.34 32.695-25.348 45.426 26.938 21.25 59.293 28.144 93.16 31.488 30.047 2.98 62.79 2.375 91.235-8.883 13.016-5.152 25.516-13.066 37.328-21.117a127.3 127.3 0 0 1-17.988-33.746c-11.328-32.14-11.762-69.902 5.941-99.953 33.278-56.535 118.156-60.95 163.465-17.75 14.59 13.902 22.016 38.062 18.988 58.375-1.64 11.078-6.293 20.965-13.922 27.973-7.761 7.113-18.652 11.53-33.293 10.578-10.359-.672-20.046-4.653-29.03-9.575a10.82 10.82 0 0 1-4.298-14.703c2.86-5.238 9.453-7.18 14.707-4.3 6.223 3.414 12.832 6.492 20.024 6.96 7.515.485 13.254-1.273 17.234-4.921 4.102-3.762 6.258-9.25 7.145-15.192 2.043-13.719-2.66-30.133-12.496-39.52-35.973-34.28-103.434-31.804-129.852 13.067-14.473 24.563-13.437 55.485-4.184 81.75 7.329 20.746 20.497 37.664 37.778 51.164 14.34 11.195 30.418 20.664 47.52 26.953 11.624 4.301 24.042 6.711 36.456 5.993 38.215-2.211 70.387-27.208 92.891-56.704 15.477-20.312 31.121-44.171 50.129-63.058 20.676-20.531 45.223-35.27 76.976-35.453 33.516-.203 66.477 13.214 99.485 17.683 43.652 5.922 95.52-2.36 132.863-26.437 22.723-14.621 41.379-35.317 59.379-55.262a241 241 0 0 0 5.105-5.855c-5.925-1.508-12.164-2.477-17.417-3.934-18.489-5.137-37.079-11.14-53.606-21.098-21.785-13.117-38.402-33.21-59.047-47.933-25.383-18.102-55.113-27.559-86.133-29.547-26.902-1.742-52.851 7.965-78.82 15.976-29.18 9.036-58.34 16.063-88.309 7.965-38.496-10.406-65.937-39.855-98.476-60.734-44.625-28.61-102.012-44.856-153.828-30.55-8.5 2.343-18.055 4.698-26.352 8.784 7.38 32.84-2.426 69.114-26.469 95.266-19.308 20.98-48.89 35.84-77.933 28.293-16.047-4.184-31.488-15.426-41.242-29.965-10.242-15.242-14.239-33.914-7.516-51.766 8.031-21.332 26.988-33.699 47.836-40.09 5.723-1.757 11.797 1.458 13.55 7.16 1.759 5.723-1.472 11.798-7.175 13.555-14.488 4.45-28.344 12.196-33.93 27.02-4.183 11.074-1.14 22.586 5.22 32.039 6.823 10.156 17.5 18.156 28.71 21.066 21.25 5.52 42.414-6.625 56.52-21.968 18.738-20.38 26.867-48.555 21.68-74.203a10.9 10.9 0 0 1-3.16-2.676c-2.727-3.399-3.063-7.93-1.255-11.594m0 0"/></g></svg>