<svg xmlns="http://www.w3.org/2000/svg" xmlns:xlink="http://www.w3.org/1999/xlink" width="1920" zoomAndPan="magnify" viewBox="0 0 1440 484.499986" height="646" preserveAspectRatio="xMidYMid meet" version="1.0"><defs><clipPath id="c513ead5d4"><path d="M 0.742188 0 L 1439.257812 0 L 1439.257812 484 L 0.742188 484 Z M 0.742188 0 " clip-rule="nonzero"/></clipPath><clipPath id="e5746a408d"><path d="M 1 6 L 1439.257812 6 L 1439.257812 483 L 1 483 Z M 1 6 " clip-rule="nonzero"/></clipPath><clipPath id="0caa3062c1"><rect x="0" width="1440" y="0" height="484"/></clipPath></defs><g clip-path="url(#c513ead5d4)"><g><g clip-path="url(#0caa3062c1)"><path fill="#c1911d" d="M 790.097656 49.890625 C 787.804688 49.355469 794.460938 51.683594 796.371094 53.054688 C 800.402344 55.964844 804.300781 58.996094 808.449219 61.722656 C 818.320312 68.179688 828.894531 73.535156 839.519531 78.601562 C 878.253906 97.089844 919.378906 113.402344 961.792969 120.832031 C 1002.683594 128.011719 1044.5625 128.011719 1083.546875 112.566406 C 1132.332031 93.242188 1175.03125 55.730469 1230.3125 58.359375 C 1254.988281 59.53125 1333.175781 80.777344 1316.378906 120.382812 C 1308.679688 138.519531 1281.257812 145.878906 1264.859375 152.503906 C 1228.285156 167.261719 1192.582031 181.351562 1164.15625 209.710938 C 1106.316406 267.414062 1084.566406 363.101562 1005.628906 398.957031 C 948.824219 424.738281 886.535156 399.910156 879.390625 335.359375 C 878.886719 330.828125 879.910156 344.480469 880.410156 349.011719 C 881.414062 358.046875 882.203125 367.066406 880.644531 376.101562 C 875.894531 403.507812 853.421875 416.472656 827.792969 420.554688 C 793.945312 425.945312 748.601562 424.957031 715.792969 414.398438 C 699.429688 409.128906 676.15625 386.140625 659.171875 387.3125 C 644.398438 388.332031 627.234375 402.988281 614.703125 409.867188 C 584.601562 426.429688 548.296875 438.726562 514.398438 426.226562 C 487.59375 416.339844 470.0625 389.167969 453.714844 367.351562 C 433.371094 340.179688 411.617188 316.320312 380.546875 301.347656 C 307.484375 266.09375 225.566406 303.503906 148.371094 289.449219 C 119.675781 284.214844 71.992188 269.003906 65.617188 234.941406 C 61.886719 214.980469 81.160156 203.734375 96.886719 197.378906 C 132.039062 183.191406 170.472656 177.234375 208.199219 176.632812 C 283.523438 175.425781 358.027344 187.589844 432.902344 172.816406 C 474.175781 164.683594 516.691406 153.441406 555.574219 137.261719 C 582.3125 126.136719 606.957031 109.773438 634.847656 101.507812 C 672.828125 90.265625 714.921875 90.785156 754.175781 86.449219 " fill-opacity="1" fill-rule="nonzero"/><path fill="#fcc103" d="M 1359.929688 116.449219 C 1360.679688 119.5625 1353.621094 117.605469 1350.59375 118.609375 C 1340.066406 122.070312 1329.175781 123.859375 1318.101562 124.347656 C 1277.792969 126.101562 1243.011719 94.164062 1203.140625 102.109375 C 1171.25 108.46875 1151.773438 136.609375 1125.507812 153.308594 C 1072.785156 186.820312 1009.742188 205.726562 947.871094 189.496094 C 892.492188 174.976562 862.960938 126.488281 817.433594 95.835938 C 802.710938 85.929688 772.78125 68.867188 758.625 89.128906 C 751.378906 99.515625 755.210938 127.675781 771.457031 128.027344 C 787.90625 128.378906 784.1875 87.121094 806.425781 103.179688 C 835.269531 124.011719 819.996094 163.398438 786.011719 165.539062 C 752.683594 167.648438 704.664062 127.59375 712.246094 92.070312 C 719.808594 56.535156 759.527344 37.964844 792.875 38.617188 C 851.179688 39.769531 894.800781 79.910156 944.273438 104.371094 C 974.355469 119.261719 1008.253906 125.265625 1041.699219 123.8125 C 1096.980469 121.386719 1126.578125 81.515625 1174.847656 61.839844 C 1236.015625 36.925781 1301.570312 56.03125 1357.820312 84.308594 C 1374.5 92.707031 1395.230469 101.40625 1409.183594 114.15625 " fill-opacity="1" fill-rule="nonzero"/><path fill="#fcc103" d="M 922.890625 328.851562 C 925.21875 327.195312 919.847656 323.515625 920.28125 320.6875 C 921.132812 315.132812 927.007812 311.152344 931.089844 307.988281 C 938.117188 302.550781 945.546875 299.039062 953.675781 295.675781 C 956.171875 294.636719 960.300781 292.980469 960.117188 289.632812 C 959.785156 283.527344 950.664062 280.832031 945.898438 281.019531 C 933.75 281.503906 921.035156 291.992188 914.996094 301.898438 C 901.273438 324.386719 912.402344 349.582031 933.800781 362.097656 C 958.761719 376.6875 995.605469 378.609375 1021.386719 364.839844 C 1054.230469 347.324219 1055.085938 306.214844 1072.152344 276.769531 C 1109.328125 212.585938 1154.601562 151.417969 1228.386719 129.199219 C 1253.9375 121.519531 1281.625 115.664062 1308.414062 118.910156 C 1315.324219 119.746094 1329.160156 121.484375 1331.902344 129.566406 C 1333.34375 133.816406 1328.941406 136.695312 1325.746094 138.300781 C 1315.742188 143.351562 1304.296875 145.929688 1293.503906 148.589844 C 1250.238281 159.296875 1200.578125 171.429688 1170.144531 206.597656 C 1148.949219 231.125 1141.820312 262.730469 1129.421875 291.859375 C 1104.292969 350.9375 1071.246094 401.148438 1006.53125 420.355469 C 982.640625 427.449219 956.335938 429.777344 933.632812 417.695312 C 897.980469 398.722656 869.535156 349.800781 876.53125 309.160156 C 884.410156 263.234375 937.097656 232.765625 979.359375 256.574219 C 986.605469 260.65625 993.230469 266.128906 998.230469 272.800781 C 1001.679688 277.402344 1004.304688 282.640625 1006.027344 288.113281 C 1021.105469 335.914062 948.390625 366.914062 919.5625 330.15625 " fill-opacity="1" fill-rule="nonzero"/><path fill="#fcc103" d="M 875.574219 367.667969 C 875.742188 368.488281 863.644531 371.5 863.128906 371.632812 C 846.128906 376.234375 828.863281 378.695312 811.3125 380.03125 C 784.640625 382.058594 757.839844 382.109375 731.183594 379.78125 C 717.128906 378.5625 702.976562 377.003906 689.273438 373.492188 C 687.851562 373.125 677.644531 368.523438 676.609375 370.429688 C 673.3125 376.585938 675.21875 391.695312 674.984375 398.519531 C 674.75 405.164062 674.214844 412.140625 675.453125 418.714844 C 680.1875 443.8125 719.625 445 738.863281 446.019531 C 785.863281 448.496094 834.183594 443.027344 878.488281 426.695312 C 894.933594 420.625 915.195312 412.894531 927.257812 399.523438 " fill-opacity="1" fill-rule="nonzero"/><path fill="#fcc103" d="M 576.640625 343.859375 C 580.304688 337.25 573.242188 329.203125 579.882812 321.910156 C 593.035156 307.453125 611.039062 324.050781 614.902344 337.855469 C 624.574219 372.589844 587.75 400.078125 556.007812 397.515625 C 507.203125 393.570312 488.566406 353.765625 463.035156 318.8125 C 447.960938 298.183594 429.070312 280.785156 407 267.867188 C 333.117188 224.683594 252.824219 243.574219 172.027344 241.683594 C 154.777344 241.28125 137.394531 240.09375 120.628906 235.777344 C 110.707031 233.214844 101.988281 228.832031 93.625 222.992188 C 92.402344 222.140625 86.28125 216.167969 84.65625 216.503906 C 78.566406 217.722656 69.265625 229.636719 64.511719 233.449219 C 59.558594 237.417969 51.527344 241.199219 49.855469 247.890625 C 47.914062 255.652344 52.632812 264.6875 56.449219 271.097656 C 68.09375 290.621094 87 303.890625 108.917969 309.394531 C 180.660156 327.464844 252.335938 281.886719 324.265625 299.925781 C 415.265625 322.730469 444.144531 437.304688 538.894531 454.453125 C 550.921875 456.644531 563.253906 457.046875 575.398438 455.574219 C 589.421875 453.867188 603.242188 449.820312 615.707031 443.125 C 674.851562 411.402344 690.964844 300.007812 620.125 271.882812 C 611.589844 268.484375 602.40625 266.59375 593.21875 266.460938 C 562.867188 265.976562 506.332031 295.070312 525.742188 333.320312 C 529.070312 339.878906 534.089844 345.097656 539.460938 350.019531 " fill-opacity="1" fill-rule="nonzero"/><path fill="#fcc103" d="M 140.035156 262.160156 C 139.433594 264.035156 141.507812 258.53125 142.464844 256.824219 C 144.753906 252.691406 147.601562 248.960938 150.695312 245.398438 C 158.574219 236.34375 167.542969 228.28125 177.515625 221.570312 C 208.316406 200.839844 246.882812 194.71875 283.007812 202.164062 C 332.664062 212.402344 377.535156 238.671875 429.972656 233.25 C 508.925781 225.085938 555.675781 159.128906 624.140625 128.746094 C 647.832031 118.238281 672.945312 112.484375 698.894531 114.308594 C 705.234375 114.757812 722.484375 120.097656 725.863281 111.714844 C 732.40625 95.484375 706.136719 79.558594 695.046875 74.855469 C 657.382812 58.878906 609.363281 59.964844 570.515625 70.90625 C 506.683594 88.894531 464.671875 145.292969 398.886719 159.734375 C 372.03125 165.640625 344.007812 167.230469 316.988281 161.558594 C 284.410156 154.714844 253.105469 141.445312 219.109375 145.359375 C 153.554688 152.941406 113.871094 211.398438 75.773438 258.332031 " fill-opacity="1" fill-rule="nonzero"/><path fill="#fcc103" d="M 700.449219 97.527344 C 699.746094 98.113281 694.578125 95.703125 693.941406 95.503906 C 687.816406 93.425781 681.710938 91.4375 675.386719 90.03125 C 654.105469 85.261719 632.804688 85.546875 611.554688 90.382812 C 556.007812 103.03125 517.277344 152.269531 466.546875 175.492188 C 433.101562 190.785156 393.597656 197.832031 357.292969 190.050781 C 322.457031 182.570312 289.730469 163.179688 253.574219 163.246094 C 235.289062 163.261719 216.265625 166.492188 199.632812 174.40625 C 183.371094 182.152344 170.640625 195.671875 156.183594 206.128906 C 133.460938 222.523438 106.375 235.441406 78.433594 239.171875 C 73.582031 239.808594 68.679688 240.226562 63.777344 240.328125 C 59.527344 240.429688 55.261719 240.261719 51.027344 239.859375 C 47.5625 239.539062 44.117188 239.054688 40.6875 238.4375 C 38.5625 238.050781 36.421875 237.652344 34.3125 237.199219 C 30.816406 236.429688 12.058594 233.417969 11.355469 225.957031 C 11.289062 225.167969 30.699219 222.945312 31.851562 222.726562 C 46.726562 219.964844 61.214844 215.382812 75.035156 209.222656 C 111.878906 192.792969 138.648438 162.242188 174.304688 144.589844 C 207.347656 128.226562 248.4375 120.398438 284.664062 129.648438 C 321.4375 139.035156 354.597656 162.445312 394.132812 155.535156 C 432.148438 148.875 458.132812 121.519531 487.847656 99.402344 C 514.480469 79.589844 544.664062 64.867188 576.957031 57.152344 C 606.304688 50.160156 638.929688 47.230469 668.84375 51.75 C 680.992188 53.574219 697.003906 56.601562 704.550781 67.445312 " fill-opacity="1" fill-rule="nonzero"/><path fill="#fcc103" d="M 61.851562 221.019531 C 60.964844 220.769531 62.738281 222.609375 63.089844 223.445312 C 63.859375 225.320312 64.628906 227.195312 65.347656 229.082031 C 67.421875 234.539062 69.414062 240.078125 72.058594 245.296875 C 79.9375 260.921875 94.578125 272.585938 109.972656 280.347656 C 127.457031 289.183594 147.617188 287.191406 166.472656 285.652344 C 193.410156 283.445312 220.296875 280.5 247.167969 277.4375 C 309.640625 270.34375 371.914062 274.578125 421.390625 317.925781 C 454.75 347.15625 475.765625 387.210938 513.714844 411.707031 C 529.472656 421.894531 548.328125 430.5625 567.503906 429.289062 C 604.832031 426.832031 637.539062 389.703125 641.941406 353.984375 C 643.964844 337.570312 641.40625 319.816406 629.84375 307.285156 C 616.875 293.25 594.65625 287.675781 576.957031 295.507812 C 566.800781 299.992188 554.972656 310.949219 560.441406 323.195312 C 563.589844 330.273438 583.949219 337.550781 571.886719 345.601562 C 570.648438 346.421875 569.3125 347.074219 567.9375 347.640625 C 565.730469 348.546875 563.402344 349.148438 561.0625 349.597656 C 528.351562 355.90625 503.121094 316.921875 520.875 288.914062 C 527.515625 278.457031 538.207031 271.0625 548.882812 265.207031 C 586.492188 244.542969 639.597656 249.179688 668.929688 282.992188 C 684.890625 301.378906 688.972656 328.167969 684.269531 351.472656 C 679.402344 375.550781 665.179688 397.382812 649.335938 415.753906 C 636.769531 430.292969 621.929688 444.011719 604.882812 453.148438 C 592.015625 460.058594 577.339844 464.558594 562.902344 466.632812 C 514.882812 473.511719 469.609375 447.527344 440.429688 410.601562 C 414.28125 377.539062 394.703125 335.195312 351.570312 321.105469 C 318.007812 310.148438 285.683594 325.054688 253.089844 332.199219 C 221.015625 339.226562 186.71875 338.605469 154.578125 332.566406 C 125.261719 327.0625 95.28125 319.164062 71.339844 300.507812 C 59.277344 291.105469 49.621094 279.011719 40.25 267.03125 C 32.355469 256.925781 15.890625 240.34375 17.75 225.6875 " fill-opacity="1" fill-rule="nonzero"/><path fill="#fcc103" d="M 672.125 397.585938 C 670.9375 397.550781 674.449219 398.152344 675.539062 398.621094 C 677.476562 399.441406 679.433594 400.210938 681.394531 400.945312 C 686.980469 402.988281 692.734375 404.710938 698.441406 406.367188 C 714.722656 411.101562 731.554688 413.378906 748.433594 414.515625 C 784.140625 416.941406 820.042969 414.214844 854.996094 406.519531 C 865.253906 404.277344 875.324219 401.382812 885.398438 398.40625 C 888.058594 397.601562 893.980469 394.90625 896.371094 397.683594 C 899.183594 400.964844 898.363281 408.828125 898.230469 412.726562 C 897.175781 442.441406 857.824219 450.003906 834.617188 455.191406 C 790.664062 465.042969 743.382812 462.636719 702.207031 443.496094 C 686.8125 436.335938 671.070312 427.71875 660.527344 414.046875 " fill-opacity="1" fill-rule="nonzero"/><path fill="#fcc103" d="M 918.625 330.292969 C 919.144531 331.363281 917.070312 328.382812 916.667969 327.246094 C 915.929688 325.136719 916.113281 322.996094 917.050781 320.957031 C 919.546875 315.566406 925.21875 312.707031 931.039062 313.277344 C 944.792969 314.582031 952.371094 329.621094 967.179688 329.136719 C 987.054688 328.5 995.941406 305.679688 986.269531 289.9375 C 969.789062 263.082031 932.058594 264.789062 911.398438 285.351562 C 887.136719 309.511719 894.179688 341.382812 908.570312 368.773438 C 914.007812 379.148438 919.964844 390.375 929.617188 397.46875 C 954.679688 415.871094 994.132812 416.15625 1020.886719 401.949219 C 1036.296875 393.769531 1048.359375 380.871094 1059.988281 368.136719 C 1069.757812 357.414062 1079.246094 346.386719 1085.335938 333.070312 C 1090.738281 321.273438 1093.300781 308.289062 1097.414062 295.992188 C 1106.984375 267.367188 1118.109375 238.234375 1137.152344 214.425781 C 1160.074219 185.765625 1188.835938 157.910156 1223.703125 144.859375 C 1258.371094 131.875 1296.25 132.261719 1331.402344 121.066406 C 1357.988281 112.601562 1382.414062 95.199219 1400.285156 73.902344 C 1405.234375 68.011719 1413.785156 52.570312 1420.527344 65.035156 C 1434.148438 90.214844 1399.796875 116.984375 1383.234375 130.421875 C 1362.152344 147.519531 1337.925781 160.152344 1311.140625 165.304688 C 1267.554688 173.703125 1218.699219 169.6875 1182.445312 199.839844 C 1165.746094 213.726562 1154.855469 232.75 1150.417969 253.929688 C 1145.683594 276.652344 1146.621094 299.136719 1138.757812 321.457031 C 1132.550781 339.074219 1122.796875 354.71875 1111.21875 369.308594 C 1070.277344 420.890625 998.417969 462.683594 933.617188 428.304688 C 905.257812 413.246094 879.089844 392.78125 875.542969 358.652344 C 874.121094 344.980469 875.476562 330.960938 877.535156 317.441406 C 883.355469 279.109375 904.671875 232.796875 950.75 237.382812 C 959.535156 238.269531 968.082031 240.847656 976.097656 244.511719 C 986.957031 249.480469 996.859375 256.640625 1004.757812 265.640625 C 1009.726562 271.3125 1013.675781 277.855469 1016.050781 285.035156 C 1033.785156 338.554688 953.792969 375.230469 919.5625 334.15625 " fill-opacity="1" fill-rule="nonzero"/><path fill="#fcc103" d="M 1395.765625 85.230469 C 1395.933594 86.5 1387.46875 91.417969 1386.648438 91.90625 C 1376.457031 97.710938 1364.195312 101.140625 1352.617188 102.546875 C 1329.828125 105.304688 1308.480469 97.777344 1289.507812 85.597656 C 1270.464844 73.351562 1251.894531 56.753906 1228.167969 55.3125 C 1196.246094 53.371094 1168.171875 83.1875 1144.765625 101.023438 C 1106.96875 129.800781 1062.261719 155.71875 1013.257812 154.863281 C 962.074219 153.976562 920.902344 127.507812 881.28125 97.777344 C 853.757812 77.148438 825.816406 50.292969 788.859375 51.714844 C 771.375 52.367188 751.765625 60.316406 742.292969 75.777344 C 726.566406 101.425781 745.507812 138.953125 773.398438 146.265625 C 776.675781 147.117188 780.058594 147.484375 783.4375 147.132812 C 813.820312 143.972656 791.265625 111.515625 786.230469 97.140625 C 783.90625 90.515625 783.671875 81.597656 792.421875 80.492188 C 803.179688 79.140625 813.035156 86.566406 819.039062 94.800781 C 831.121094 111.363281 834.214844 135.707031 822.988281 153.542969 C 818.121094 161.289062 807.761719 176.582031 799.734375 180.597656 C 751.214844 204.90625 701.269531 150.882812 701.238281 100.203125 C 701.21875 87.570312 702.472656 74.035156 708.128906 62.558594 C 721.296875 35.886719 752.800781 22.753906 780.976562 21.617188 C 862.207031 18.304688 916.515625 104.300781 998.867188 101.777344 C 1055.234375 100.035156 1102.382812 58.425781 1150.636719 34.214844 C 1178.5625 20.210938 1212.925781 12.632812 1244.164062 14.855469 C 1286.511719 17.886719 1316.175781 45.191406 1353.972656 60.015625 C 1366.085938 64.75 1379.070312 67.445312 1392.101562 66.421875 C 1403.078125 65.570312 1423.304688 50.226562 1424.660156 67.527344 C 1424.84375 69.902344 1424.828125 72.328125 1424.542969 74.6875 C 1424.09375 78.554688 1422.90625 82.21875 1421.25 85.730469 C 1418.671875 91.152344 1415.039062 96.039062 1410.859375 100.320312 C 1405.453125 105.875 1399.179688 110.324219 1392.6875 114.507812 " fill-opacity="1" fill-rule="nonzero"/><g clip-path="url(#e5746a408d)"><path fill="#624313" d="M 909.019531 431.128906 C 911.898438 433.289062 914.894531 435.246094 917.988281 436.988281 C 963.265625 462.550781 1012.6875 455.492188 1054.683594 431.0625 C 1095.539062 407.320312 1129.15625 367.066406 1144.347656 326.109375 C 1152.445312 304.273438 1156.125 280.484375 1162.449219 258.011719 C 1168.136719 237.851562 1175.984375 218.761719 1192.949219 204.003906 C 1209.347656 189.75 1227.449219 184.128906 1246.390625 181.28125 C 1267.238281 178.15625 1289.070312 178.253906 1311.121094 175.425781 C 1345.742188 170.976562 1379.1875 157.15625 1403.8125 131.824219 C 1419.390625 115.8125 1430.886719 95.734375 1436.207031 74.003906 C 1437.261719 69.734375 1439.25 61.671875 1439.21875 55.164062 C 1439.183594 50.578125 1438.144531 46.546875 1436.375 43.585938 C 1435.804688 42.613281 1430.886719 35.621094 1422.484375 39.269531 C 1420.929688 39.953125 1413.5 44.054688 1413.265625 44.171875 C 1407.730469 47.148438 1402.007812 49.910156 1395.984375 51.785156 C 1381.730469 56.25 1366.570312 54.511719 1352.332031 50.679688 C 1325.078125 43.316406 1303.644531 25.683594 1277.929688 15.257812 C 1256.628906 6.625 1233.257812 4.316406 1210.550781 7.277344 C 1172.992188 12.179688 1137.050781 30.351562 1105.328125 50.195312 C 1078.507812 66.976562 1053.863281 87.671875 1021.472656 92.105469 C 979.558594 97.859375 936.964844 78.367188 902.027344 57.054688 C 877.785156 42.28125 854.945312 24.445312 827.507812 15.859375 C 792.589844 4.953125 746.378906 0 717.816406 28.394531 C 710.003906 36.171875 703.898438 44.90625 699.414062 54.210938 C 690.425781 50.195312 680.65625 47.449219 671.722656 44.992188 C 614.066406 29.078125 550.070312 46.34375 500.429688 78.183594 C 469.726562 97.878906 444.3125 126.421875 407.988281 136.242188 C 382.089844 143.234375 356.957031 136.308594 331.726562 128.496094 C 303.25 119.695312 274.640625 109.691406 245.125 111.582031 C 210.058594 113.839844 176.496094 124.664062 147.800781 145.125 C 127.621094 159.515625 111.476562 179.292969 90.160156 192.125 C 75.320312 201.074219 58.554688 206.3125 41.941406 210.914062 C 31.117188 213.910156 16.980469 215.867188 7.222656 221.6875 C 1.835938 224.882812 0.898438 229.21875 1.71875 233.667969 C 2.003906 235.207031 2.640625 236.929688 3.894531 238.65625 C 4.683594 239.742188 7.375 242.132812 8.128906 242.785156 C 11.707031 247.355469 15.457031 251.804688 19.335938 256.105469 C 38.59375 277.4375 58.742188 299.40625 83.050781 315.066406 C 124.527344 341.800781 182.082031 351.324219 230.570312 344.765625 C 262.59375 340.414062 294.515625 327.078125 327.027344 327.261719 C 352.640625 327.414062 372.183594 339.863281 388.847656 356.425781 C 407.167969 374.613281 422.125 397.703125 437.035156 417.242188 C 463.269531 451.644531 501.332031 479.867188 545.886719 482.445312 C 561.296875 483.332031 576.671875 480.472656 591.09375 475.167969 C 610.285156 468.089844 628.371094 457.5 644.449219 444.933594 C 648.851562 441.503906 653.035156 437.871094 656.949219 434.058594 C 670.703125 443.476562 685.40625 452.882812 700.699219 458.921875 C 732.304688 471.4375 768.648438 472.523438 802.023438 469.226562 C 841.160156 465.363281 878.234375 456.578125 909.019531 431.128906 Z M 717.464844 66.792969 C 721.011719 58.457031 726.183594 50.628906 733.109375 43.753906 C 743.917969 32.992188 758.222656 29.128906 773.03125 28.710938 C 789.394531 28.242188 806.410156 31.972656 821.03125 36.558594 C 846.78125 44.589844 868.011719 61.6875 890.734375 75.558594 C 929.734375 99.351562 977.636719 119.996094 1024.417969 113.589844 C 1059.9375 108.703125 1087.410156 86.96875 1116.824219 68.566406 C 1145.96875 50.328125 1178.847656 33.277344 1213.347656 28.777344 C 1232.371094 26.285156 1251.945312 28.109375 1269.796875 35.335938 C 1296.316406 46.09375 1318.570312 64.011719 1346.695312 71.59375 C 1364.878906 76.496094 1384.257812 78.167969 1402.457031 72.460938 C 1406.941406 71.074219 1411.292969 69.285156 1415.542969 67.292969 C 1415.410156 67.863281 1415.277344 68.378906 1415.15625 68.847656 C 1410.757812 86.851562 1401.1875 103.449219 1388.289062 116.71875 C 1367.089844 138.519531 1338.160156 150.113281 1308.363281 153.925781 C 1286.160156 156.773438 1264.175781 156.703125 1243.179688 159.851562 C 1220.289062 163.296875 1198.554688 170.425781 1178.730469 187.65625 C 1158.382812 205.359375 1148.414062 227.945312 1141.585938 252.140625 C 1135.410156 274.039062 1131.914062 297.28125 1124.019531 318.578125 C 1110.449219 355.1875 1080.332031 391.109375 1043.808594 412.339844 C 1008.40625 432.902344 966.792969 439.664062 928.628906 418.113281 C 909.773438 407.472656 895.972656 386.726562 888.242188 363.820312 C 880.394531 340.597656 878.789062 314.980469 885.496094 294.570312 C 898.347656 255.503906 942.449219 238.90625 978.890625 255.855469 C 993.664062 262.730469 1006.148438 275.746094 1008.839844 292.195312 C 1014.679688 327.796875 978.574219 356.109375 945.863281 339.894531 C 937.714844 335.863281 931.609375 329.773438 925.769531 322.945312 C 921.886719 318.414062 915.046875 317.875 910.492188 321.757812 C 905.960938 325.640625 905.425781 332.484375 909.304688 337.035156 C 917.070312 346.101562 925.417969 353.949219 936.242188 359.320312 C 984.914062 383.429688 1038.90625 341.667969 1030.222656 288.679688 C 1026.375 265.171875 1009.15625 246.03125 988.027344 236.210938 C 939.925781 213.824219 881.867188 236.210938 864.917969 287.8125 C 856.886719 312.238281 858.324219 342.941406 867.710938 370.746094 C 873.417969 387.664062 882.050781 403.441406 893.058594 416.171875 C 866.121094 437.421875 833.765625 444.316406 799.898438 447.660156 C 769.851562 450.640625 737.109375 450.035156 708.664062 438.777344 C 695.648438 433.625 683.148438 425.710938 671.335938 417.660156 C 678.898438 407.503906 684.957031 396.261719 689.324219 383.914062 C 700.652344 351.773438 701.085938 314.011719 683.382812 283.960938 C 650.105469 227.425781 565.226562 223.011719 519.917969 266.210938 C 505.328125 280.113281 497.902344 304.273438 500.929688 324.585938 C 502.570312 335.664062 507.222656 345.550781 514.851562 352.558594 C 522.613281 359.671875 533.503906 364.089844 548.144531 363.136719 C 558.503906 362.464844 568.191406 358.484375 577.175781 353.5625 C 582.429688 350.6875 584.351562 344.109375 581.472656 338.859375 C 578.613281 333.621094 572.019531 331.679688 566.765625 334.558594 C 560.542969 337.972656 553.933594 341.050781 546.742188 341.519531 C 539.226562 342.003906 533.488281 340.246094 529.507812 336.597656 C 525.40625 332.835938 523.25 327.347656 522.363281 321.40625 C 520.320312 307.6875 525.023438 291.273438 534.859375 281.886719 C 570.832031 247.605469 638.292969 250.082031 664.710938 294.953125 C 679.183594 319.515625 678.148438 350.4375 668.894531 376.703125 C 661.566406 397.449219 648.398438 414.367188 631.117188 427.867188 C 616.777344 439.0625 600.699219 448.53125 583.597656 454.820312 C 571.972656 459.121094 559.554688 461.53125 547.140625 460.8125 C 508.925781 458.601562 476.753906 433.605469 454.25 404.109375 C 438.773438 383.796875 423.128906 359.9375 404.121094 341.050781 C 383.441406 320.519531 358.898438 305.78125 327.144531 305.597656 C 293.628906 305.394531 260.667969 318.8125 227.65625 323.28125 C 184.007812 329.203125 132.140625 320.921875 94.796875 296.84375 C 72.074219 282.222656 53.417969 261.527344 35.417969 241.582031 C 33.675781 239.660156 31.988281 237.699219 30.3125 235.726562 C 36.238281 234.21875 42.476562 233.25 47.730469 231.792969 C 66.21875 226.65625 84.808594 220.652344 101.335938 210.695312 C 123.121094 197.578125 139.738281 177.484375 160.382812 162.761719 C 185.765625 144.660156 215.496094 135.203125 246.515625 133.214844 C 273.417969 131.472656 299.367188 141.179688 325.335938 149.191406 C 354.515625 158.226562 383.675781 165.253906 413.644531 157.15625 C 452.140625 146.75 479.582031 117.300781 512.121094 96.421875 C 556.746094 67.8125 614.132812 51.566406 665.949219 65.871094 C 674.449219 68.214844 684.003906 70.570312 692.300781 74.65625 C 684.921875 107.496094 694.726562 143.769531 718.769531 169.921875 C 738.078125 190.902344 767.660156 205.761719 796.703125 198.214844 C 812.75 194.03125 828.191406 182.789062 837.945312 168.25 C 848.1875 153.007812 852.183594 134.335938 845.460938 116.484375 C 837.429688 95.152344 818.472656 82.785156 797.625 76.394531 C 791.902344 74.636719 785.828125 77.851562 784.074219 83.554688 C 782.316406 89.277344 785.546875 95.351562 791.25 97.109375 C 805.738281 101.558594 819.59375 109.304688 825.179688 124.128906 C 829.363281 135.203125 826.320312 146.714844 819.960938 156.167969 C 813.136719 166.324219 802.460938 174.324219 791.25 177.234375 C 770 182.753906 748.835938 170.609375 734.730469 155.265625 C 715.992188 134.886719 707.863281 106.710938 713.046875 81.0625 C 714.238281 80.394531 715.308594 79.507812 716.210938 78.386719 C 718.9375 74.988281 719.273438 70.457031 717.464844 66.792969 Z M 717.464844 66.792969 " fill-opacity="1" fill-rule="evenodd"/></g></g></g></g></svg>