<svg xmlns="http://www.w3.org/2000/svg" width="1155" height="388" fill="none" viewBox="0 0 1155 388"><path fill="#4f5b51" fill-rule="evenodd" d="M472.426 200.44c76.41-4.872 143.266 15.869 190.625 30.568 39.017 12.109 47.357 27.795 46.067 42.894-.988 11.574-34.515 20.824-52.431 31.633-16.612 10.023-18.224 21.221-48.617 29.333-35.917 9.587-81.141 18.43-135.644 19.85-57.127 1.489-109.445-5.749-159.833-12.15-57.737-7.335-154.894-12.234-151.909-27.453 3.436-17.511 121.921-19.955 164.068-34.523 24.417-8.441 3.452-19.991 20.665-29.334 33.995-18.451 43.406-45.488 127.009-50.818" clip-rule="evenodd"/><path fill="#4f5b51" fill-rule="evenodd" d="M393.136 39.55C476.203 31.872 547.739.638 630.073 9.336c84.035 8.878 170.17 40.263 164.639 72.636-5.953 34.839-159.577 40.937-189.694 74.006-29.422 32.305 91.993 73.254 32.047 99.092-54.598 23.533-171.693 7.899-243.929-7.766-60.33-13.083-36.551-54.574-98.581-66.51-83.477-16.063-211.156 20.364-274.789-5.335-53.512-21.611 14.176-58.301 54.927-83.458 34.694-21.417 92.557-35.438 154.089-45.573 51.659-8.509 109.513-1.81 164.354-6.878" clip-rule="evenodd"/><path fill="#4f5b51" fill-rule="evenodd" d="M551.733 193.342c13.857-10.061 56.556-8.423 84.554-13.454 31.89-5.729 45.806-23.572 90.63-18.02 44.867 5.557 58.27 32.13 101.976 41.876 83.947 18.721 186.827 9.469 252.687 37.216 59.11 24.897 42.33 56.088 16.79 76.299-24.5 19.383-79.06 33.226-150.542 29.542-66.48-3.426-124.468-35.608-193.378-47.268-52.742-8.925-105.855 4.378-151.245-11.047-45.162-15.347-31.585-36.132-41.494-54.45-7.757-14.338-24.455-30.183-9.978-40.694m-186.685-16.554c21.216-10.48-2.073-35.946 24.705-42.282 22.242-5.263 34.623 16.616 55.281 23.357 20.936 6.83 65.9 3.375 65.545 16.066-.428 15.297-55.985 14.713-66.805 28.979-8.771 11.565 26.607 23.447 18.215 35.085-8.68 12.04-34.804 19.59-59.436 22.089-26.386 2.677-55.207-.223-77.057-8.24-21.384-7.846-32.315-21.039-38.406-34.125-5.509-11.833-10.592-26.747 6.011-35.464 17.334-9.1 54.08 3.362 71.947-5.465" clip-rule="evenodd"/><path fill="#bfb096" fill-rule="evenodd" d="M351.175 220.348c5.585-5.093 25.49-5.803 38.038-9.071 14.292-3.722 19.263-12.389 40.474-11.375 21.232 1.014 29.63 12.753 50.67 15.73 40.411 5.718 87.278-2.052 120.064 8.429 29.418 9.404 24.224 24.295 14.065 34.447-9.742 9.736-33.864 17.959-67.262 18.716-31.062.704-60.566-12.082-93.432-15.075-25.156-2.29-48.649 5.635-70.937.109-22.176-5.498-17.605-15.504-23.704-23.572-4.774-6.316-13.812-13.017-7.976-18.338" clip-rule="evenodd"/><path fill="url(#a)" fill-rule="evenodd" d="M551.733 185.521c13.857-10.06 56.556-8.423 84.554-13.453 31.89-5.729 45.806-23.572 90.63-18.021 44.867 5.558 58.27 32.131 101.976 41.877 83.947 18.721 186.827 9.469 252.687 37.216 59.11 24.897 42.33 56.087 16.79 76.299-24.5 19.383-79.06 33.226-150.542 29.542-66.48-3.426-124.468-35.608-193.378-47.268-52.742-8.925-105.855 4.377-151.245-11.047-45.162-15.347-31.585-36.133-41.494-54.45-7.757-14.338-24.455-30.183-9.978-40.695" clip-rule="evenodd"/><path fill="url(#b)" fill-rule="evenodd" d="M472.426 192.62c76.41-4.872 143.266 15.869 190.625 30.568 39.017 12.109 47.357 27.795 46.067 42.894-.988 11.574-34.515 20.824-52.431 31.633-16.612 10.023-18.224 21.221-48.617 29.333-35.917 9.587-81.141 18.43-135.644 19.85-57.127 1.489-109.445-5.749-159.833-12.151-57.737-7.334-154.894-12.233-151.909-27.452 3.436-17.511 121.921-19.955 164.068-34.524 24.417-8.44 3.452-19.99 20.665-29.333 33.995-18.451 43.406-45.488 127.009-50.818" clip-rule="evenodd"/><path fill="url(#c)" fill-rule="evenodd" d="M365.048 168.968c21.216-10.48-2.073-35.946 24.705-42.282 22.242-5.263 34.623 16.616 55.281 23.357 20.936 6.83 65.9 3.376 65.545 16.066-.428 15.297-55.985 14.713-66.805 28.979-8.771 11.565 26.607 23.447 18.215 35.085-8.68 12.041-34.804 19.59-59.436 22.089-26.386 2.677-55.207-.222-77.057-8.24-21.384-7.845-32.315-21.039-38.406-34.125-5.509-11.833-10.592-26.747 6.011-35.464 17.334-9.1 54.08 3.362 71.947-5.465" clip-rule="evenodd"/><path fill="url(#d)" fill-rule="evenodd" d="M393.136 31.73c83.067-7.678 154.603-38.912 236.937-30.214 84.035 8.877 170.17 40.263 164.639 72.636-5.953 34.838-159.577 40.936-189.694 74.005-29.422 32.306 91.993 73.255 32.047 99.093-54.598 23.533-171.693 7.899-243.929-7.766-60.33-13.083-36.551-54.574-98.581-66.51-83.477-16.063-211.156 20.364-274.789-5.335-53.512-21.611 14.176-58.301 54.927-83.458 34.694-21.417 92.557-35.438 154.089-45.573 51.659-8.509 109.513-1.81 164.354-6.878" clip-rule="evenodd"/><path fill="url(#e)" fill-rule="evenodd" d="M712.294 271.547c-25.009-2.506-40.415-5.904-62.047-8.941-24.639-3.458-64.374-7-73.307-10.059-8.942-3.063 35.447-.678 34.922-3.087-1.008-4.628-63.056-14.563-39.181-16.464 21.423-1.706 87.611 3.846 136.856 8.685 47.228 4.641 97.019 11.095 121.028 16.658 22.331 5.174-13.335 5.821-5.506 10.111 5.992 3.283 54.132 9.541 44.661 11.341-9.423 1.791-54.57-2.112-84.878-3.699-23.723-1.242-46.42-1.927-72.548-4.545" clip-rule="evenodd"/><path fill="url(#f)" fill-rule="evenodd" d="M351.175 217.34c5.585-5.093 25.49-5.803 38.038-9.071 14.292-3.722 19.263-12.389 40.474-11.375 21.232 1.014 29.63 12.752 50.67 15.73 40.411 5.718 87.278-2.052 120.064 8.429 29.418 9.404 24.224 24.295 14.065 34.447-9.742 9.736-33.864 17.959-67.262 18.716-31.062.704-60.566-12.082-93.432-15.075-25.156-2.29-48.649 5.635-70.937.109-22.176-5.498-17.605-15.504-23.704-23.572-4.774-6.316-13.812-13.018-7.976-18.338" clip-rule="evenodd"/><path fill="url(#g)" fill-rule="evenodd" d="M445.762 46.1c5.278-4.137 27.314-3.93 40.683-6.219 15.228-2.605 19.161-9.834 42.97-8.096 23.832 1.74 35.355 12.151 59.336 15.567 46.061 6.56 96.817 1.819 135.267 12.15 34.5 9.271 31.469 21.829 22.034 30.118-9.049 7.95-34.391 14.013-71.444 13.293-34.462-.67-69.682-12.844-106.837-16.758-28.438-2.995-53.135 2.838-78.977-2.814-25.713-5.624-22.473-14.018-30.757-21.187-6.485-5.612-17.79-11.73-12.275-16.053" clip-rule="evenodd"/><path fill="url(#h)" fill-rule="evenodd" d="M219.758 157.867c-14.299-1.77-23.359-6.648-35.845-9.954-14.223-3.766-36.882-5.681-42.283-10.734-5.407-5.057 19.693-6.126 19.073-10.976-1.191-9.315-37.173-21.3-24.105-28.378 11.725-6.35 49.422-3.87 77.566-.576 26.991 3.158 55.658 9.674 69.814 17.822 13.167 7.578-6.653 13.672-1.7 21.384 3.79 5.902 31.51 12.241 26.468 17.184-5.017 4.917-30.745 2.989-47.877 3.803-13.411.637-26.172 2.275-41.111.425" clip-rule="evenodd"/><path fill="url(#i)" fill-rule="evenodd" d="M882.078 301.638c-14.298-1.77-23.359-6.648-35.845-9.954-14.222-3.766-36.882-5.682-42.283-10.734-5.407-5.057 19.693-6.127 19.073-10.976-1.191-9.315-37.173-21.3-24.105-28.378 11.725-6.35 49.422-3.87 77.566-.577 26.991 3.159 55.658 9.674 69.814 17.823 13.167 7.578-6.652 13.671-1.7 21.383 3.791 5.903 31.51 12.242 26.468 17.184-5.016 4.918-30.745 2.99-47.877 3.804-13.41.637-26.171 2.275-41.111.425" clip-rule="evenodd"/><path fill="url(#j)" fill-rule="evenodd" d="M387.083 109.528c-24.144 5.114-41.092 5.656-62.949 8.858-24.895 3.646-62.764 12.391-73.81 11.173-11.056-1.218 29.49-13.196 26.347-16.403-6.038-6.16-70.101 1.3-51.855-9.621 16.371-9.8 79.062-24.854 126.499-35.058 45.493-9.786 95.201-17.908 121.913-18.377 24.845-.436-4.866 12.793 6.614 16.122 8.787 2.547 56.868-5.28 50.8.523-6.038 5.774-48.928 15.88-76.566 24.116-21.634 6.447-41.768 13.323-66.993 18.667" clip-rule="evenodd"/><path fill="url(#k)" fill-rule="evenodd" d="M455.457 134.346c-10.206-8.61-20.38-12.615-31.03-19.454-12.13-7.789-27.425-21.777-35.607-23.337-8.19-1.56 5.603 15.166.449 16.637-9.898 2.823-43.013-15.935-42.268-4.707.668 10.074 25.416 33.617 45.315 50.638 19.084 16.323 42.473 32.44 58.89 38.494 15.269 5.631 9.559-9.605 20.1-9.365 8.069.184 30.723 15.753 32.619 10.567 1.886-5.16-15.237-21.138-24.568-32.588-7.304-8.962-13.236-17.889-23.9-26.885" clip-rule="evenodd"/><defs><linearGradient id="a" x1="548.066" x2="922.666" y1="189.031" y2="514.337" gradientUnits="userSpaceOnUse"><stop offset=".293" stop-color="#7a937f"/><stop offset=".962" stop-color="#4a614f"/></linearGradient><linearGradient id="b" x1="434.93" x2="434.93" y1="191.895" y2="347.095" gradientUnits="userSpaceOnUse"><stop offset=".654" stop-color="#7a937f"/><stop offset=".856" stop-color="#4a614f"/></linearGradient><linearGradient id="c" x1="331.841" x2="380.846" y1="150.191" y2="268.717" gradientUnits="userSpaceOnUse"><stop offset=".087" stop-color="#4a614f"/><stop offset=".692" stop-color="#7a937f"/></linearGradient><linearGradient id="d" x1="397.482" x2="397.482" y1="0" y2="259.268" gradientUnits="userSpaceOnUse"><stop offset=".442" stop-color="#4a614f"/><stop offset="1" stop-color="#7a937f"/></linearGradient><linearGradient id="e" x1="720.512" x2="723.194" y1="272.322" y2="242.822" gradientUnits="userSpaceOnUse"><stop stop-color="#887557"/><stop offset=".231" stop-color="#eecd99"/></linearGradient><linearGradient id="f" x1="349.766" x2="552.578" y1="219.076" y2="351.687" gradientUnits="userSpaceOnUse"><stop offset=".889" stop-color="#eecd99"/></linearGradient><linearGradient id="g" x1="444.515" x2="675.809" y1="47.532" y2="198.766" gradientUnits="userSpaceOnUse"><stop offset=".889" stop-color="#eecd99"/><stop offset="1" stop-color="#887557"/></linearGradient><linearGradient id="h" x1="224.45" x2="229.895" y1="158.351" y2="98.474" gradientUnits="userSpaceOnUse"><stop offset=".889" stop-color="#eecd99"/><stop offset="1" stop-color="#887557"/></linearGradient><linearGradient id="i" x1="886.771" x2="892.215" y1="302.122" y2="242.245" gradientUnits="userSpaceOnUse"><stop stop-color="#887557"/><stop offset=".25" stop-color="#eecd99"/></linearGradient><linearGradient id="j" x1="394.963" x2="384.263" y1="107.779" y2="60.805" gradientUnits="userSpaceOnUse"><stop offset=".889" stop-color="#eecd99"/><stop offset="1" stop-color="#887557"/></linearGradient><linearGradient id="k" x1="458.71" x2="420.365" y1="137.209" y2="179.698" gradientUnits="userSpaceOnUse"><stop offset=".889" stop-color="#eecd99"/><stop offset="1" stop-color="#887557"/></linearGradient></defs></svg>